<svg xmlns="http://www.w3.org/2000/svg" viewBox="0 0 1024 1024" version="1.1">
<g id="Parent-Group"><g id="Group-rgba(0,0,0,0)" fill="rgba(0,0,0,0)">
<path fill="rgba(0,0,0,0)" opacity="1.00" d=" M 0.00 0.00 L 1024.00 0.00 L 1024.00 974.42 C 917.35 974.21 810.69 974.25 704.03 974.46 C 643.35 974.37 582.67 974.20 522.00 974.24 C 514.09 973.91 506.12 974.78 498.26 973.80 L 498.76 974.51 C 484.54 973.69 470.24 974.47 455.99 974.16 C 303.99 974.22 152.00 974.25 0.00 974.27 L 0.00 0.00 M 527.45 101.33 C 524.02 101.98 521.03 103.81 518.16 105.68 C 506.48 104.34 494.68 104.43 482.94 104.08 C 465.26 103.94 447.50 102.09 429.89 104.38 C 410.32 106.75 391.31 113.90 375.18 125.24 C 358.14 137.05 344.67 154.13 337.68 173.69 C 325.66 174.54 314.40 181.49 307.12 190.96 C 298.49 202.21 295.56 216.47 294.11 230.27 C 294.92 230.61 295.74 230.95 296.56 231.27 C 295.38 230.91 294.57 231.56 293.80 232.30 C 292.86 247.88 292.69 263.52 293.02 279.14 C 293.37 292.28 296.62 305.79 304.60 316.47 C 312.61 327.61 325.81 335.01 339.61 335.28 C 343.22 346.09 348.49 356.43 355.76 365.25 C 368.43 381.31 387.58 392.41 408.03 394.39 C 417.46 394.87 426.92 394.41 436.36 394.51 C 436.35 393.92 436.34 392.74 436.34 392.15 C 426.26 391.23 416.08 392.51 406.02 391.30 C 379.06 387.56 355.85 367.80 345.76 342.83 C 391.51 343.49 437.27 344.36 482.99 346.32 C 496.90 347.21 511.80 349.19 523.09 358.09 C 532.80 365.67 537.85 378.59 536.12 390.76 C 508.10 390.75 480.07 390.96 452.05 390.71 C 451.82 391.67 451.60 392.64 451.39 393.61 C 467.48 393.71 483.59 393.57 499.69 393.39 C 499.64 411.17 500.34 428.97 499.87 446.74 C 471.36 446.52 442.84 446.53 414.33 446.48 C 403.66 445.54 392.95 452.50 389.59 462.70 C 387.75 466.89 388.35 471.49 387.84 475.90 C 380.50 482.34 376.99 492.03 375.73 501.50 C 375.00 509.18 377.15 517.92 383.53 522.77 C 380.79 527.79 379.26 533.37 376.51 538.39 C 372.71 545.62 369.73 553.37 364.89 560.00 C 356.79 569.75 349.92 580.43 343.15 591.12 C 339.99 588.50 336.38 585.24 331.94 585.97 C 329.63 586.90 328.24 589.07 326.89 591.03 C 323.76 595.79 319.96 600.17 317.62 605.42 C 315.93 603.52 313.69 601.49 310.92 602.14 C 306.50 603.41 303.23 606.91 300.11 610.11 C 290.36 620.52 281.52 631.83 273.99 643.96 C 271.79 647.59 269.62 651.32 268.52 655.45 C 267.76 657.77 269.28 659.86 270.24 661.84 C 268.52 664.70 267.34 667.85 265.45 670.61 C 262.71 673.56 258.66 675.29 256.78 679.04 C 254.33 683.18 254.62 688.27 252.34 692.48 C 251.05 695.16 249.98 698.02 249.93 701.04 C 249.77 704.45 251.63 707.79 250.46 711.18 C 248.71 717.95 251.72 724.64 254.45 730.69 C 255.50 732.80 257.16 735.94 260.06 734.82 C 262.28 733.37 261.93 736.33 262.69 737.41 C 264.96 740.65 270.40 739.02 271.44 735.49 C 272.56 731.61 271.84 727.50 272.38 723.55 C 273.87 726.14 273.88 729.51 276.18 731.63 C 278.68 733.13 281.84 731.26 282.65 728.70 C 283.94 724.43 282.79 719.83 283.71 715.55 C 285.59 712.85 288.51 711.10 290.68 708.66 C 293.39 705.94 294.43 702.15 296.37 698.93 C 298.03 705.17 302.12 711.70 308.94 712.93 C 311.96 713.71 315.70 710.67 314.36 707.51 C 312.79 703.15 311.11 698.82 309.97 694.33 C 313.60 694.42 315.89 691.46 318.05 689.00 C 327.86 677.44 337.25 665.53 346.83 653.79 C 350.14 649.84 353.78 645.44 353.85 640.02 C 354.22 636.83 352.49 634.00 351.66 631.04 C 355.19 626.65 357.72 621.57 360.83 616.90 C 362.11 614.75 363.64 612.52 363.75 609.95 C 362.98 605.80 358.91 603.75 356.14 601.07 C 363.06 589.55 371.03 578.71 379.10 567.98 C 382.96 562.72 385.59 556.72 388.49 550.92 C 390.32 560.57 400.38 568.84 410.38 566.40 C 409.41 569.94 409.77 573.62 410.23 577.21 C 401.58 578.23 393.22 583.39 389.35 591.34 C 385.42 598.93 386.12 607.78 386.21 616.06 C 386.33 633.37 386.62 650.67 386.66 667.98 C 386.73 672.67 386.59 677.47 388.20 681.95 C 390.54 689.83 397.14 696.23 405.04 698.44 C 412.01 700.58 419.39 699.51 426.55 699.81 C 426.76 705.49 424.96 712.21 429.01 716.95 C 432.39 720.43 437.71 719.76 442.11 720.16 C 442.09 726.79 443.01 733.37 442.83 740.01 C 442.83 742.10 442.79 745.07 445.13 745.99 C 449.29 747.51 453.77 747.93 458.16 748.21 C 458.59 765.83 459.11 783.48 458.76 801.11 C 459.12 801.22 459.84 801.42 460.20 801.53 C 460.68 802.63 461.20 803.73 461.79 804.81 C 460.50 805.49 459.58 801.99 459.00 803.88 C 459.07 820.20 459.30 836.55 458.93 852.87 C 455.63 852.89 452.29 852.54 449.04 853.20 C 445.69 854.05 443.76 857.67 444.06 860.98 C 444.45 867.37 444.31 873.79 444.79 880.19 C 445.19 881.80 443.40 882.58 442.63 883.71 C 440.72 885.60 440.78 888.49 440.77 891.00 C 441.26 905.64 441.06 920.30 441.28 934.95 C 441.39 937.88 440.90 940.96 442.11 943.74 C 442.56 943.70 443.45 943.61 443.90 943.57 C 443.78 925.70 443.57 907.84 443.37 889.98 C 443.22 887.65 444.51 885.63 446.00 883.98 C 450.93 883.21 456.03 882.95 460.98 883.76 C 463.55 884.08 466.36 886.02 466.03 888.93 C 466.06 894.28 466.44 899.63 466.28 904.99 C 466.13 906.76 466.55 908.89 468.30 909.78 C 471.10 911.26 474.79 909.19 475.15 906.09 C 476.19 898.10 476.44 890.00 478.24 882.13 C 480.11 880.83 482.54 880.69 484.68 881.32 C 486.36 882.41 485.86 884.62 486.25 886.31 C 485.75 913.23 486.50 940.19 485.82 967.10 C 471.87 966.60 457.87 967.05 443.90 966.85 C 444.39 959.70 443.61 952.54 443.98 945.39 C 443.52 945.36 442.59 945.30 442.12 945.27 C 441.63 946.46 441.40 947.70 441.43 949.00 C 441.57 954.96 441.54 960.93 441.95 966.89 C 402.69 966.90 363.39 966.92 324.15 966.82 C 324.17 967.56 324.19 969.04 324.20 969.77 C 362.47 969.24 400.74 969.64 439.00 969.56 C 440.33 969.43 441.63 969.72 442.67 970.61 C 443.76 970.14 444.77 969.29 446.03 969.44 C 458.69 969.42 471.36 969.48 484.02 969.65 C 484.93 969.75 485.82 969.94 486.71 970.24 C 489.97 969.00 493.52 969.72 496.93 969.56 C 506.17 969.75 515.48 968.96 524.68 970.06 C 529.45 969.25 534.29 969.65 539.10 969.56 C 548.48 969.52 557.86 969.42 567.23 969.74 C 567.29 970.33 567.42 971.50 567.48 972.09 C 567.01 969.26 569.99 969.66 571.86 969.52 C 601.23 969.30 630.60 969.36 659.98 969.28 C 685.40 969.06 710.83 969.49 736.24 968.89 C 735.72 967.94 734.95 967.50 733.94 967.56 C 679.11 966.99 624.26 967.10 569.43 966.99 C 569.47 966.41 569.57 965.25 569.61 964.67 C 569.64 939.75 569.91 914.80 569.63 889.88 C 569.61 887.60 569.69 885.32 569.64 883.05 C 566.62 878.97 567.96 873.71 567.38 869.02 C 566.92 864.60 567.57 859.98 566.29 855.71 C 564.07 850.91 557.97 852.69 553.81 852.66 C 552.55 829.08 552.96 805.43 551.61 781.87 C 550.01 781.78 550.20 781.31 551.63 781.08 C 551.68 773.91 550.98 766.76 551.09 759.59 C 550.55 759.57 549.49 759.53 548.95 759.51 C 549.49 759.46 550.57 759.37 551.11 759.32 C 551.11 755.83 550.75 752.34 551.06 748.86 C 554.90 746.94 561.46 748.24 563.07 743.08 C 562.64 736.34 563.03 729.59 562.68 722.85 C 568.28 724.07 575.01 721.74 576.98 715.97 C 577.83 710.50 577.41 704.90 576.84 699.42 C 583.35 699.87 590.14 700.46 596.51 698.68 C 605.02 695.73 612.13 687.34 611.60 678.01 C 611.28 651.37 610.41 624.74 610.07 598.11 C 610.05 592.92 607.53 587.65 602.96 585.01 C 597.41 581.31 590.47 583.33 584.27 582.21 C 587.66 579.04 585.74 573.81 585.86 569.75 C 590.09 569.88 594.38 570.21 598.55 569.41 C 604.58 567.61 610.02 563.05 611.96 556.94 C 613.28 553.10 612.88 548.99 613.26 545.02 C 620.16 554.22 626.42 564.30 635.91 571.13 C 644.74 577.92 652.82 585.65 661.56 592.52 C 659.29 595.25 657.41 598.45 656.78 601.99 C 656.22 604.82 658.81 606.72 660.66 608.38 C 664.75 611.64 668.21 615.72 672.79 618.36 C 672.08 621.62 672.35 625.03 674.03 627.97 C 676.16 632.78 681.08 635.17 685.44 637.56 C 696.95 643.73 708.39 650.01 719.96 656.08 C 722.79 657.38 725.64 659.04 728.86 659.00 L 728.75 658.36 C 731.34 656.78 733.67 658.90 736.03 659.80 C 740.67 661.74 745.83 661.29 750.64 662.50 C 752.17 667.26 748.52 672.10 748.99 676.97 C 749.75 678.44 751.57 678.67 752.95 679.32 C 759.40 676.93 764.04 670.18 763.27 663.23 C 767.15 665.61 772.05 666.41 776.48 665.34 C 782.42 663.07 787.05 658.34 793.03 656.14 C 800.29 653.36 804.05 646.04 808.40 640.12 C 810.14 638.09 808.71 635.78 807.29 634.10 C 807.81 632.55 809.12 630.71 807.47 629.38 C 804.93 627.00 800.43 625.57 798.07 628.93 C 798.44 627.96 798.79 626.98 799.10 626.00 C 798.91 622.79 794.71 621.54 792.29 623.17 C 789.84 624.77 788.70 627.66 786.35 629.37 C 783.64 626.18 781.20 622.44 777.27 620.62 C 773.77 618.97 769.82 619.02 766.07 618.51 C 763.65 617.52 761.55 615.93 759.20 614.80 C 759.35 613.13 760.55 611.17 759.33 609.68 C 756.66 606.00 752.77 603.51 749.18 600.85 C 742.12 596.05 734.76 591.63 726.94 588.18 C 722.15 586.06 717.27 583.85 712.03 583.24 C 708.66 582.82 705.57 584.72 703.56 587.29 C 699.90 583.30 695.46 580.13 691.29 576.71 C 688.69 574.90 685.72 572.04 682.30 573.39 C 678.02 575.31 675.11 579.17 671.55 582.07 C 668.84 577.65 664.30 574.88 660.67 571.31 C 652.31 563.35 642.14 557.33 635.08 548.03 C 629.18 540.26 622.29 533.22 617.08 524.95 C 619.32 521.51 621.48 518.02 623.73 514.59 C 625.67 511.41 627.99 507.58 625.92 503.87 C 623.00 497.28 618.44 491.54 613.84 486.05 C 613.86 479.90 614.36 473.36 611.37 467.74 C 608.27 460.53 601.86 455.26 594.68 452.41 C 587.47 449.42 579.88 446.75 571.98 446.85 C 556.33 446.97 540.68 446.79 525.03 446.83 C 522.15 446.87 519.27 446.90 516.42 446.51 C 517.24 440.70 516.57 434.82 516.73 428.99 C 516.53 417.19 516.92 405.38 516.61 393.58 C 527.41 393.10 538.23 393.50 549.04 393.29 C 560.04 393.05 571.27 394.15 581.98 391.04 C 598.83 386.55 612.76 374.30 621.39 359.39 C 630.71 343.75 634.01 325.61 637.19 307.94 L 637.49 307.61 C 648.73 307.25 659.45 302.18 667.77 294.77 C 676.66 286.89 682.31 275.04 681.57 263.05 C 681.49 253.44 677.53 243.91 670.31 237.48 C 672.93 231.76 674.41 225.61 676.63 219.74 C 684.58 196.91 692.38 174.03 700.28 151.19 C 701.19 148.36 702.92 145.53 702.15 142.45 C 699.65 143.32 699.48 146.29 698.48 148.35 C 688.24 177.61 678.27 206.96 668.10 236.25 C 660.87 231.47 652.10 230.39 643.78 228.84 C 645.58 214.94 646.53 200.78 644.33 186.86 C 641.56 167.17 632.89 148.21 619.25 133.68 C 615.15 129.53 610.97 125.03 605.31 123.08 C 603.59 140.14 603.45 157.33 601.51 174.37 C 602.43 174.26 603.35 174.16 604.28 174.07 C 604.30 158.35 606.73 142.66 606.54 126.91 C 608.85 127.48 610.53 129.23 612.26 130.75 C 621.98 139.78 629.78 150.92 634.72 163.25 C 643.31 183.67 644.38 206.66 640.44 228.27 C 637.72 227.37 633.71 227.79 632.39 224.65 C 630.19 219.75 627.52 214.98 623.82 211.04 C 618.25 205.23 610.08 202.19 602.09 202.38 C 602.63 192.98 603.51 183.59 603.81 174.18 C 603.24 174.47 602.10 175.03 601.53 175.32 C 601.67 184.40 599.87 193.40 600.18 202.48 C 595.64 203.49 591.14 205.44 587.84 208.80 C 581.91 214.71 579.88 223.14 578.16 231.04 C 575.56 243.70 572.68 256.30 570.01 268.94 C 567.69 278.75 566.93 289.04 568.85 298.99 C 570.26 307.28 574.26 315.11 580.29 321.00 C 576.00 343.99 573.00 367.20 568.74 390.20 C 556.57 385.72 546.09 377.23 538.03 367.14 C 524.49 348.98 518.55 326.34 516.73 304.06 C 521.23 292.47 524.01 280.28 525.50 267.95 C 528.10 248.14 530.68 227.65 525.32 208.05 C 529.38 184.67 538.79 161.00 556.85 144.87 C 568.56 134.19 584.14 127.76 600.04 127.78 C 598.49 126.00 596.13 125.94 593.94 126.03 C 571.93 127.57 552.41 141.67 540.78 159.94 C 532.28 172.95 527.12 187.81 523.70 202.89 C 523.52 202.34 523.16 201.25 522.97 200.70 C 521.17 195.37 518.31 190.45 514.79 186.07 C 507.64 177.21 496.37 171.73 484.93 172.08 C 436.95 172.62 388.95 172.50 340.97 173.24 C 344.91 162.90 350.79 153.36 357.95 144.94 C 358.92 143.70 360.69 144.25 362.04 144.06 C 381.70 144.15 401.34 144.74 420.99 144.88 C 442.31 145.64 463.66 145.45 484.95 146.87 C 496.62 147.71 508.42 147.67 520.00 145.88 C 534.52 143.61 548.04 137.48 561.09 130.99 C 572.34 125.99 584.52 122.58 596.93 122.90 C 599.10 122.34 601.32 121.97 603.58 121.88 C 601.01 120.31 598.65 118.40 595.90 117.16 C 589.57 114.63 582.72 113.92 576.23 111.93 C 575.54 110.11 574.77 108.14 572.95 107.16 C 567.63 103.94 561.46 102.40 555.39 101.32 C 546.15 99.96 536.64 99.45 527.45 101.33 M 704.40 121.51 C 700.22 122.27 696.68 125.71 696.00 129.93 C 694.59 135.61 698.84 141.48 704.48 142.44 C 710.83 144.43 718.33 139.79 718.97 133.07 C 720.02 125.42 711.40 119.55 704.40 121.51 M 725.43 534.54 C 724.34 540.64 724.49 546.93 723.15 553.00 C 722.34 558.09 720.25 562.88 719.56 567.99 L 720.69 567.25 C 723.38 562.55 724.76 557.20 725.74 551.92 C 726.65 545.96 727.80 539.87 726.70 533.85 C 726.38 534.02 725.75 534.37 725.43 534.54 M 751.00 547.84 C 748.62 553.54 747.09 559.58 744.25 565.08 C 742.43 569.41 739.38 573.17 738.22 577.77 C 740.87 576.58 742.06 573.74 743.53 571.43 C 747.67 563.96 750.95 555.97 753.20 547.72 C 752.65 547.75 751.55 547.81 751.00 547.84 Z" />
</g>
<g id="Group-000000" fill="#000000">
<path fill="#000000" opacity="1.00" d=" M 527.45 101.33 C 536.64 99.45 546.15 99.96 555.39 101.32 C 561.46 102.40 567.63 103.94 572.95 107.16 C 574.77 108.14 575.54 110.11 576.23 111.93 C 582.72 113.92 589.57 114.63 595.90 117.16 C 598.65 118.40 601.01 120.31 603.58 121.88 C 601.32 121.97 599.10 122.34 596.93 122.90 C 584.52 122.58 572.34 125.99 561.09 130.99 C 548.04 137.48 534.52 143.61 520.00 145.88 C 508.42 147.67 496.62 147.71 484.95 146.87 C 463.66 145.45 442.31 145.64 420.99 144.88 C 401.34 144.74 381.70 144.15 362.04 144.06 C 360.69 144.25 358.92 143.70 357.95 144.94 C 350.79 153.36 344.91 162.90 340.97 173.24 C 388.95 172.50 436.95 172.62 484.93 172.08 C 496.37 171.73 507.64 177.21 514.79 186.07 C 518.31 190.45 521.17 195.37 522.97 200.70 C 522.39 201.85 521.82 203.00 521.25 204.16 C 518.44 194.95 513.13 186.30 505.11 180.77 C 498.96 176.51 491.43 174.56 484.00 174.58 C 441.01 175.03 398.02 175.56 355.02 175.78 C 347.23 175.81 339.32 175.72 331.68 177.45 C 318.34 181.30 306.92 191.90 302.60 205.16 C 305.07 197.69 312.01 192.85 318.90 189.80 C 330.04 184.95 342.45 185.28 354.29 186.28 C 359.26 186.30 364.61 185.30 369.31 187.09 C 370.25 186.03 371.75 186.35 373.00 186.28 C 376.81 186.32 380.61 186.59 384.42 186.71 C 384.80 187.43 385.17 188.16 385.56 188.89 C 385.50 188.35 385.38 187.26 385.33 186.71 C 411.84 186.81 438.34 187.90 464.83 189.06 C 471.20 189.57 477.57 190.26 483.96 190.62 C 484.57 193.28 486.33 191.99 487.75 190.98 C 490.92 192.26 494.26 193.69 496.39 196.51 C 500.79 202.11 503.50 208.90 504.87 215.86 C 506.73 226.13 509.15 236.44 508.54 246.95 C 507.78 262.35 504.44 277.59 499.25 292.09 C 495.21 303.47 487.98 314.24 477.38 320.41 C 464.69 327.08 449.88 326.99 435.97 325.68 C 405.98 325.53 375.98 325.18 346.00 324.44 C 334.49 323.67 321.96 323.74 312.09 316.89 C 306.73 313.66 303.44 308.21 300.25 303.02 C 304.27 312.71 310.95 321.62 320.15 326.92 C 328.16 331.80 337.76 333.07 346.99 332.81 C 346.74 333.42 346.24 334.64 346.00 335.25 C 345.16 335.25 343.47 335.23 342.63 335.23 C 343.50 337.05 343.34 340.52 346.13 340.24 C 369.01 340.23 391.88 341.00 414.76 341.42 C 440.37 342.31 466.02 342.34 491.59 344.23 C 504.81 345.90 518.93 349.45 528.40 359.47 C 535.86 367.81 540.80 379.51 538.45 390.77 C 546.68 390.52 554.92 390.84 563.17 390.75 C 560.19 388.70 556.87 387.21 553.88 385.19 C 546.83 380.34 540.62 374.30 535.60 367.37 C 536.21 367.31 537.42 367.20 538.03 367.14 C 546.09 377.23 556.57 385.72 568.74 390.20 C 573.00 367.20 576.00 343.99 580.29 321.00 C 574.26 315.11 570.26 307.28 568.85 298.99 C 566.93 289.04 567.69 278.75 570.01 268.94 C 572.68 256.30 575.56 243.70 578.16 231.04 C 579.88 223.14 581.91 214.71 587.84 208.80 C 591.14 205.44 595.64 203.49 600.18 202.48 C 599.87 193.40 601.67 184.40 601.53 175.32 C 602.10 175.03 603.24 174.47 603.81 174.18 C 603.51 183.59 602.63 192.98 602.09 202.38 C 610.08 202.19 618.25 205.23 623.82 211.04 C 627.52 214.98 630.19 219.75 632.39 224.65 C 633.71 227.79 637.72 227.37 640.44 228.27 C 644.38 206.66 643.31 183.67 634.72 163.25 C 629.78 150.92 621.98 139.78 612.26 130.75 C 610.53 129.23 608.85 127.48 606.54 126.91 C 606.73 142.66 604.30 158.35 604.28 174.07 C 603.35 174.16 602.43 174.26 601.51 174.37 C 603.45 157.33 603.59 140.14 605.31 123.08 C 610.97 125.03 615.15 129.53 619.25 133.68 C 632.89 148.21 641.56 167.17 644.33 186.86 C 646.53 200.78 645.58 214.94 643.78 228.84 C 652.10 230.39 660.87 231.47 668.10 236.25 C 678.27 206.96 688.24 177.61 698.48 148.35 C 699.48 146.29 699.65 143.32 702.15 142.45 C 702.92 145.53 701.19 148.36 700.28 151.19 C 692.38 174.03 684.58 196.91 676.63 219.74 C 674.41 225.61 672.93 231.76 670.31 237.48 C 677.53 243.91 681.49 253.44 681.57 263.05 C 682.31 275.04 676.66 286.89 667.77 294.77 C 659.45 302.18 648.73 307.25 637.49 307.61 L 637.19 307.94 C 634.01 325.61 630.71 343.75 621.39 359.39 C 612.76 374.30 598.83 386.55 581.98 391.04 C 571.27 394.15 560.04 393.05 549.04 393.29 C 538.23 393.50 527.41 393.10 516.61 393.58 C 516.92 405.38 516.53 417.19 516.73 428.99 C 516.57 434.82 517.24 440.70 516.42 446.51 C 519.27 446.90 522.15 446.87 525.03 446.83 C 540.68 446.79 556.33 446.97 571.98 446.85 C 579.88 446.75 587.47 449.42 594.68 452.41 C 601.86 455.26 608.27 460.53 611.37 467.74 C 614.36 473.36 613.86 479.90 613.84 486.05 C 618.44 491.54 623.00 497.28 625.92 503.87 C 627.99 507.58 625.67 511.41 623.73 514.59 C 621.48 518.02 619.32 521.51 617.08 524.95 C 622.29 533.22 629.18 540.26 635.08 548.03 C 642.14 557.33 652.31 563.35 660.67 571.31 C 664.30 574.88 668.84 577.65 671.55 582.07 C 675.11 579.17 678.02 575.31 682.30 573.39 C 685.72 572.04 688.69 574.90 691.29 576.71 C 695.46 580.13 699.90 583.30 703.56 587.29 C 705.57 584.72 708.66 582.82 712.03 583.24 C 717.27 583.85 722.15 586.06 726.94 588.18 C 734.76 591.63 742.12 596.05 749.18 600.85 C 752.77 603.51 756.66 606.00 759.33 609.68 C 760.55 611.17 759.35 613.13 759.20 614.80 C 758.65 614.52 757.54 613.95 756.98 613.66 C 757.07 613.01 757.25 611.70 757.34 611.05 C 755.17 608.05 751.96 606.08 749.03 603.92 C 738.00 596.26 726.07 589.51 713.03 585.99 C 710.07 584.74 707.73 587.00 705.88 588.96 C 708.72 594.20 714.96 596.13 718.19 601.03 C 718.58 602.81 716.94 605.10 715.02 604.90 C 709.20 602.96 704.35 599.09 699.31 595.76 C 698.05 594.75 696.52 596.69 695.28 596.69 C 697.63 599.81 701.15 601.64 704.17 604.00 C 705.14 604.34 704.66 606.22 703.60 605.95 C 700.14 603.82 697.08 601.03 694.68 597.76 C 688.50 603.17 681.70 608.12 676.98 614.97 C 673.26 620.17 675.13 628.17 680.47 631.55 C 686.76 635.82 693.81 638.80 700.35 642.66 C 709.68 647.47 718.63 653.13 728.49 656.81 C 728.55 657.20 728.69 657.98 728.75 658.36 L 728.86 659.00 C 725.64 659.04 722.79 657.38 719.96 656.08 C 708.39 650.01 696.95 643.73 685.44 637.56 C 681.08 635.17 676.16 632.78 674.03 627.97 C 672.35 625.03 672.08 621.62 672.79 618.36 C 668.21 615.72 664.75 611.64 660.66 608.38 C 658.81 606.72 656.22 604.82 656.78 601.99 C 657.41 598.45 659.29 595.25 661.56 592.52 C 652.82 585.65 644.74 577.92 635.91 571.13 C 626.42 564.30 620.16 554.22 613.26 545.02 C 612.88 548.99 613.28 553.10 611.96 556.94 C 610.02 563.05 604.58 567.61 598.55 569.41 C 594.38 570.21 590.09 569.88 585.86 569.75 C 585.74 573.81 587.66 579.04 584.27 582.21 C 590.47 583.33 597.41 581.31 602.96 585.01 C 607.53 587.65 610.05 592.92 610.07 598.11 C 610.41 624.74 611.28 651.37 611.60 678.01 C 612.13 687.34 605.02 695.73 596.51 698.68 C 590.14 700.46 583.35 699.87 576.84 699.42 C 577.41 704.90 577.83 710.50 576.98 715.97 C 575.01 721.74 568.28 724.07 562.68 722.85 C 563.03 729.59 562.64 736.34 563.07 743.08 C 561.46 748.24 554.90 746.94 551.06 748.86 C 550.75 752.34 551.11 755.83 551.11 759.32 C 550.57 759.37 549.49 759.46 548.95 759.51 C 549.49 759.53 550.55 759.57 551.09 759.59 C 550.98 766.76 551.68 773.91 551.63 781.08 C 550.20 781.31 550.01 781.78 551.61 781.87 C 552.96 805.43 552.55 829.08 553.81 852.66 C 557.97 852.69 564.07 850.91 566.29 855.71 C 567.57 859.98 566.92 864.60 567.38 869.02 C 567.96 873.71 566.62 878.97 569.64 883.05 C 569.69 885.32 569.61 887.60 569.63 889.88 C 569.11 891.87 568.16 893.72 567.01 895.43 C 566.84 890.94 567.66 886.27 566.00 881.97 C 563.81 881.67 561.39 881.06 559.41 882.39 C 557.72 884.87 557.78 888.01 557.38 890.88 C 556.69 896.44 556.77 902.14 555.57 907.63 C 554.37 911.26 548.27 911.79 547.25 907.83 C 546.62 901.38 546.91 894.88 546.33 888.44 C 545.97 885.52 542.69 884.06 540.06 884.08 C 535.39 883.96 530.56 883.59 526.09 885.18 C 525.34 887.04 524.54 888.95 524.64 891.02 C 524.68 896.41 524.63 901.83 525.26 907.21 C 524.36 907.05 523.49 906.81 522.67 906.48 C 521.98 901.03 522.38 895.46 522.15 889.97 C 521.91 887.25 523.11 884.77 524.77 882.71 C 524.27 875.49 523.95 868.25 523.54 861.02 C 523.33 858.25 524.72 855.25 527.49 854.33 C 530.77 853.39 534.25 853.75 537.63 853.59 C 537.28 835.57 536.85 817.54 536.11 799.53 C 537.30 799.39 538.50 799.31 539.70 799.13 C 538.41 798.54 537.06 798.15 535.73 797.70 C 536.29 781.49 534.59 765.29 534.69 749.07 C 530.51 748.28 526.22 748.11 522.10 747.05 C 519.87 746.57 519.15 744.08 519.22 742.10 C 519.13 735.53 517.88 729.06 517.92 722.50 C 507.67 722.00 497.42 721.67 487.16 721.81 C 487.60 727.51 487.45 733.23 487.60 738.95 C 486.36 739.97 484.75 740.83 484.55 742.63 C 485.60 742.05 486.62 741.38 487.83 741.16 C 487.42 747.88 479.63 747.17 474.86 748.30 C 474.57 753.84 474.81 759.39 474.80 764.94 C 474.84 767.53 474.47 770.21 475.44 772.70 C 474.69 773.83 473.60 774.66 472.51 775.46 C 473.35 775.69 474.19 775.93 475.03 776.22 C 473.59 777.17 472.88 778.03 475.08 777.79 C 475.40 802.63 474.78 827.46 475.23 852.28 C 478.13 852.10 481.04 851.91 483.94 852.20 C 486.58 852.69 488.15 855.39 488.09 857.95 C 488.52 866.61 488.22 875.31 489.06 883.96 C 488.59 883.73 487.63 883.29 487.15 883.07 C 486.83 884.13 486.53 885.21 486.25 886.31 C 485.86 884.62 486.36 882.41 484.68 881.32 C 482.54 880.69 480.11 880.83 478.24 882.13 C 476.44 890.00 476.19 898.10 475.15 906.09 C 474.79 909.19 471.10 911.26 468.30 909.78 C 466.55 908.89 466.13 906.76 466.28 904.99 C 466.44 899.63 466.06 894.28 466.03 888.93 C 466.36 886.02 463.55 884.08 460.98 883.76 C 456.03 882.95 450.93 883.21 446.00 883.98 C 444.51 885.63 443.22 887.65 443.37 889.98 C 443.57 907.84 443.78 925.70 443.90 943.57 C 443.45 943.61 442.56 943.70 442.11 943.74 C 440.90 940.96 441.39 937.88 441.28 934.95 C 441.06 920.30 441.26 905.64 440.77 891.00 C 440.78 888.49 440.72 885.60 442.63 883.71 C 443.40 882.58 445.19 881.80 444.79 880.19 C 444.31 873.79 444.45 867.37 444.06 860.98 C 443.76 857.67 445.69 854.05 449.04 853.20 C 452.29 852.54 455.63 852.89 458.93 852.87 C 459.30 836.55 459.07 820.20 459.00 803.88 C 459.58 801.99 460.50 805.49 461.79 804.81 C 461.20 803.73 460.68 802.63 460.20 801.53 C 459.84 801.42 459.12 801.22 458.76 801.11 C 459.11 783.48 458.59 765.83 458.16 748.21 C 453.77 747.93 449.29 747.51 445.13 745.99 C 442.79 745.07 442.83 742.10 442.83 740.01 C 443.01 733.37 442.09 726.79 442.11 720.16 C 437.71 719.76 432.39 720.43 429.01 716.95 C 424.96 712.21 426.76 705.49 426.55 699.81 C 419.39 699.51 412.01 700.58 405.04 698.44 C 397.14 696.23 390.54 689.83 388.20 681.95 C 386.59 677.47 386.73 672.67 386.66 667.98 C 386.62 650.67 386.33 633.37 386.21 616.06 C 386.12 607.78 385.42 598.93 389.35 591.34 C 393.22 583.39 401.58 578.23 410.23 577.21 C 409.77 573.62 409.41 569.94 410.38 566.40 C 400.38 568.84 390.32 560.57 388.49 550.92 C 385.59 556.72 382.96 562.72 379.10 567.98 C 371.03 578.71 363.06 589.55 356.14 601.07 C 358.91 603.75 362.98 605.80 363.75 609.95 C 363.64 612.52 362.11 614.75 360.83 616.90 C 357.72 621.57 355.19 626.65 351.66 631.04 C 352.49 634.00 354.22 636.83 353.85 640.02 C 353.78 645.44 350.14 649.84 346.83 653.79 C 337.25 665.53 327.86 677.44 318.05 689.00 C 315.89 691.46 313.60 694.42 309.97 694.33 C 311.11 698.82 312.79 703.15 314.36 707.51 C 315.70 710.67 311.96 713.71 308.94 712.93 C 302.12 711.70 298.03 705.17 296.37 698.93 C 294.43 702.15 293.39 705.94 290.68 708.66 C 288.51 711.10 285.59 712.85 283.71 715.55 C 282.79 719.83 283.94 724.43 282.65 728.70 C 281.84 731.26 278.68 733.13 276.18 731.63 C 273.88 729.51 273.87 726.14 272.38 723.55 C 271.84 727.50 272.56 731.61 271.44 735.49 C 270.40 739.02 264.96 740.65 262.69 737.41 C 261.93 736.33 262.28 733.37 260.06 734.82 C 257.16 735.94 255.50 732.80 254.45 730.69 C 251.72 724.64 248.71 717.95 250.46 711.18 C 251.63 707.79 249.77 704.45 249.93 701.04 C 249.98 698.02 251.05 695.16 252.34 692.48 C 254.62 688.27 254.33 683.18 256.78 679.04 C 258.66 675.29 262.71 673.56 265.45 670.61 C 267.34 667.85 268.52 664.70 270.24 661.84 C 269.28 659.86 267.76 657.77 268.52 655.45 C 269.62 651.32 271.79 647.59 273.99 643.96 C 281.52 631.83 290.36 620.52 300.11 610.11 C 303.23 606.91 306.50 603.41 310.92 602.14 C 313.69 601.49 315.93 603.52 317.62 605.42 C 319.96 600.17 323.76 595.79 326.89 591.03 C 328.24 589.07 329.63 586.90 331.94 585.97 C 336.38 585.24 339.99 588.50 343.15 591.12 C 349.92 580.43 356.79 569.75 364.89 560.00 C 369.73 553.37 372.71 545.62 376.51 538.39 C 379.26 533.37 380.79 527.79 383.53 522.77 C 377.15 517.92 375.00 509.18 375.73 501.50 C 376.99 492.03 380.50 482.34 387.84 475.90 C 388.35 471.49 387.75 466.89 389.59 462.70 C 392.95 452.50 403.66 445.54 414.33 446.48 C 442.84 446.53 471.36 446.52 499.87 446.74 C 500.34 428.97 499.64 411.17 499.69 393.39 C 483.59 393.57 467.48 393.71 451.39 393.61 C 451.60 392.64 451.82 391.67 452.05 390.71 C 480.07 390.96 508.10 390.75 536.12 390.76 C 537.85 378.59 532.80 365.67 523.09 358.09 C 511.80 349.19 496.90 347.21 482.99 346.32 C 437.27 344.36 391.51 343.49 345.76 342.83 C 355.85 367.80 379.06 387.56 406.02 391.30 C 416.08 392.51 426.26 391.23 436.34 392.15 C 436.34 392.74 436.35 393.92 436.36 394.51 C 426.92 394.41 417.46 394.87 408.03 394.39 C 387.58 392.41 368.43 381.31 355.76 365.25 C 348.49 356.43 343.22 346.09 339.61 335.28 C 325.81 335.01 312.61 327.61 304.60 316.47 C 296.62 305.79 293.37 292.28 293.02 279.14 C 292.69 263.52 292.86 247.88 293.80 232.30 C 294.57 231.56 295.38 230.91 296.56 231.27 C 295.74 230.95 294.92 230.61 294.11 230.27 C 295.56 216.47 298.49 202.21 307.12 190.96 C 314.40 181.49 325.66 174.54 337.68 173.69 C 344.67 154.13 358.14 137.05 375.18 125.24 C 391.31 113.90 410.32 106.75 429.89 104.38 C 447.50 102.09 465.26 103.94 482.94 104.08 C 494.68 104.43 506.48 104.34 518.16 105.68 C 521.03 103.81 524.02 101.98 527.45 101.33 M 522.75 105.78 C 531.49 106.53 540.29 106.63 549.00 107.82 C 557.18 108.58 565.22 110.31 573.35 111.46 C 573.06 111.03 572.50 110.17 572.22 109.74 C 566.49 106.41 559.99 104.58 553.45 103.72 C 543.28 102.25 532.44 101.77 522.75 105.78 M 400.04 115.15 C 385.35 121.00 371.98 130.06 360.99 141.38 C 400.14 142.16 439.32 142.30 478.45 143.89 C 489.95 144.51 501.49 145.24 512.98 144.11 C 524.47 143.23 535.59 139.73 546.08 135.10 C 554.11 131.80 561.64 127.36 569.89 124.58 C 577.86 121.94 586.21 120.28 594.63 120.31 C 594.86 120.13 595.34 119.79 595.58 119.62 C 579.00 115.20 562.08 112.16 545.04 110.23 C 528.38 109.01 511.71 107.82 495.00 107.44 C 478.32 107.15 461.65 106.18 444.96 106.29 C 429.64 106.68 414.27 109.36 400.04 115.15 M 596.10 120.76 C 597.37 121.58 598.21 121.39 598.62 120.19 C 597.32 119.34 596.49 119.53 596.10 120.76 M 324.12 193.39 C 322.61 196.44 327.44 193.41 324.12 193.39 M 334.37 204.42 C 327.48 208.11 321.30 213.21 316.49 219.39 C 315.33 221.02 313.94 222.75 314.08 224.89 C 315.67 226.37 317.71 225.08 318.58 223.50 C 322.56 217.59 328.16 212.94 334.21 209.25 C 335.73 208.26 337.47 207.47 338.59 205.98 C 338.38 203.77 335.97 203.29 334.37 204.42 M 583.91 219.96 C 580.30 230.02 578.85 240.68 576.39 251.05 C 573.55 265.82 568.30 280.74 570.97 295.95 C 572.20 306.78 577.56 318.11 587.86 322.91 C 583.19 319.53 579.55 314.78 577.55 309.38 C 573.08 298.57 572.97 286.42 575.19 275.08 C 577.74 261.65 581.08 248.40 584.03 235.06 C 585.91 227.02 587.83 218.66 592.85 211.90 C 594.33 209.76 596.72 208.43 598.09 206.21 C 591.29 207.91 586.15 213.46 583.91 219.96 M 628.56 225.16 C 628.75 226.50 629.45 226.75 630.66 225.92 C 630.47 224.56 629.77 224.30 628.56 225.16 M 297.37 226.38 C 296.43 227.11 295.44 228.63 296.09 229.81 C 297.67 230.28 298.94 226.78 297.37 226.38 M 618.50 227.66 C 614.79 229.36 611.97 232.54 609.99 236.04 C 605.88 242.95 603.94 250.83 601.72 258.49 C 599.49 266.88 597.18 275.29 596.28 283.95 C 596.05 288.37 597.03 293.50 600.76 296.32 C 604.80 298.73 609.60 299.14 614.12 300.08 C 613.74 301.30 613.37 302.53 613.01 303.76 C 614.90 304.35 616.87 304.68 618.86 304.60 C 621.97 304.60 620.31 307.16 619.63 308.65 C 616.86 314.41 612.82 319.89 607.03 322.89 C 599.48 326.91 589.82 327.27 582.33 322.92 C 581.46 330.68 579.92 338.34 578.80 346.06 C 576.32 360.87 574.36 375.77 571.45 390.50 C 581.60 389.39 591.53 385.82 599.78 379.76 C 614.06 369.57 623.30 353.67 628.22 337.08 C 631.27 327.33 632.50 317.13 635.01 307.25 C 630.94 306.70 626.98 305.65 622.95 304.93 C 623.32 304.31 624.05 303.08 624.42 302.46 C 625.05 302.61 626.29 302.91 626.92 303.07 C 623.64 299.71 620.94 295.60 619.90 290.98 C 618.67 284.93 620.32 278.80 621.99 273.00 C 624.60 264.37 626.31 255.48 629.49 247.02 C 632.40 239.65 638.95 233.35 647.05 232.40 C 639.84 230.24 632.36 229.20 624.95 227.98 C 622.83 227.71 620.55 226.62 618.50 227.66 M 310.86 233.03 C 311.00 234.56 313.24 236.17 314.41 234.67 C 316.11 232.95 314.54 230.77 313.06 229.63 C 312.19 230.62 310.25 231.38 310.86 233.03 M 632.46 246.58 C 628.75 255.38 626.99 264.83 624.33 273.96 C 622.74 279.80 620.61 286.08 622.74 292.09 C 624.83 299.54 632.05 305.57 640.01 304.91 C 652.21 303.43 663.57 296.72 671.19 287.12 C 677.89 278.80 680.31 267.41 678.24 256.98 C 677.14 250.83 674.54 244.54 669.46 240.63 C 668.27 243.76 667.05 246.87 665.97 250.04 C 668.98 255.89 669.69 262.56 669.81 269.05 C 669.82 273.38 669.33 278.02 666.60 281.58 C 661.52 287.96 654.26 292.49 646.42 294.63 C 643.08 295.43 639.43 296.19 636.16 294.72 C 631.71 292.65 627.78 288.13 628.34 282.95 C 629.06 276.10 631.32 269.54 633.08 262.92 C 634.78 257.27 635.76 251.13 639.59 246.42 C 641.52 243.86 645.02 242.62 648.14 243.40 C 653.48 244.60 658.64 246.50 663.62 248.75 C 664.32 245.30 666.62 242.34 667.08 238.88 C 662.60 236.00 657.33 233.76 651.91 234.08 C 643.93 234.63 635.72 238.98 632.46 246.58 M 494.71 252.83 C 492.87 259.52 491.99 266.44 490.02 273.10 C 489.39 275.76 488.13 278.36 488.33 281.16 C 489.70 276.07 491.59 271.12 492.59 265.93 C 493.76 261.23 493.88 256.35 495.32 251.71 C 495.26 249.56 495.58 247.42 495.60 245.28 C 494.47 247.66 494.10 250.24 494.71 252.83 M 353.44 253.51 C 349.40 255.16 348.62 260.08 348.29 263.92 C 348.12 271.30 347.63 278.85 349.50 286.06 C 350.47 289.00 352.27 292.88 356.02 292.41 C 359.94 292.40 361.61 288.32 362.33 285.10 C 363.60 278.79 362.98 272.31 362.86 265.93 C 362.44 262.27 361.74 258.43 359.55 255.37 C 358.23 253.49 355.59 252.48 353.44 253.51 M 454.50 253.76 C 451.94 255.23 451.07 258.33 450.41 261.01 C 449.25 267.24 449.67 273.62 449.91 279.92 C 449.96 283.50 451.01 287.03 452.78 290.13 C 454.45 293.25 459.47 293.21 461.44 290.41 C 464.16 286.95 464.16 282.25 464.31 278.06 C 464.24 271.04 464.89 263.63 461.90 257.07 C 460.74 254.36 457.35 252.12 454.50 253.76 M 338.20 255.14 C 336.85 255.27 336.84 257.54 338.13 257.79 C 339.53 257.78 339.57 255.26 338.20 255.14 M 337.18 263.35 C 336.31 264.62 336.52 265.38 337.80 265.64 C 338.66 264.36 338.45 263.60 337.18 263.35 M 656.02 269.97 C 657.11 269.97 659.41 270.81 659.45 268.94 C 659.92 267.46 658.87 264.70 656.99 266.25 C 655.43 266.94 655.82 268.65 656.02 269.97 M 337.15 272.33 C 336.76 273.76 337.24 274.28 338.60 273.91 C 338.99 272.47 338.50 271.95 337.15 272.33 M 295.03 274.26 C 293.48 277.29 298.32 274.41 295.03 274.26 M 337.54 275.25 C 337.19 277.82 337.90 280.52 336.16 282.72 C 336.75 282.71 337.92 282.70 338.51 282.69 C 338.29 280.23 338.04 277.76 338.20 275.29 C 338.03 275.28 337.70 275.26 337.54 275.25 M 639.34 280.25 C 639.83 280.79 639.83 280.79 639.34 280.25 M 296.13 285.24 C 294.63 288.31 299.39 285.32 296.13 285.24 M 395.92 291.02 C 397.59 296.77 403.10 300.98 409.06 301.30 C 415.43 302.05 421.89 297.97 424.10 292.01 C 425.15 290.16 424.44 288.21 422.97 286.86 C 420.61 289.63 420.32 293.93 416.87 295.78 C 412.26 299.08 405.60 298.21 401.73 294.18 C 400.04 292.16 399.46 289.49 398.15 287.25 C 396.59 287.83 394.96 289.17 395.92 291.02 M 297.23 290.22 C 296.49 291.43 296.26 294.07 297.83 294.69 C 299.15 293.82 298.47 290.67 297.23 290.22 M 440.79 297.94 C 442.90 298.03 445.01 297.99 447.12 297.78 C 446.81 296.44 445.76 295.53 444.48 296.62 C 443.04 296.36 441.37 296.21 440.79 297.94 M 318.29 297.21 C 317.74 298.62 318.18 299.09 319.60 298.60 C 320.15 297.18 319.71 296.72 318.29 297.21 M 333.19 297.18 C 331.71 300.20 336.50 297.33 333.19 297.18 M 335.20 297.58 C 335.23 297.79 335.30 298.20 335.34 298.41 C 337.91 298.35 340.50 298.21 343.05 298.60 C 343.21 298.33 343.51 297.81 343.66 297.55 C 340.84 297.66 338.02 297.51 335.20 297.58 M 436.37 297.47 C 435.17 299.47 439.97 298.83 439.66 297.22 C 438.53 296.55 437.43 296.64 436.37 297.47 M 320.30 313.27 C 320.78 313.82 320.78 313.82 320.30 313.27 M 328.22 314.11 C 328.40 317.39 331.23 312.57 328.22 314.11 M 332.23 314.30 C 332.79 314.80 332.79 314.80 332.23 314.30 M 334.23 314.22 C 334.47 317.51 337.22 312.69 334.23 314.22 M 338.12 314.24 C 337.59 315.84 338.15 316.38 339.81 315.86 C 340.34 314.25 339.78 313.71 338.12 314.24 M 454.64 325.08 C 456.33 324.56 459.11 325.39 459.56 323.00 C 457.67 323.25 454.34 322.00 454.64 325.08 M 449.27 324.33 C 449.76 325.61 453.40 325.66 453.73 324.21 C 452.40 323.48 450.57 323.62 449.27 324.33 M 512.17 433.17 C 511.66 434.59 512.11 435.05 513.53 434.54 C 514.03 433.11 513.58 432.65 512.17 433.17 M 390.67 472.00 C 390.77 497.33 390.90 522.65 390.84 547.98 C 391.03 555.58 397.13 561.61 403.87 564.25 C 416.91 563.44 429.97 564.40 443.02 564.84 C 445.68 564.94 448.44 565.91 451.04 564.90 C 451.53 565.05 452.50 565.36 452.99 565.51 C 458.48 565.07 463.96 565.79 469.45 565.86 C 469.42 566.36 469.36 567.35 469.33 567.85 C 469.45 567.37 469.69 566.43 469.81 565.96 C 483.48 566.09 497.11 567.59 510.76 567.60 C 517.10 569.21 524.27 568.75 529.47 564.42 C 534.43 560.97 537.12 555.00 536.94 549.02 C 537.22 523.99 537.75 498.97 537.87 473.94 C 537.95 465.95 534.29 457.87 527.48 453.46 C 521.25 448.94 513.21 449.77 505.96 449.55 C 474.65 448.65 443.33 448.93 412.01 448.94 C 400.14 449.17 390.26 460.30 390.67 472.00 M 524.74 449.04 C 527.80 450.99 531.15 452.65 533.51 455.51 C 538.42 460.70 540.61 467.97 540.48 475.03 C 540.12 500.34 539.98 525.66 539.44 550.96 C 539.27 557.55 535.67 563.91 530.10 567.44 C 551.08 567.18 572.06 567.28 593.04 567.32 C 599.29 567.64 605.24 563.65 608.35 558.39 C 611.70 553.01 610.16 546.42 609.97 540.47 C 608.10 539.75 606.66 538.38 605.74 536.63 C 597.43 540.21 588.22 539.96 579.44 538.75 C 573.08 537.54 566.52 534.45 563.41 528.46 C 557.42 518.01 560.95 504.83 567.43 495.47 C 572.72 488.31 579.70 481.63 588.56 479.37 C 596.10 476.95 605.28 477.43 611.10 483.39 C 610.89 479.74 611.09 476.05 610.40 472.45 C 609.32 468.97 607.32 465.86 605.17 462.96 C 602.08 458.81 597.28 456.53 592.67 454.50 C 585.50 451.55 577.85 449.19 570.01 449.58 C 554.92 449.38 539.80 450.05 524.74 449.04 M 382.09 486.29 C 380.49 489.31 385.35 486.48 382.09 486.29 M 381.22 489.22 C 381.73 489.78 381.73 489.78 381.22 489.22 M 378.44 497.66 C 378.79 497.83 379.48 498.15 379.83 498.32 C 379.96 495.66 380.77 493.13 381.38 490.56 C 379.12 492.11 378.99 495.21 378.44 497.66 M 585.87 513.98 C 585.38 515.86 588.40 518.29 589.84 516.72 C 591.24 513.92 591.13 510.51 593.10 507.97 C 596.17 503.87 600.88 501.03 605.93 500.16 C 608.36 499.59 611.44 499.55 612.83 497.07 C 611.67 496.24 610.53 494.78 608.91 495.31 C 598.79 496.97 588.48 503.52 585.87 513.98 M 565.18 504.08 C 567.05 501.65 568.79 499.07 569.91 496.20 C 567.81 498.47 566.35 501.24 565.18 504.08 M 377.95 502.71 C 379.41 502.57 378.97 500.20 378.45 499.32 C 377.08 499.29 377.17 501.92 377.95 502.71 M 576.31 506.18 C 576.85 506.73 576.85 506.73 576.31 506.18 M 385.24 524.06 C 384.66 525.69 385.18 526.27 386.81 525.82 C 387.38 524.18 386.86 523.59 385.24 524.06 M 414.35 566.11 C 414.42 569.40 417.40 564.64 414.35 566.11 M 418.19 566.12 C 417.66 567.74 418.22 568.29 419.85 567.77 C 420.37 566.14 419.82 565.59 418.19 566.12 M 422.24 566.95 C 422.40 570.24 425.25 565.36 422.24 566.95 M 426.28 567.08 C 426.56 568.33 427.35 568.54 428.65 567.70 C 428.36 566.44 427.57 566.23 426.28 567.08 M 561.36 570.10 C 559.85 570.40 560.14 572.94 561.80 572.03 C 563.34 571.75 563.01 569.15 561.36 570.10 M 572.48 570.16 C 572.02 571.52 572.51 572.01 573.94 571.64 C 574.39 570.26 573.90 569.76 572.48 570.16 M 568.25 580.26 C 567.11 582.26 571.29 582.97 571.76 581.21 C 571.48 579.73 569.24 579.12 568.25 580.26 M 390.30 596.20 C 388.17 602.58 388.72 609.42 388.77 616.04 C 388.84 635.02 389.26 654.01 389.24 672.99 C 389.12 681.45 393.38 690.14 400.99 694.19 C 408.91 698.63 418.31 697.30 427.01 697.37 C 448.98 697.38 470.96 697.50 492.93 697.43 C 503.57 697.66 514.22 697.02 524.85 697.57 C 521.64 695.06 518.00 692.74 516.15 688.98 C 513.17 683.15 513.63 676.43 513.12 670.10 C 511.81 650.38 510.23 630.68 508.67 610.97 C 508.41 604.69 504.85 598.74 499.66 595.28 C 493.47 591.61 485.83 593.27 479.31 590.80 L 479.02 589.83 C 481.55 589.00 484.27 589.68 486.86 589.86 C 492.22 590.58 498.06 590.92 502.56 594.29 C 505.01 595.91 506.53 598.48 508.14 600.87 C 508.25 595.52 511.70 590.99 515.54 587.59 C 517.21 585.94 519.79 585.50 521.22 583.59 C 506.16 583.64 491.12 583.01 476.08 582.65 C 453.73 581.83 431.35 581.56 409.01 580.50 C 400.41 581.36 393.02 588.15 390.30 596.20 M 573.37 581.28 C 572.15 583.21 576.33 583.34 576.72 581.83 C 576.46 580.37 574.22 580.37 573.37 581.28 M 578.66 581.62 C 578.84 582.71 579.05 583.81 579.27 584.91 C 571.21 585.27 563.12 584.32 555.07 584.87 C 549.70 584.20 544.30 584.88 538.92 584.53 C 536.90 584.54 534.76 584.46 532.96 585.53 C 526.96 588.53 521.70 594.11 520.84 600.95 C 521.74 615.78 522.89 630.61 523.94 645.44 C 522.83 645.31 521.73 645.19 520.63 645.11 C 521.27 643.08 520.90 640.95 520.84 638.88 C 519.82 627.25 519.45 615.58 518.46 603.95 C 517.72 595.90 522.93 589.09 528.85 584.31 C 522.56 585.71 515.94 588.67 512.74 594.61 C 508.96 600.77 511.01 608.20 511.53 614.93 C 513.01 635.94 514.88 656.94 516.19 677.98 C 516.47 682.67 517.31 687.74 520.72 691.26 C 522.99 693.43 525.60 695.33 528.52 696.54 C 535.15 698.68 542.12 697.02 548.93 697.40 C 562.30 697.18 575.68 696.98 589.05 697.16 C 599.01 697.59 608.41 689.00 608.73 679.02 C 609.02 670.34 608.68 661.65 608.25 652.99 C 608.34 640.92 607.90 628.85 607.67 616.79 C 607.87 616.35 608.28 615.48 608.48 615.04 C 608.26 614.85 607.82 614.47 607.61 614.28 C 607.28 608.18 607.64 602.05 607.06 595.98 C 606.48 590.77 602.14 586.20 596.94 585.50 C 591.25 585.45 585.55 584.89 579.88 585.44 C 579.70 584.10 579.53 582.70 578.66 581.62 M 671.12 592.14 C 669.87 592.81 669.87 593.47 671.12 594.14 C 672.43 593.40 672.43 592.73 671.12 592.14 M 668.46 595.40 C 667.65 595.76 666.49 597.64 667.97 597.91 C 669.82 598.41 670.65 594.09 668.46 595.40 M 676.30 602.20 C 676.32 605.48 679.38 600.69 676.30 602.20 M 304.51 609.43 C 296.62 617.27 289.65 625.99 283.10 634.96 C 279.02 640.72 275.04 646.61 272.08 653.02 C 271.50 654.81 269.81 657.00 271.58 658.62 C 273.52 660.81 276.50 661.63 278.97 663.07 C 283.91 665.47 289.34 668.86 295.04 667.07 C 303.62 664.40 310.04 657.38 314.86 650.09 C 321.79 640.14 326.24 628.25 335.33 619.96 C 334.96 622.60 333.04 624.57 331.78 626.82 C 325.27 637.04 319.75 647.86 312.67 657.72 C 308.36 663.47 305.94 670.37 304.62 677.37 C 303.70 676.50 302.83 675.32 303.10 673.96 C 303.36 670.01 305.52 666.52 306.77 662.85 C 302.81 666.62 297.89 669.44 292.46 670.39 C 298.10 673.55 301.88 678.95 305.66 684.02 C 301.40 683.60 300.58 678.14 296.72 676.70 C 297.59 679.70 300.28 681.53 302.01 683.99 C 303.61 686.19 305.06 688.52 307.03 690.44 C 307.54 690.02 308.55 689.20 309.06 688.78 C 309.70 689.85 310.33 690.94 310.95 692.05 C 314.05 690.21 316.08 687.17 318.36 684.47 C 327.21 673.94 335.72 663.15 344.42 652.49 C 348.12 648.24 352.37 643.11 351.07 637.04 C 350.22 630.73 344.92 626.62 340.41 622.75 C 335.59 619.25 331.32 615.08 326.53 611.54 C 324.94 610.23 323.47 612.23 322.05 612.85 C 322.54 613.07 323.51 613.53 323.99 613.76 C 320.81 617.35 317.26 620.60 313.80 623.92 C 311.39 625.18 308.91 623.10 307.62 621.18 C 310.55 616.90 312.82 612.06 316.78 608.60 C 315.16 607.33 314.12 604.98 312.03 604.56 C 308.94 605.02 306.74 607.47 304.51 609.43 M 294.20 674.04 C 293.97 675.43 294.54 676.01 295.91 675.78 C 296.13 674.37 295.56 673.79 294.20 674.04 M 258.26 693.23 C 258.78 693.78 258.78 693.78 258.26 693.23 M 279.30 700.32 C 278.73 701.76 279.16 702.15 280.60 701.47 C 281.17 700.00 280.74 699.62 279.30 700.32 M 564.55 703.64 C 562.71 705.50 565.67 706.23 567.05 706.71 C 567.75 706.10 568.45 705.49 569.17 704.89 C 568.52 702.91 566.02 701.55 564.55 703.64 M 564.03 713.17 C 563.01 715.67 566.37 718.30 568.39 716.37 C 570.06 715.32 569.57 713.41 568.96 711.92 C 567.23 711.72 565.10 711.41 564.03 713.17 M 489.26 712.21 C 489.79 712.73 489.79 712.73 489.26 712.21 M 439.33 714.17 C 439.63 717.46 442.27 712.55 439.33 714.17 M 259.79 721.75 C 259.78 721.12 259.75 719.85 259.74 719.22 C 258.29 718.85 258.34 722.24 259.79 721.75 M 526.04 721.17 C 524.48 724.15 529.34 721.38 526.04 721.17 M 475.33 722.16 C 475.55 725.42 478.34 720.57 475.33 722.16 M 551.33 722.14 C 551.61 725.42 554.28 720.50 551.33 722.14 M 459.22 726.14 C 458.42 729.02 458.64 732.09 458.96 735.04 C 458.84 736.47 460.43 738.81 461.39 736.53 C 462.04 733.05 462.28 729.09 461.05 725.76 C 460.59 725.85 459.68 726.04 459.22 726.14 M 535.27 727.15 C 534.96 729.80 534.80 732.51 535.16 735.18 C 535.48 736.50 535.90 738.60 537.74 737.78 C 538.58 734.93 538.06 731.85 537.92 728.93 C 538.32 727.31 536.63 725.83 535.27 727.15 M 485.15 737.26 C 483.85 740.37 488.45 737.15 485.15 737.26 M 478.50 741.16 C 477.65 742.20 479.17 744.37 480.39 743.42 C 481.53 742.31 479.75 740.24 478.50 741.16 M 460.62 776.45 C 459.70 777.79 458.94 781.19 460.77 781.82 C 461.69 780.16 461.25 778.06 461.24 776.28 C 461.09 776.32 460.78 776.41 460.62 776.45 M 464.36 776.23 C 464.87 776.77 464.87 776.77 464.36 776.23 M 468.03 777.66 C 467.61 779.04 468.11 779.50 469.53 779.03 C 469.91 777.63 469.41 777.18 468.03 777.66 M 537.29 778.42 C 536.43 779.69 536.63 780.46 537.91 780.72 C 538.76 779.43 538.55 778.66 537.29 778.42 M 544.95 778.01 C 544.36 779.60 544.90 780.15 546.56 779.65 C 547.10 778.04 546.56 777.49 544.95 778.01 M 460.26 784.18 C 460.77 784.70 460.77 784.70 460.26 784.18 M 468.92 786.05 C 468.98 787.62 469.04 789.21 469.13 790.81 C 469.92 790.89 471.50 791.03 472.29 791.11 C 472.48 789.44 472.62 787.77 472.78 786.11 C 471.55 785.28 470.20 785.45 468.92 786.05 M 460.38 786.20 C 459.35 787.73 459.39 790.06 460.35 791.63 C 461.66 791.33 460.79 789.02 461.18 788.03 C 461.38 787.41 461.65 785.27 460.38 786.20 M 546.18 786.21 C 544.68 787.81 545.40 790.13 545.92 792.00 C 546.68 791.96 548.20 791.88 548.96 791.84 C 548.84 789.86 549.59 784.93 546.18 786.21 M 537.60 791.73 C 538.19 790.37 538.43 788.59 537.78 787.24 C 536.25 787.61 536.23 791.21 537.60 791.73 M 460.07 793.29 C 458.66 796.37 463.35 793.32 460.07 793.29 M 460.25 796.24 C 459.53 797.35 459.53 798.48 460.23 799.62 C 461.65 799.68 461.71 796.12 460.25 796.24 M 469.90 799.09 C 469.41 800.74 469.97 801.33 471.57 800.86 C 472.02 799.25 471.47 798.66 469.90 799.09 M 547.17 800.25 C 546.60 801.91 547.13 802.45 548.76 801.89 C 549.31 800.22 548.78 799.68 547.17 800.25 M 539.07 812.42 C 537.55 815.45 542.36 812.51 539.07 812.42 M 479.15 861.12 C 478.67 862.55 479.12 863.03 480.51 862.55 C 480.98 861.11 480.53 860.63 479.15 861.12 M 478.28 874.08 C 480.99 871.88 478.78 867.68 478.81 864.77 C 475.40 866.79 477.72 871.12 478.28 874.08 M 557.69 865.03 C 557.34 865.61 556.62 866.78 556.26 867.36 C 556.82 869.61 555.91 873.42 558.87 874.04 C 558.81 871.00 558.39 867.98 557.69 865.03 M 463.16 865.69 C 461.89 868.69 462.04 872.00 462.43 875.17 C 462.42 876.21 463.54 878.74 464.82 876.99 C 465.57 874.07 465.20 870.96 465.01 867.99 C 465.02 866.74 464.40 865.97 463.16 865.69 M 542.06 866.98 C 541.79 870.52 541.42 874.19 542.40 877.67 C 543.30 879.36 545.26 877.29 544.73 876.01 C 544.81 872.83 545.10 869.40 543.50 866.52 C 543.14 866.64 542.42 866.86 542.06 866.98 Z" />
</g>
<g id="Group-000000" fill="#000000">
<path fill="rgba(0,0,0,0)" opacity="1.00" d=" M 522.75 105.78 C 532.44 101.77 543.28 102.25 553.45 103.72 C 559.99 104.58 566.49 106.41 572.22 109.74 C 572.50 110.17 573.06 111.03 573.35 111.46 C 565.22 110.31 557.18 108.58 549.00 107.82 C 540.29 106.63 531.49 106.53 522.75 105.78 Z" />
<path fill="rgba(0,0,0,0)" opacity="1.00" d=" M 400.04 115.15 C 414.27 109.36 429.64 106.68 444.96 106.29 C 461.65 106.18 478.32 107.15 495.00 107.44 C 511.71 107.82 528.38 109.01 545.04 110.23 C 562.08 112.16 579.00 115.20 595.58 119.62 C 595.34 119.79 594.86 120.13 594.63 120.31 C 586.21 120.28 577.86 121.94 569.89 124.58 C 561.64 127.36 554.11 131.80 546.08 135.10 C 535.59 139.73 524.47 143.23 512.98 144.11 C 501.49 145.24 489.95 144.51 478.45 143.89 C 439.32 142.30 400.14 142.16 360.99 141.38 C 371.98 130.06 385.35 121.00 400.04 115.15 Z" />
<path fill="rgba(0,0,0,0)" opacity="1.00" d=" M 390.67 472.00 C 390.26 460.30 400.14 449.17 412.01 448.94 C 443.33 448.93 474.65 448.65 505.96 449.55 C 513.21 449.77 521.25 448.94 527.48 453.46 C 534.29 457.87 537.95 465.95 537.87 473.94 C 537.75 498.97 537.22 523.99 536.94 549.02 C 537.12 555.00 534.43 560.97 529.47 564.42 C 524.27 568.75 517.10 569.21 510.76 567.60 C 497.11 567.59 483.48 566.09 469.81 565.96 C 469.69 566.43 469.45 567.37 469.33 567.85 C 469.36 567.35 469.42 566.36 469.45 565.86 C 463.96 565.79 458.48 565.07 452.99 565.51 C 452.50 565.36 451.53 565.05 451.04 564.90 C 448.44 565.91 445.68 564.94 443.02 564.84 C 429.97 564.40 416.91 563.44 403.87 564.25 C 397.13 561.61 391.03 555.58 390.84 547.98 C 390.90 522.65 390.77 497.33 390.67 472.00 M 394.22 471.55 C 394.90 472.59 395.61 473.61 396.34 474.63 C 397.95 464.86 406.49 455.39 416.99 456.19 C 448.67 456.93 480.35 457.52 512.02 458.48 C 520.51 458.12 528.20 465.58 528.09 474.07 C 528.29 491.73 527.61 509.40 527.52 527.06 C 527.13 535.68 527.60 544.34 526.80 552.93 C 525.59 557.75 521.73 561.91 517.00 563.43 C 511.71 564.25 506.33 563.50 501.01 563.31 C 471.99 561.97 442.99 560.04 413.96 558.80 C 407.92 558.49 401.63 555.94 398.34 550.63 C 394.70 545.13 395.91 538.24 395.80 532.02 C 396.18 513.14 395.99 494.23 396.55 475.35 C 395.66 474.65 394.79 473.93 393.94 473.20 C 393.70 495.46 393.34 517.73 393.19 539.99 C 392.65 549.26 399.20 558.34 408.16 560.73 C 414.70 561.87 421.37 561.77 427.99 562.07 C 453.33 563.74 478.73 564.59 504.09 566.18 C 510.25 566.32 517.28 567.58 522.60 563.64 C 526.87 560.52 529.70 555.37 529.63 550.04 C 530.01 525.35 530.29 500.66 530.76 475.99 C 531.36 465.60 522.63 455.49 511.96 455.93 C 480.26 455.10 448.57 454.25 416.87 453.68 C 406.05 452.68 396.74 461.53 394.22 471.55 M 413.30 465.41 C 407.99 467.71 407.92 476.43 413.22 478.77 C 418.77 481.48 425.11 474.24 422.34 468.94 C 421.11 465.34 416.65 463.67 413.30 465.41 M 508.35 472.43 C 504.77 474.83 503.71 481.71 508.17 483.78 C 512.37 485.73 517.37 481.33 516.20 476.92 C 515.93 473.28 511.61 470.84 508.35 472.43 M 411.37 540.09 C 407.62 543.12 408.16 549.04 411.44 552.22 C 411.74 551.71 412.35 550.71 412.66 550.20 C 412.58 550.87 412.43 552.20 412.35 552.86 C 418.12 554.98 424.49 548.73 422.46 542.98 C 421.14 538.44 414.76 536.87 411.37 540.09 M 503.02 543.98 C 497.54 546.60 498.20 555.97 504.12 557.62 C 508.92 558.59 512.97 553.47 512.06 548.95 C 511.66 544.89 506.71 541.65 503.02 543.98 Z" />
<path fill="rgba(0,0,0,0)" opacity="1.00" d=" M 390.30 596.20 C 393.02 588.15 400.41 581.36 409.01 580.50 C 431.35 581.56 453.73 581.83 476.08 582.65 C 491.12 583.01 506.16 583.64 521.22 583.59 C 519.79 585.50 517.21 585.94 515.54 587.59 C 511.70 590.99 508.25 595.52 508.14 600.87 C 506.53 598.48 505.01 595.91 502.56 594.29 C 498.06 590.92 492.22 590.58 486.86 589.86 C 484.27 589.68 481.55 589.00 479.02 589.83 L 479.31 590.80 C 485.83 593.27 493.47 591.61 499.66 595.28 C 504.85 598.74 508.41 604.69 508.67 610.97 C 510.23 630.68 511.81 650.38 513.12 670.10 C 513.63 676.43 513.17 683.15 516.15 688.98 C 518.00 692.74 521.64 695.06 524.85 697.57 C 514.22 697.02 503.57 697.66 492.93 697.43 C 470.96 697.50 448.98 697.38 427.01 697.37 C 418.31 697.30 408.91 698.63 400.99 694.19 C 393.38 690.14 389.12 681.45 389.24 672.99 C 389.26 654.01 388.84 635.02 388.77 616.04 C 388.72 609.42 388.17 602.58 390.30 596.20 M 404.11 620.76 C 403.75 623.16 403.57 625.59 403.63 628.02 C 403.95 639.69 403.59 651.36 403.96 663.03 C 404.07 668.24 405.98 673.57 409.85 677.18 C 412.23 679.42 415.36 681.54 418.81 680.69 C 416.34 679.00 413.36 677.99 411.36 675.69 C 407.81 671.70 406.49 666.28 406.35 661.06 C 406.23 650.08 406.40 639.09 406.26 628.11 C 405.89 625.63 406.35 622.46 404.11 620.76 M 439.95 632.17 C 437.48 633.29 437.96 636.30 438.34 638.49 C 438.97 641.40 439.24 644.53 440.77 647.16 C 442.57 649.86 447.22 649.13 448.14 646.03 C 448.05 642.01 446.99 638.05 445.73 634.26 C 444.84 632.03 442.05 631.23 439.95 632.17 M 465.04 632.22 C 462.42 633.16 462.92 636.27 463.28 638.44 C 463.93 641.61 464.07 645.24 466.36 647.77 C 468.63 649.91 473.17 648.42 473.06 645.12 C 472.62 641.52 471.94 637.92 470.71 634.50 C 469.86 632.31 467.14 631.43 465.04 632.22 Z" />
<path fill="rgba(0,0,0,0)" opacity="1.00" d=" M 578.66 581.62 C 579.53 582.70 579.70 584.10 579.88 585.44 C 585.55 584.89 591.25 585.45 596.94 585.50 C 602.14 586.20 606.48 590.77 607.06 595.98 C 607.64 602.05 607.28 608.18 607.61 614.28 C 607.82 614.47 608.26 614.85 608.48 615.04 C 608.28 615.48 607.87 616.35 607.67 616.79 C 607.90 628.85 608.34 640.92 608.25 652.99 C 608.68 661.65 609.02 670.34 608.73 679.02 C 608.41 689.00 599.01 697.59 589.05 697.16 C 575.68 696.98 562.30 697.18 548.93 697.40 C 542.12 697.02 535.15 698.68 528.52 696.54 C 525.60 695.33 522.99 693.43 520.72 691.26 C 517.31 687.74 516.47 682.67 516.19 677.98 C 514.88 656.94 513.01 635.94 511.53 614.93 C 511.01 608.20 508.96 600.77 512.74 594.61 C 515.94 588.67 522.56 585.71 528.85 584.31 C 522.93 589.09 517.72 595.90 518.46 603.95 C 519.45 615.58 519.82 627.25 520.84 638.88 C 520.90 640.95 521.27 643.08 520.63 645.11 C 521.73 645.19 522.83 645.31 523.94 645.44 C 522.89 630.61 521.74 615.78 520.84 600.95 C 521.70 594.11 526.96 588.53 532.96 585.53 C 534.76 584.46 536.90 584.54 538.92 584.53 C 544.30 584.88 549.70 584.20 555.07 584.87 C 563.12 584.32 571.21 585.27 579.27 584.91 C 579.05 583.81 578.84 582.71 578.66 581.62 M 521.03 645.60 C 521.62 650.11 521.91 654.67 522.01 659.23 C 522.76 659.29 524.26 659.42 525.01 659.48 C 524.49 654.90 524.06 650.31 523.94 645.71 C 523.21 645.68 521.76 645.63 521.03 645.60 M 572.50 663.94 C 572.92 664.37 573.75 665.24 574.17 665.67 C 573.66 665.29 572.64 664.54 572.13 664.16 C 571.33 669.49 570.20 675.01 571.40 680.37 C 572.49 684.57 574.29 689.64 579.10 690.68 C 568.09 691.66 557.02 691.14 545.99 691.63 C 541.55 691.38 536.67 692.91 532.68 690.31 C 528.59 688.11 526.38 683.52 526.31 679.00 C 526.01 672.63 524.76 666.24 525.34 659.89 C 524.24 659.79 523.16 659.69 522.08 659.59 C 522.92 666.52 523.02 673.51 523.78 680.45 C 524.32 687.64 530.65 694.49 538.07 694.40 C 553.04 694.05 568.01 693.68 582.99 693.91 C 588.25 693.94 594.25 693.99 598.50 690.39 C 604.25 685.33 605.60 677.24 605.88 669.98 C 606.78 659.43 596.85 648.27 585.89 650.26 C 579.13 651.46 573.89 657.34 572.50 663.94 Z" />
<path fill="rgba(0,0,0,0)" opacity="1.00" d=" M 487.16 721.81 C 497.42 721.67 507.67 722.00 517.92 722.50 C 517.88 729.06 519.13 735.53 519.22 742.10 C 519.15 744.08 519.87 746.57 522.10 747.05 C 526.22 748.11 530.51 748.28 534.69 749.07 C 534.59 765.29 536.29 781.49 535.73 797.70 C 537.06 798.15 538.41 798.54 539.70 799.13 C 538.50 799.31 537.30 799.39 536.11 799.53 C 536.85 817.54 537.28 835.57 537.63 853.59 C 534.25 853.75 530.77 853.39 527.49 854.33 C 524.72 855.25 523.33 858.25 523.54 861.02 C 523.95 868.25 524.27 875.49 524.77 882.71 C 523.11 884.77 521.91 887.25 522.15 889.97 C 522.38 895.46 521.98 901.03 522.67 906.48 C 523.49 906.81 524.36 907.05 525.26 907.21 C 524.63 901.83 524.68 896.41 524.64 891.02 C 524.54 888.95 525.34 887.04 526.09 885.18 C 530.56 883.59 535.39 883.96 540.06 884.08 C 542.69 884.06 545.97 885.52 546.33 888.44 C 546.91 894.88 546.62 901.38 547.25 907.83 C 548.27 911.79 554.37 911.26 555.57 907.63 C 556.77 902.14 556.69 896.44 557.38 890.88 C 557.78 888.01 557.72 884.87 559.41 882.39 C 561.39 881.06 563.81 881.67 566.00 881.97 C 567.66 886.27 566.84 890.94 567.01 895.43 C 566.98 914.95 566.98 934.47 567.04 954.00 C 567.29 958.25 566.35 962.64 567.59 966.80 C 553.69 967.14 539.77 966.82 525.87 966.96 C 525.75 950.00 525.25 933.05 525.09 916.09 C 525.04 913.10 525.15 910.09 524.71 907.12 C 524.30 907.33 523.47 907.75 523.06 907.96 C 522.18 909.50 522.56 911.30 522.55 913.00 C 523.21 931.00 522.68 949.04 523.80 967.01 C 512.06 966.83 500.32 966.87 488.58 967.00 C 488.60 963.86 488.57 960.73 488.57 957.61 C 488.81 933.06 488.81 908.50 489.06 883.96 C 488.22 875.31 488.52 866.61 488.09 857.95 C 488.15 855.39 486.58 852.69 483.94 852.20 C 481.04 851.91 478.13 852.10 475.23 852.28 C 474.78 827.46 475.40 802.63 475.08 777.79 C 472.88 778.03 473.59 777.17 475.03 776.22 C 474.19 775.93 473.35 775.69 472.51 775.46 C 473.60 774.66 474.69 773.83 475.44 772.70 C 474.47 770.21 474.84 767.53 474.80 764.94 C 474.81 759.39 474.57 753.84 474.86 748.30 C 479.63 747.17 487.42 747.88 487.83 741.16 C 486.62 741.38 485.60 742.05 484.55 742.63 C 484.75 740.83 486.36 739.97 487.60 738.95 C 487.45 733.23 487.60 727.51 487.16 721.81 Z" />
<path fill="rgba(0,0,0,0)" opacity="1.00" d=" M 692.92 976.95 C 803.28 976.55 913.64 976.95 1024.00 976.47 L 1024.00 1024.00 L 0.00 1024.00 L 0.00 976.86 C 19.68 976.76 39.36 976.82 59.04 976.81 C 270.33 977.01 481.64 976.78 692.92 976.95 Z" />
</g>
<g id="Group-000000" fill="#000000">
<path fill="rgba(0,0,0,0)" opacity="1.00" d=" M 596.10 120.76 C 596.49 119.53 597.32 119.34 598.62 120.19 C 598.21 121.39 597.37 121.58 596.10 120.76 Z" />
</g>
<g id="Group-000000" fill="#000000">
<path fill="#000000" opacity="1.00" d=" M 704.40 121.51 C 711.40 119.55 720.02 125.42 718.97 133.07 C 718.33 139.79 710.83 144.43 704.48 142.44 C 698.84 141.48 694.59 135.61 696.00 129.93 C 696.68 125.71 700.22 122.27 704.40 121.51 M 704.35 124.39 C 701.11 125.40 698.04 128.34 698.42 131.99 C 698.41 135.30 700.66 138.21 703.72 139.34 C 708.99 141.97 716.38 138.07 716.40 131.97 C 716.56 126.04 709.46 122.49 704.35 124.39 Z" />
</g>
<g id="Group-000000" fill="#000000">
<path fill="rgba(0,0,0,0)" opacity="1.00" d=" M 704.35 124.39 C 709.46 122.49 716.56 126.04 716.40 131.97 C 716.38 138.07 708.99 141.97 703.72 139.34 C 700.66 138.21 698.41 135.30 698.42 131.99 C 698.04 128.34 701.11 125.40 704.35 124.39 Z" />
</g>
<g id="Group-000000" fill="#000000">
<path fill="#000000" opacity="1.00" d=" M 540.78 159.94 C 552.41 141.67 571.93 127.57 593.94 126.03 C 596.13 125.94 598.49 126.00 600.04 127.78 C 584.14 127.76 568.56 134.19 556.85 144.87 C 538.79 161.00 529.38 184.67 525.32 208.05 C 530.68 227.65 528.10 248.14 525.50 267.95 C 524.01 280.28 521.23 292.47 516.73 304.06 C 518.55 326.34 524.49 348.98 538.03 367.14 C 537.42 367.20 536.21 367.31 535.60 367.37 C 522.70 349.99 516.55 328.53 514.73 307.19 C 507.16 323.82 489.75 336.70 470.97 335.26 C 429.31 335.24 387.66 335.09 346.00 335.25 C 346.24 334.64 346.74 333.42 346.99 332.81 C 389.33 332.72 431.68 332.81 474.03 332.68 C 487.35 332.81 499.52 324.78 507.25 314.36 C 515.56 303.18 519.07 289.36 521.45 275.86 C 523.29 263.97 524.96 252.04 525.65 240.02 C 526.34 227.93 524.89 215.71 521.25 204.16 C 521.82 203.00 522.39 201.85 522.97 200.70 C 523.16 201.25 523.52 202.34 523.70 202.89 C 527.12 187.81 532.28 172.95 540.78 159.94 Z" />
</g>
<g id="Group-000000" fill="#000000">
<path fill="rgba(0,0,0,0)" opacity="1.00" d=" M 355.02 175.78 C 398.02 175.56 441.01 175.03 484.00 174.58 C 491.43 174.56 498.96 176.51 505.11 180.77 C 513.13 186.30 518.44 194.95 521.25 204.16 C 524.89 215.71 526.34 227.93 525.65 240.02 C 524.96 252.04 523.29 263.97 521.45 275.86 C 519.07 289.36 515.56 303.18 507.25 314.36 C 499.52 324.78 487.35 332.81 474.03 332.68 C 431.68 332.81 389.33 332.72 346.99 332.81 C 337.76 333.07 328.16 331.80 320.15 326.92 C 310.95 321.62 304.27 312.71 300.25 303.02 C 303.44 308.21 306.73 313.66 312.09 316.89 C 321.96 323.74 334.49 323.67 346.00 324.44 C 375.98 325.18 405.98 325.53 435.97 325.68 C 449.88 326.99 464.69 327.08 477.38 320.41 C 487.98 314.24 495.21 303.47 499.25 292.09 C 504.44 277.59 507.78 262.35 508.54 246.95 C 509.15 236.44 506.73 226.13 504.87 215.86 C 503.50 208.90 500.79 202.11 496.39 196.51 C 494.26 193.69 490.92 192.26 487.75 190.98 C 480.21 189.67 472.49 188.92 464.83 189.06 C 438.34 187.90 411.84 186.81 385.33 186.71 C 385.38 187.26 385.50 188.35 385.56 188.89 C 385.17 188.16 384.80 187.43 384.42 186.71 C 380.61 186.59 376.81 186.32 373.00 186.28 C 371.75 186.35 370.25 186.03 369.31 187.09 C 364.61 185.30 359.26 186.30 354.29 186.28 C 342.45 185.28 330.04 184.95 318.90 189.80 C 312.01 192.85 305.07 197.69 302.60 205.16 C 306.92 191.90 318.34 181.30 331.68 177.45 C 339.32 175.72 347.23 175.81 355.02 175.78 M 508.05 198.81 C 508.59 203.62 510.48 208.16 511.17 212.95 C 516.41 237.62 514.86 263.58 507.53 287.66 C 504.22 298.39 499.68 309.47 490.68 316.70 C 487.51 319.78 482.98 321.16 480.24 324.69 C 484.85 323.39 489.02 320.82 492.66 317.75 C 501.06 310.65 505.72 300.27 509.15 290.06 C 517.26 264.67 519.00 237.00 512.61 211.03 C 511.53 206.82 510.54 202.45 508.05 198.81 Z" />
<path fill="rgba(0,0,0,0)" opacity="1.00" d=" M 470.97 335.26 C 489.75 336.70 507.16 323.82 514.73 307.19 C 516.55 328.53 522.70 349.99 535.60 367.37 C 540.62 374.30 546.83 380.34 553.88 385.19 C 556.87 387.21 560.19 388.70 563.17 390.75 C 554.92 390.84 546.68 390.52 538.45 390.77 C 540.80 379.51 535.86 367.81 528.40 359.47 C 518.93 349.45 504.81 345.90 491.59 344.23 C 466.02 342.34 440.37 342.31 414.76 341.42 C 391.88 341.00 369.01 340.23 346.13 340.24 C 343.34 340.52 343.50 337.05 342.63 335.23 C 343.47 335.23 345.16 335.25 346.00 335.25 C 387.66 335.09 429.31 335.24 470.97 335.26 Z" />
</g>
<g id="Group-000000" fill="#000000">
<path fill="rgba(0,0,0,0)" opacity="1.00" d=" M 464.83 189.06 C 472.49 188.92 480.21 189.67 487.75 190.98 C 486.33 191.99 484.57 193.28 483.96 190.62 C 477.57 190.26 471.20 189.57 464.83 189.06 Z" />
</g>
<g id="Group-000000" fill="#000000">
<path fill="rgba(0,0,0,0)" opacity="1.00" d=" M 324.12 193.39 C 327.44 193.41 322.61 196.44 324.12 193.39 Z" />
</g>
<g id="Group-000000" fill="#000000">
<path fill="#000000" opacity="1.00" d=" M 508.05 198.81 C 510.54 202.45 511.53 206.82 512.61 211.03 C 519.00 237.00 517.26 264.67 509.15 290.06 C 505.72 300.27 501.06 310.65 492.66 317.75 C 489.02 320.82 484.85 323.39 480.24 324.69 C 482.98 321.16 487.51 319.78 490.68 316.70 C 499.68 309.47 504.22 298.39 507.53 287.66 C 514.86 263.58 516.41 237.62 511.17 212.95 C 510.48 208.16 508.59 203.62 508.05 198.81 Z" />
</g>
<g id="Group-000000" fill="#000000">
<path fill="rgba(0,0,0,0)" opacity="1.00" d=" M 334.37 204.42 C 335.97 203.29 338.38 203.77 338.59 205.98 C 337.47 207.47 335.73 208.26 334.21 209.25 C 328.16 212.94 322.56 217.59 318.58 223.50 C 317.71 225.08 315.67 226.37 314.08 224.89 C 313.94 222.75 315.33 221.02 316.49 219.39 C 321.30 213.21 327.48 208.11 334.37 204.42 Z" />
<path fill="rgba(0,0,0,0)" opacity="1.00" d=" M 507.09 547.34 C 508.47 546.32 510.42 548.60 508.95 549.67 C 507.58 550.59 505.55 548.39 507.09 547.34 Z" />
</g>
<g id="Group-000000" fill="#000000">
<path fill="rgba(0,0,0,0)" opacity="1.00" d=" M 583.91 219.96 C 586.15 213.46 591.29 207.91 598.09 206.21 C 596.72 208.43 594.33 209.76 592.85 211.90 C 587.83 218.66 585.91 227.02 584.03 235.06 C 581.08 248.40 577.74 261.65 575.19 275.08 C 572.97 286.42 573.08 298.57 577.55 309.38 C 579.55 314.78 583.19 319.53 587.86 322.91 C 577.56 318.11 572.20 306.78 570.97 295.95 C 568.30 280.74 573.55 265.82 576.39 251.05 C 578.85 240.68 580.30 230.02 583.91 219.96 Z" />
</g>
<g id="Group-000000" fill="#000000">
<path fill="rgba(0,0,0,0)" opacity="1.00" d=" M 628.56 225.16 C 629.77 224.30 630.47 224.56 630.66 225.92 C 629.45 226.75 628.75 226.50 628.56 225.16 Z" />
<path fill="rgba(0,0,0,0)" opacity="1.00" d=" M 671.12 592.14 C 672.43 592.73 672.43 593.40 671.12 594.14 C 669.87 593.47 669.87 592.81 671.12 592.14 Z" />
<path fill="rgba(0,0,0,0)" opacity="1.00" d=" M 564.55 703.64 C 566.02 701.55 568.52 702.91 569.17 704.89 C 568.45 705.49 567.75 706.10 567.05 706.71 C 565.67 706.23 562.71 705.50 564.55 703.64 Z" />
</g>
<g id="Group-000000" fill="#000000">
<path fill="#000000" opacity="1.00" d=" M 297.37 226.38 C 298.94 226.78 297.67 230.28 296.09 229.81 C 295.44 228.63 296.43 227.11 297.37 226.38 Z" />
</g>
<g id="Group-000000" fill="#000000">
<path fill="rgba(0,0,0,0)" opacity="1.00" d=" M 618.50 227.66 C 620.55 226.62 622.83 227.71 624.95 227.98 C 632.36 229.20 639.84 230.24 647.05 232.40 C 638.95 233.35 632.40 239.65 629.49 247.02 C 626.31 255.48 624.60 264.37 621.99 273.00 C 620.32 278.80 618.67 284.93 619.90 290.98 C 620.94 295.60 623.64 299.71 626.92 303.07 C 626.29 302.91 625.05 302.61 624.42 302.46 C 620.99 301.64 617.57 300.77 614.12 300.08 C 609.60 299.14 604.80 298.73 600.76 296.32 C 597.03 293.50 596.05 288.37 596.28 283.95 C 597.18 275.29 599.49 266.88 601.72 258.49 C 603.94 250.83 605.88 242.95 609.99 236.04 C 611.97 232.54 614.79 229.36 618.50 227.66 Z" />
<path fill="rgba(0,0,0,0)" opacity="1.00" d=" M 705.88 588.96 C 707.73 587.00 710.07 584.74 713.03 585.99 C 726.07 589.51 738.00 596.26 749.03 603.92 C 751.96 606.08 755.17 608.05 757.34 611.05 C 757.25 611.70 757.07 613.01 756.98 613.66 C 752.24 620.15 744.83 623.82 738.40 628.37 C 735.27 630.90 731.00 628.95 727.41 629.94 C 727.22 630.40 726.85 631.32 726.66 631.78 C 729.26 631.86 731.87 631.89 734.48 631.80 C 727.75 638.16 726.68 648.16 728.49 656.81 C 718.63 653.13 709.68 647.47 700.35 642.66 C 693.81 638.80 686.76 635.82 680.47 631.55 C 675.13 628.17 673.26 620.17 676.98 614.97 C 681.70 608.12 688.50 603.17 694.68 597.76 C 697.08 601.03 700.14 603.82 703.60 605.95 C 704.66 606.22 705.14 604.34 704.17 604.00 C 701.15 601.64 697.63 599.81 695.28 596.69 C 696.52 596.69 698.05 594.75 699.31 595.76 C 704.35 599.09 709.20 602.96 715.02 604.90 C 716.94 605.10 718.58 602.81 718.19 601.03 C 714.96 596.13 708.72 594.20 705.88 588.96 M 692.36 602.50 C 693.10 604.40 694.45 605.97 696.07 607.21 C 700.06 610.30 703.58 614.12 708.25 616.25 C 707.69 613.34 704.37 612.46 702.70 610.30 C 699.45 607.55 696.54 603.52 692.36 602.50 M 689.02 604.14 C 689.19 607.40 691.87 609.75 693.76 612.18 C 700.92 619.49 708.92 626.88 719.05 629.59 C 720.09 629.66 723.15 630.57 722.58 628.67 C 718.80 627.17 714.79 626.11 711.38 623.80 C 704.88 619.45 698.29 614.84 693.62 608.44 C 692.35 606.74 690.67 605.43 689.02 604.14 Z" />
<path fill="rgba(0,0,0,0)" opacity="1.00" d=" M 304.51 609.43 C 306.74 607.47 308.94 605.02 312.03 604.56 C 314.12 604.98 315.16 607.33 316.78 608.60 C 312.82 612.06 310.55 616.90 307.62 621.18 C 308.91 623.10 311.39 625.18 313.80 623.92 C 317.26 620.60 320.81 617.35 323.99 613.76 C 323.51 613.53 322.54 613.07 322.05 612.85 C 323.47 612.23 324.94 610.23 326.53 611.54 C 331.32 615.08 335.59 619.25 340.41 622.75 C 344.92 626.62 350.22 630.73 351.07 637.04 C 352.37 643.11 348.12 648.24 344.42 652.49 C 335.72 663.15 327.21 673.94 318.36 684.47 C 316.08 687.17 314.05 690.21 310.95 692.05 C 310.33 690.94 309.70 689.85 309.06 688.78 C 308.02 687.13 306.87 685.54 305.66 684.02 C 301.88 678.95 298.10 673.55 292.46 670.39 C 297.89 669.44 302.81 666.62 306.77 662.85 C 305.52 666.52 303.36 670.01 303.10 673.96 C 302.83 675.32 303.70 676.50 304.62 677.37 C 305.94 670.37 308.36 663.47 312.67 657.72 C 319.75 647.86 325.27 637.04 331.78 626.82 C 333.04 624.57 334.96 622.60 335.33 619.96 C 326.24 628.25 321.79 640.14 314.86 650.09 C 310.04 657.38 303.62 664.40 295.04 667.07 C 289.34 668.86 283.91 665.47 278.97 663.07 C 276.50 661.63 273.52 660.81 271.58 658.62 C 269.81 657.00 271.50 654.81 272.08 653.02 C 275.04 646.61 279.02 640.72 283.10 634.96 C 289.65 625.99 296.62 617.27 304.51 609.43 M 321.22 622.84 C 324.39 621.27 326.22 617.96 327.71 614.90 C 324.76 616.67 322.34 619.58 321.22 622.84 M 329.68 617.62 C 325.50 622.76 321.09 627.86 318.40 633.98 C 320.11 633.86 320.93 632.13 322.00 631.03 C 325.40 626.51 329.61 622.30 331.33 616.79 C 330.91 617.00 330.09 617.41 329.68 617.62 Z" />
</g>
<g id="Group-000000" fill="#000000">
<path fill="rgba(0,0,0,0)" opacity="1.00" d=" M 310.86 233.03 C 310.25 231.38 312.19 230.62 313.06 229.63 C 314.54 230.77 316.11 232.95 314.41 234.67 C 313.24 236.17 311.00 234.56 310.86 233.03 Z" />
</g>
<g id="Group-000000" fill="#000000">
<path fill="rgba(0,0,0,0)" opacity="1.00" d=" M 632.46 246.58 C 635.72 238.98 643.93 234.63 651.91 234.08 C 657.33 233.76 662.60 236.00 667.08 238.88 C 666.62 242.34 664.32 245.30 663.62 248.75 C 658.64 246.50 653.48 244.60 648.14 243.40 C 645.02 242.62 641.52 243.86 639.59 246.42 C 635.76 251.13 634.78 257.27 633.08 262.92 C 631.32 269.54 629.06 276.10 628.34 282.95 C 627.78 288.13 631.71 292.65 636.16 294.72 C 639.43 296.19 643.08 295.43 646.42 294.63 C 654.26 292.49 661.52 287.96 666.60 281.58 C 669.33 278.02 669.82 273.38 669.81 269.05 C 669.69 262.56 668.98 255.89 665.97 250.04 C 667.05 246.87 668.27 243.76 669.46 240.63 C 674.54 244.54 677.14 250.83 678.24 256.98 C 680.31 267.41 677.89 278.80 671.19 287.12 C 663.57 296.72 652.21 303.43 640.01 304.91 C 632.05 305.57 624.83 299.54 622.74 292.09 C 620.61 286.08 622.74 279.80 624.33 273.96 C 626.99 264.83 628.75 255.38 632.46 246.58 Z" />
<path fill="rgba(0,0,0,0)" opacity="1.00" d=" M 510.21 476.31 C 511.51 475.80 512.87 475.96 513.62 477.30 C 513.34 477.71 512.79 478.54 512.51 478.95 C 511.23 478.55 510.53 477.55 510.21 476.31 Z" />
<path fill="rgba(0,0,0,0)" opacity="1.00" d=" M 468.03 777.66 C 469.41 777.18 469.91 777.63 469.53 779.03 C 468.11 779.50 467.61 779.04 468.03 777.66 Z" />
</g>
<g id="Group-000000" fill="#000000">
<path fill="rgba(0,0,0,0)" opacity="1.00" d=" M 494.71 252.83 C 494.10 250.24 494.47 247.66 495.60 245.28 C 495.58 247.42 495.26 249.56 495.32 251.71 C 493.88 256.35 493.76 261.23 492.59 265.93 C 491.59 271.12 489.70 276.07 488.33 281.16 C 488.13 278.36 489.39 275.76 490.02 273.10 C 491.99 266.44 492.87 259.52 494.71 252.83 Z" />
<path fill="rgba(0,0,0,0)" opacity="1.00" d=" M 565.18 504.08 C 566.35 501.24 567.81 498.47 569.91 496.20 C 568.79 499.07 567.05 501.65 565.18 504.08 Z" />
<path fill="rgba(0,0,0,0)" opacity="1.00" d=" M 668.46 595.40 C 670.65 594.09 669.82 598.41 667.97 597.91 C 666.49 597.64 667.65 595.76 668.46 595.40 Z" />
<path fill="rgba(0,0,0,0)" opacity="1.00" d=" M 468.92 786.05 C 470.20 785.45 471.55 785.28 472.78 786.11 C 472.62 787.77 472.48 789.44 472.29 791.11 C 471.50 791.03 469.92 790.89 469.13 790.81 C 469.04 789.21 468.98 787.62 468.92 786.05 Z" />
<path fill="rgba(0,0,0,0)" opacity="1.00" d=" M 469.90 799.09 C 471.47 798.66 472.02 799.25 471.57 800.86 C 469.97 801.33 469.41 800.74 469.90 799.09 Z" />
</g>
<g id="Group-000000" fill="#000000">
<path fill="rgba(0,0,0,0)" opacity="1.00" d=" M 353.44 253.51 C 355.59 252.48 358.23 253.49 359.55 255.37 C 361.74 258.43 362.44 262.27 362.86 265.93 C 362.98 272.31 363.60 278.79 362.33 285.10 C 361.61 288.32 359.94 292.40 356.02 292.41 C 352.27 292.88 350.47 289.00 349.50 286.06 C 347.63 278.85 348.12 271.30 348.29 263.92 C 348.62 260.08 349.40 255.16 353.44 253.51 M 353.36 256.52 C 350.29 259.83 350.95 264.72 350.79 268.87 C 351.11 275.43 350.00 282.62 353.55 288.52 C 354.25 289.98 356.18 290.49 357.48 289.49 C 361.35 284.93 360.55 278.58 360.50 273.04 C 360.11 268.03 360.94 262.53 358.18 258.05 C 357.26 256.41 355.01 254.78 353.36 256.52 Z" />
</g>
<g id="Group-000000" fill="#000000">
<path fill="rgba(0,0,0,0)" opacity="1.00" d=" M 454.50 253.76 C 457.35 252.12 460.74 254.36 461.90 257.07 C 464.89 263.63 464.24 271.04 464.31 278.06 C 464.16 282.25 464.16 286.95 461.44 290.41 C 459.47 293.21 454.45 293.25 452.78 290.13 C 451.01 287.03 449.96 283.50 449.91 279.92 C 449.67 273.62 449.25 267.24 450.41 261.01 C 451.07 258.33 451.94 255.23 454.50 253.76 M 452.94 261.05 C 451.90 267.67 452.06 274.45 452.55 281.12 C 453.01 284.56 453.80 288.49 456.93 290.53 C 458.81 289.61 460.34 288.04 460.81 285.96 C 462.50 279.11 461.45 272.00 461.41 265.04 C 460.97 261.70 460.34 257.48 457.08 255.71 C 454.48 256.11 453.30 258.73 452.94 261.05 Z" />
</g>
<g id="Group-000000" fill="#000000">
<path fill="#000000" opacity="1.00" d=" M 338.20 255.14 C 339.57 255.26 339.53 257.78 338.13 257.79 C 336.84 257.54 336.85 255.27 338.20 255.14 Z" />
</g>
<g id="Group-000000" fill="#000000">
<path fill="#000000" opacity="1.00" d=" M 353.36 256.52 C 355.01 254.78 357.26 256.41 358.18 258.05 C 360.94 262.53 360.11 268.03 360.50 273.04 C 360.55 278.58 361.35 284.93 357.48 289.49 C 356.18 290.49 354.25 289.98 353.55 288.52 C 350.00 282.62 351.11 275.43 350.79 268.87 C 350.95 264.72 350.29 259.83 353.36 256.52 Z" />
<path fill="#000000" opacity="1.00" d=" M 599.46 559.42 C 601.82 558.02 603.38 555.65 605.68 554.19 C 605.48 558.30 601.73 561.10 598.32 562.69 C 596.09 561.74 598.28 560.11 599.46 559.42 Z" />
</g>
<g id="Group-000000" fill="#000000">
<path fill="#000000" opacity="1.00" d=" M 452.94 261.05 C 453.30 258.73 454.48 256.11 457.08 255.71 C 460.34 257.48 460.97 261.70 461.41 265.04 C 461.45 272.00 462.50 279.11 460.81 285.96 C 460.34 288.04 458.81 289.61 456.93 290.53 C 453.80 288.49 453.01 284.56 452.55 281.12 C 452.06 274.45 451.90 267.67 452.94 261.05 Z" />
<path fill="#000000" opacity="1.00" d=" M 692.36 602.50 C 696.54 603.52 699.45 607.55 702.70 610.30 C 704.37 612.46 707.69 613.34 708.25 616.25 C 703.58 614.12 700.06 610.30 696.07 607.21 C 694.45 605.97 693.10 604.40 692.36 602.50 Z" />
<path fill="#000000" opacity="1.00" d=" M 689.02 604.14 C 690.67 605.43 692.35 606.74 693.62 608.44 C 698.29 614.84 704.88 619.45 711.38 623.80 C 714.79 626.11 718.80 627.17 722.58 628.67 C 723.15 630.57 720.09 629.66 719.05 629.59 C 708.92 626.88 700.92 619.49 693.76 612.18 C 691.87 609.75 689.19 607.40 689.02 604.14 Z" />
<path fill="#000000" opacity="1.00" d=" M 321.22 622.84 C 322.34 619.58 324.76 616.67 327.71 614.90 C 326.22 617.96 324.39 621.27 321.22 622.84 Z" />
<path fill="#000000" opacity="1.00" d=" M 329.68 617.62 C 330.09 617.41 330.91 617.00 331.33 616.79 C 329.61 622.30 325.40 626.51 322.00 631.03 C 320.93 632.13 320.11 633.86 318.40 633.98 C 321.09 627.86 325.50 622.76 329.68 617.62 Z" />
</g>
<g id="Group-000000" fill="#000000">
<path fill="#000000" opacity="1.00" d=" M 337.18 263.35 C 338.45 263.60 338.66 264.36 337.80 265.64 C 336.52 265.38 336.31 264.62 337.18 263.35 Z" />
</g>
<g id="Group-000000" fill="#000000">
<path fill="rgba(0,0,0,0)" opacity="1.00" d=" M 656.02 269.97 C 655.82 268.65 655.43 266.94 656.99 266.25 C 658.87 264.70 659.92 267.46 659.45 268.94 C 659.41 270.81 657.11 269.97 656.02 269.97 Z" />
<path fill="rgba(0,0,0,0)" opacity="1.00" d=" M 337.54 275.25 C 337.70 275.26 338.03 275.28 338.20 275.29 C 338.04 277.76 338.29 280.23 338.51 282.69 C 337.92 282.70 336.75 282.71 336.16 282.72 C 337.90 280.52 337.19 277.82 337.54 275.25 Z" />
<path fill="rgba(0,0,0,0)" opacity="1.00" d=" M 335.20 297.58 C 338.02 297.51 340.84 297.66 343.66 297.55 C 343.51 297.81 343.21 298.33 343.05 298.60 C 340.50 298.21 337.91 298.35 335.34 298.41 C 335.30 298.20 335.23 297.79 335.20 297.58 Z" />
<path fill="rgba(0,0,0,0)" opacity="1.00" d=" M 418.13 469.39 C 419.25 468.59 420.78 470.48 419.93 471.49 C 418.80 472.20 417.41 470.38 418.13 469.39 Z" />
<path fill="rgba(0,0,0,0)" opacity="1.00" d=" M 377.95 502.71 C 377.17 501.92 377.08 499.29 378.45 499.32 C 378.97 500.20 379.41 502.57 377.95 502.71 Z" />
<path fill="rgba(0,0,0,0)" opacity="1.00" d=" M 418.11 542.42 C 419.27 542.15 419.94 542.65 420.14 543.91 C 419.62 545.78 416.87 543.63 418.11 542.42 Z" />
<path fill="rgba(0,0,0,0)" opacity="1.00" d=" M 544.95 778.01 C 546.56 777.49 547.10 778.04 546.56 779.65 C 544.90 780.15 544.36 779.60 544.95 778.01 Z" />
</g>
<g id="Group-000000" fill="#000000">
<path fill="#000000" opacity="1.00" d=" M 337.15 272.33 C 338.50 271.95 338.99 272.47 338.60 273.91 C 337.24 274.28 336.76 273.76 337.15 272.33 Z" />
</g>
<g id="Group-000000" fill="#000000">
<path fill="#000000" opacity="1.00" d=" M 295.03 274.26 C 298.32 274.41 293.48 277.29 295.03 274.26 Z" />
</g>
<g id="Group-000000" fill="#000000">
<path fill="rgba(0,0,0,0)" opacity="1.00" d=" M 639.34 280.25 C 639.83 280.79 639.83 280.79 639.34 280.25 Z" />
</g>
<g id="Group-000000" fill="#000000">
<path fill="rgba(0,0,0,0)" opacity="1.00" d=" M 296.13 285.24 C 299.39 285.32 294.63 288.31 296.13 285.24 Z" />
</g>
<g id="Group-000000" fill="#000000">
<path fill="rgba(0,0,0,0)" opacity="1.00" d=" M 395.92 291.02 C 394.96 289.17 396.59 287.83 398.15 287.25 C 399.46 289.49 400.04 292.16 401.73 294.18 C 405.60 298.21 412.26 299.08 416.87 295.78 C 420.32 293.93 420.61 289.63 422.97 286.86 C 424.44 288.21 425.15 290.16 424.10 292.01 C 421.89 297.97 415.43 302.05 409.06 301.30 C 403.10 300.98 397.59 296.77 395.92 291.02 Z" />
</g>
<g id="Group-000000" fill="#000000">
<path fill="#000000" opacity="1.00" d=" M 297.23 290.22 C 298.47 290.67 299.15 293.82 297.83 294.69 C 296.26 294.07 296.49 291.43 297.23 290.22 Z" />
</g>
<g id="Group-000000" fill="#000000">
<path fill="#000000" opacity="1.00" d=" M 440.79 297.94 C 441.37 296.21 443.04 296.36 444.48 296.62 C 445.76 295.53 446.81 296.44 447.12 297.78 C 445.01 297.99 442.90 298.03 440.79 297.94 Z" />
</g>
<g id="Group-000000" fill="#000000">
<path fill="#000000" opacity="1.00" d=" M 318.29 297.21 C 319.71 296.72 320.15 297.18 319.60 298.60 C 318.18 299.09 317.74 298.62 318.29 297.21 Z" />
</g>
<g id="Group-000000" fill="#000000">
<path fill="rgba(0,0,0,0)" opacity="1.00" d=" M 333.19 297.18 C 336.50 297.33 331.71 300.20 333.19 297.18 Z" />
</g>
<g id="Group-000000" fill="#000000">
<path fill="#000000" opacity="1.00" d=" M 436.37 297.47 C 437.43 296.64 438.53 296.55 439.66 297.22 C 439.97 298.83 435.17 299.47 436.37 297.47 Z" />
</g>
<g id="Group-000000" fill="#000000">
<path fill="#000000" opacity="1.00" d=" M 614.12 300.08 C 617.57 300.77 620.99 301.64 624.42 302.46 C 624.05 303.08 623.32 304.31 622.95 304.93 C 621.59 304.75 620.22 304.64 618.86 304.60 C 616.87 304.68 614.90 304.35 613.01 303.76 C 613.37 302.53 613.74 301.30 614.12 300.08 Z" />
</g>
<g id="Group-000000" fill="#000000">
<path fill="rgba(0,0,0,0)" opacity="1.00" d=" M 618.86 304.60 C 620.22 304.64 621.59 304.75 622.95 304.93 C 626.98 305.65 630.94 306.70 635.01 307.25 C 632.50 317.13 631.27 327.33 628.22 337.08 C 623.30 353.67 614.06 369.57 599.78 379.76 C 591.53 385.82 581.60 389.39 571.45 390.50 C 574.36 375.77 576.32 360.87 578.80 346.06 C 579.92 338.34 581.46 330.68 582.33 322.92 C 589.82 327.27 599.48 326.91 607.03 322.89 C 612.82 319.89 616.86 314.41 619.63 308.65 C 620.31 307.16 621.97 304.60 618.86 304.60 Z" />
<path fill="rgba(0,0,0,0)" opacity="1.00" d=" M 524.74 449.04 C 539.80 450.05 554.92 449.38 570.01 449.58 C 577.85 449.19 585.50 451.55 592.67 454.50 C 597.28 456.53 602.08 458.81 605.17 462.96 C 607.32 465.86 609.32 468.97 610.40 472.45 C 611.09 476.05 610.89 479.74 611.10 483.39 C 605.28 477.43 596.10 476.95 588.56 479.37 C 579.70 481.63 572.72 488.31 567.43 495.47 C 560.95 504.83 557.42 518.01 563.41 528.46 C 566.52 534.45 573.08 537.54 579.44 538.75 C 588.22 539.96 597.43 540.21 605.74 536.63 C 606.66 538.38 608.10 539.75 609.97 540.47 C 610.16 546.42 611.70 553.01 608.35 558.39 C 605.24 563.65 599.29 567.64 593.04 567.32 C 572.06 567.28 551.08 567.18 530.10 567.44 C 535.67 563.91 539.27 557.55 539.44 550.96 C 539.98 525.66 540.12 500.34 540.48 475.03 C 540.61 467.97 538.42 460.70 533.51 455.51 C 531.15 452.65 527.80 450.99 524.74 449.04 M 599.46 559.42 C 598.28 560.11 596.09 561.74 598.32 562.69 C 601.73 561.10 605.48 558.30 605.68 554.19 C 603.38 555.65 601.82 558.02 599.46 559.42 Z" />
<path fill="rgba(0,0,0,0)" opacity="1.00" d=" M 587.92 674.16 C 583.07 671.52 585.90 661.70 591.64 663.40 C 596.47 666.08 593.59 675.11 587.92 674.16 Z" />
</g>
<g id="Group-000000" fill="#000000">
<path fill="rgba(0,0,0,0)" opacity="1.00" d=" M 320.30 313.27 C 320.78 313.82 320.78 313.82 320.30 313.27 Z" />
</g>
<g id="Group-000000" fill="#000000">
<path fill="#000000" opacity="1.00" d=" M 328.22 314.11 C 331.23 312.57 328.40 317.39 328.22 314.11 Z" />
</g>
<g id="Group-000000" fill="#000000">
<path fill="rgba(0,0,0,0)" opacity="1.00" d=" M 332.23 314.30 C 332.79 314.80 332.79 314.80 332.23 314.30 Z" />
</g>
<g id="Group-000000" fill="#000000">
<path fill="rgba(0,0,0,0)" opacity="1.00" d=" M 334.23 314.22 C 337.22 312.69 334.47 317.51 334.23 314.22 Z" />
</g>
<g id="Group-000000" fill="#000000">
<path fill="rgba(0,0,0,0)" opacity="1.00" d=" M 338.12 314.24 C 339.78 313.71 340.34 314.25 339.81 315.86 C 338.15 316.38 337.59 315.84 338.12 314.24 Z" />
</g>
<g id="Group-000000" fill="#000000">
<path fill="rgba(0,0,0,0)" opacity="1.00" d=" M 454.64 325.08 C 454.34 322.00 457.67 323.25 459.56 323.00 C 459.11 325.39 456.33 324.56 454.64 325.08 Z" />
</g>
<g id="Group-000000" fill="#000000">
<path fill="#000000" opacity="1.00" d=" M 449.27 324.33 C 450.57 323.62 452.40 323.48 453.73 324.21 C 453.40 325.66 449.76 325.61 449.27 324.33 Z" />
</g>
<g id="Group-000000" fill="#000000">
<path fill="#000000" opacity="1.00" d=" M 512.17 433.17 C 513.58 432.65 514.03 433.11 513.53 434.54 C 512.11 435.05 511.66 434.59 512.17 433.17 Z" />
</g>
<g id="Group-000000" fill="#000000">
<path fill="#000000" opacity="1.00" d=" M 394.22 471.55 C 396.74 461.53 406.05 452.68 416.87 453.68 C 448.57 454.25 480.26 455.10 511.96 455.93 C 522.63 455.49 531.36 465.60 530.76 475.99 C 530.29 500.66 530.01 525.35 529.63 550.04 C 529.70 555.37 526.87 560.52 522.60 563.64 C 517.28 567.58 510.25 566.32 504.09 566.18 C 478.73 564.59 453.33 563.74 427.99 562.07 C 421.37 561.77 414.70 561.87 408.16 560.73 C 399.20 558.34 392.65 549.26 393.19 539.99 C 393.34 517.73 393.70 495.46 393.94 473.20 C 394.79 473.93 395.66 474.65 396.55 475.35 C 395.99 494.23 396.18 513.14 395.80 532.02 C 395.91 538.24 394.70 545.13 398.34 550.63 C 401.63 555.94 407.92 558.49 413.96 558.80 C 442.99 560.04 471.99 561.97 501.01 563.31 C 506.33 563.50 511.71 564.25 517.00 563.43 C 521.73 561.91 525.59 557.75 526.80 552.93 C 527.60 544.34 527.13 535.68 527.52 527.06 C 527.61 509.40 528.29 491.73 528.09 474.07 C 528.20 465.58 520.51 458.12 512.02 458.48 C 480.35 457.52 448.67 456.93 416.99 456.19 C 406.49 455.39 397.95 464.86 396.34 474.63 C 395.61 473.61 394.90 472.59 394.22 471.55 Z" />
</g>
<g id="Group-000000" fill="#000000">
<path fill="#000000" opacity="1.00" d=" M 413.30 465.41 C 416.65 463.67 421.11 465.34 422.34 468.94 C 425.11 474.24 418.77 481.48 413.22 478.77 C 407.92 476.43 407.99 467.71 413.30 465.41 M 418.13 469.39 C 417.41 470.38 418.80 472.20 419.93 471.49 C 420.78 470.48 419.25 468.59 418.13 469.39 Z" />
</g>
<g id="Group-000000" fill="#000000">
<path fill="#000000" opacity="1.00" d=" M 508.35 472.43 C 511.61 470.84 515.93 473.28 516.20 476.92 C 517.37 481.33 512.37 485.73 508.17 483.78 C 503.71 481.71 504.77 474.83 508.35 472.43 M 510.21 476.31 C 510.53 477.55 511.23 478.55 512.51 478.95 C 512.79 478.54 513.34 477.71 513.62 477.30 C 512.87 475.96 511.51 475.80 510.21 476.31 Z" />
</g>
<g id="Group-000000" fill="#000000">
<path fill="#000000" opacity="1.00" d=" M 382.09 486.29 C 385.35 486.48 380.49 489.31 382.09 486.29 Z" />
</g>
<g id="Group-000000" fill="#000000">
<path fill="rgba(0,0,0,0)" opacity="1.00" d=" M 381.22 489.22 C 381.73 489.78 381.73 489.78 381.22 489.22 Z" />
</g>
<g id="Group-000000" fill="#000000">
<path fill="rgba(0,0,0,0)" opacity="1.00" d=" M 378.44 497.66 C 378.99 495.21 379.12 492.11 381.38 490.56 C 380.77 493.13 379.96 495.66 379.83 498.32 C 379.48 498.15 378.79 497.83 378.44 497.66 Z" />
<path fill="rgba(0,0,0,0)" opacity="1.00" d=" M 743.21 635.26 C 743.75 635.77 743.75 635.77 743.21 635.26 Z" />
</g>
<g id="Group-000000" fill="#000000">
<path fill="rgba(0,0,0,0)" opacity="1.00" d=" M 585.87 513.98 C 588.48 503.52 598.79 496.97 608.91 495.31 C 610.53 494.78 611.67 496.24 612.83 497.07 C 611.44 499.55 608.36 499.59 605.93 500.16 C 600.88 501.03 596.17 503.87 593.10 507.97 C 591.13 510.51 591.24 513.92 589.84 516.72 C 588.40 518.29 585.38 515.86 585.87 513.98 Z" />
</g>
<g id="Group-000000" fill="#000000">
<path fill="rgba(0,0,0,0)" opacity="1.00" d=" M 576.31 506.18 C 576.85 506.73 576.85 506.73 576.31 506.18 Z" />
</g>
<g id="Group-000000" fill="#000000">
<path fill="#000000" opacity="1.00" d=" M 385.24 524.06 C 386.86 523.59 387.38 524.18 386.81 525.82 C 385.18 526.27 384.66 525.69 385.24 524.06 Z" />
</g>
<g id="Group-000000" fill="#000000">
<path fill="#000000" opacity="1.00" d=" M 725.43 534.54 C 725.75 534.37 726.38 534.02 726.70 533.85 C 727.80 539.87 726.65 545.96 725.74 551.92 C 724.76 557.20 723.38 562.55 720.69 567.25 L 719.56 567.99 C 720.25 562.88 722.34 558.09 723.15 553.00 C 724.49 546.93 724.34 540.64 725.43 534.54 Z" />
</g>
<g id="Group-000000" fill="#000000">
<path fill="#000000" opacity="1.00" d=" M 411.37 540.09 C 414.76 536.87 421.14 538.44 422.46 542.98 C 424.49 548.73 418.12 554.98 412.35 552.86 C 412.43 552.20 412.58 550.87 412.66 550.20 C 412.35 550.71 411.74 551.71 411.44 552.22 C 408.16 549.04 407.62 543.12 411.37 540.09 M 418.11 542.42 C 416.87 543.63 419.62 545.78 420.14 543.91 C 419.94 542.65 419.27 542.15 418.11 542.42 Z" />
</g>
<g id="Group-000000" fill="#000000">
<path fill="#000000" opacity="1.00" d=" M 503.02 543.98 C 506.71 541.65 511.66 544.89 512.06 548.95 C 512.97 553.47 508.92 558.59 504.12 557.62 C 498.20 555.97 497.54 546.60 503.02 543.98 M 507.09 547.34 C 505.55 548.39 507.58 550.59 508.95 549.67 C 510.42 548.60 508.47 546.32 507.09 547.34 Z" />
</g>
<g id="Group-000000" fill="#000000">
<path fill="#000000" opacity="1.00" d=" M 751.00 547.84 C 751.55 547.81 752.65 547.75 753.20 547.72 C 750.95 555.97 747.67 563.96 743.53 571.43 C 742.06 573.74 740.87 576.58 738.22 577.77 C 739.38 573.17 742.43 569.41 744.25 565.08 C 747.09 559.58 748.62 553.54 751.00 547.84 Z" />
<path fill="#000000" opacity="1.00" d=" M 523.06 907.96 C 523.47 907.75 524.30 907.33 524.71 907.12 C 525.15 910.09 525.04 913.10 525.09 916.09 C 525.25 933.05 525.75 950.00 525.87 966.96 C 539.77 966.82 553.69 967.14 567.59 966.80 C 568.09 966.27 569.11 965.20 569.61 964.67 C 569.57 965.25 569.47 966.41 569.43 966.99 C 624.26 967.10 679.11 966.99 733.94 967.56 C 734.95 967.50 735.72 967.94 736.24 968.89 C 710.83 969.49 685.40 969.06 659.98 969.28 C 630.60 969.36 601.23 969.30 571.86 969.52 C 569.99 969.66 567.01 969.26 567.48 972.09 C 567.42 971.50 567.29 970.33 567.23 969.74 C 557.86 969.42 548.48 969.52 539.10 969.56 C 534.29 969.65 529.45 969.25 524.68 970.06 C 515.48 968.96 506.17 969.75 496.93 969.56 C 493.52 969.72 489.97 969.00 486.71 970.24 C 485.82 969.94 484.93 969.75 484.02 969.65 C 471.36 969.48 458.69 969.42 446.03 969.44 C 444.77 969.29 443.76 970.14 442.67 970.61 C 441.63 969.72 440.33 969.43 439.00 969.56 C 400.74 969.64 362.47 969.24 324.20 969.77 C 324.19 969.04 324.17 967.56 324.15 966.82 C 363.39 966.92 402.69 966.90 441.95 966.89 C 441.54 960.93 441.57 954.96 441.43 949.00 C 441.40 947.70 441.63 946.46 442.12 945.27 C 442.59 945.30 443.52 945.36 443.98 945.39 C 443.61 952.54 444.39 959.70 443.90 966.85 C 457.87 967.05 471.87 966.60 485.82 967.10 C 486.30 967.23 487.27 967.49 487.76 967.61 C 487.78 964.25 488.06 960.91 488.57 957.61 C 488.57 960.73 488.60 963.86 488.58 967.00 C 500.32 966.87 512.06 966.83 523.80 967.01 C 522.68 949.04 523.21 931.00 522.55 913.00 C 522.56 911.30 522.18 909.50 523.06 907.96 Z" />
</g>
<g id="Group-000000" fill="#000000">
<path fill="rgba(0,0,0,0)" opacity="1.00" d=" M 414.35 566.11 C 417.40 564.64 414.42 569.40 414.35 566.11 Z" />
</g>
<g id="Group-000000" fill="#000000">
<path fill="rgba(0,0,0,0)" opacity="1.00" d=" M 418.19 566.12 C 419.82 565.59 420.37 566.14 419.85 567.77 C 418.22 568.29 417.66 567.74 418.19 566.12 Z" />
</g>
<g id="Group-000000" fill="#000000">
<path fill="rgba(0,0,0,0)" opacity="1.00" d=" M 422.24 566.95 C 425.25 565.36 422.40 570.24 422.24 566.95 Z" />
</g>
<g id="Group-000000" fill="#000000">
<path fill="#000000" opacity="1.00" d=" M 426.28 567.08 C 427.57 566.23 428.36 566.44 428.65 567.70 C 427.35 568.54 426.56 568.33 426.28 567.08 Z" />
</g>
<g id="Group-000000" fill="#000000">
<path fill="#000000" opacity="1.00" d=" M 561.36 570.10 C 563.01 569.15 563.34 571.75 561.80 572.03 C 560.14 572.94 559.85 570.40 561.36 570.10 Z" />
<path fill="#000000" opacity="1.00" d=" M 573.37 581.28 C 574.22 580.37 576.46 580.37 576.72 581.83 C 576.33 583.34 572.15 583.21 573.37 581.28 Z" />
</g>
<g id="Group-000000" fill="#000000">
<path fill="rgba(0,0,0,0)" opacity="1.00" d=" M 572.48 570.16 C 573.90 569.76 574.39 570.26 573.94 571.64 C 572.51 572.01 572.02 571.52 572.48 570.16 Z" />
</g>
<g id="Group-000000" fill="#000000">
<path fill="#000000" opacity="1.00" d=" M 568.25 580.26 C 569.24 579.12 571.48 579.73 571.76 581.21 C 571.29 582.97 567.11 582.26 568.25 580.26 Z" />
</g>
<g id="Group-000000" fill="#000000">
<path fill="rgba(0,0,0,0)" opacity="1.00" d=" M 676.30 602.20 C 679.38 600.69 676.32 605.48 676.30 602.20 Z" />
</g>
<g id="Group-000000" fill="#000000">
<path fill="#000000" opacity="1.00" d=" M 738.40 628.37 C 744.83 623.82 752.24 620.15 756.98 613.66 C 757.54 613.95 758.65 614.52 759.20 614.80 C 761.55 615.93 763.65 617.52 766.07 618.51 C 769.82 619.02 773.77 618.97 777.27 620.62 C 781.20 622.44 783.64 626.18 786.35 629.37 C 788.70 627.66 789.84 624.77 792.29 623.17 C 794.71 621.54 798.91 622.79 799.10 626.00 C 798.79 626.98 798.44 627.96 798.07 628.93 C 800.43 625.57 804.93 627.00 807.47 629.38 C 809.12 630.71 807.81 632.55 807.29 634.10 C 808.71 635.78 810.14 638.09 808.40 640.12 C 804.05 646.04 800.29 653.36 793.03 656.14 C 787.05 658.34 782.42 663.07 776.48 665.34 C 772.05 666.41 767.15 665.61 763.27 663.23 C 764.04 670.18 759.40 676.93 752.95 679.32 C 751.57 678.67 749.75 678.44 748.99 676.97 C 748.52 672.10 752.17 667.26 750.64 662.50 C 745.83 661.29 740.67 661.74 736.03 659.80 C 733.67 658.90 731.34 656.78 728.75 658.36 C 728.69 657.98 728.55 657.20 728.49 656.81 C 726.68 648.16 727.75 638.16 734.48 631.80 C 731.87 631.89 729.26 631.86 726.66 631.78 C 726.85 631.32 727.22 630.40 727.41 629.94 C 731.00 628.95 735.27 630.90 738.40 628.37 M 743.21 635.26 C 743.75 635.77 743.75 635.77 743.21 635.26 M 783.26 641.28 C 783.78 641.83 783.78 641.83 783.26 641.28 M 764.39 649.09 C 764.37 652.33 767.52 647.70 764.39 649.09 M 750.04 675.31 C 748.49 678.30 753.31 675.59 750.04 675.31 Z" />
</g>
<g id="Group-000000" fill="#000000">
<path fill="#000000" opacity="1.00" d=" M 404.11 620.76 C 406.35 622.46 405.89 625.63 406.26 628.11 C 406.40 639.09 406.23 650.08 406.35 661.06 C 406.49 666.28 407.81 671.70 411.36 675.69 C 413.36 677.99 416.34 679.00 418.81 680.69 C 415.36 681.54 412.23 679.42 409.85 677.18 C 405.98 673.57 404.07 668.24 403.96 663.03 C 403.59 651.36 403.95 639.69 403.63 628.02 C 403.57 625.59 403.75 623.16 404.11 620.76 Z" />
</g>
<g id="Group-000000" fill="#000000">
<path fill="#000000" opacity="1.00" d=" M 439.95 632.17 C 442.05 631.23 444.84 632.03 445.73 634.26 C 446.99 638.05 448.05 642.01 448.14 646.03 C 447.22 649.13 442.57 649.86 440.77 647.16 C 439.24 644.53 438.97 641.40 438.34 638.49 C 437.96 636.30 437.48 633.29 439.95 632.17 Z" />
</g>
<g id="Group-000000" fill="#000000">
<path fill="#000000" opacity="1.00" d=" M 465.04 632.22 C 467.14 631.43 469.86 632.31 470.71 634.50 C 471.94 637.92 472.62 641.52 473.06 645.12 C 473.17 648.42 468.63 649.91 466.36 647.77 C 464.07 645.24 463.93 641.61 463.28 638.44 C 462.92 636.27 462.42 633.16 465.04 632.22 Z" />
</g>
<g id="Group-000000" fill="#000000">
<path fill="rgba(0,0,0,0)" opacity="1.00" d=" M 783.26 641.28 C 783.78 641.83 783.78 641.83 783.26 641.28 Z" />
</g>
<g id="Group-000000" fill="#000000">
<path fill="#000000" opacity="1.00" d=" M 521.03 645.60 C 521.76 645.63 523.21 645.68 523.94 645.71 C 524.06 650.31 524.49 654.90 525.01 659.48 C 524.26 659.42 522.76 659.29 522.01 659.23 C 521.91 654.67 521.62 650.11 521.03 645.60 Z" />
</g>
<g id="Group-000000" fill="#000000">
<path fill="rgba(0,0,0,0)" opacity="1.00" d=" M 764.39 649.09 C 767.52 647.70 764.37 652.33 764.39 649.09 Z" />
</g>
<g id="Group-000000" fill="#000000">
<path fill="#000000" opacity="1.00" d=" M 572.50 663.94 C 573.89 657.34 579.13 651.46 585.89 650.26 C 596.85 648.27 606.78 659.43 605.88 669.98 C 605.60 677.24 604.25 685.33 598.50 690.39 C 594.25 693.99 588.25 693.94 582.99 693.91 C 568.01 693.68 553.04 694.05 538.07 694.40 C 530.65 694.49 524.32 687.64 523.78 680.45 C 523.02 673.51 522.92 666.52 522.08 659.59 C 523.16 659.69 524.24 659.79 525.34 659.89 C 524.76 666.24 526.01 672.63 526.31 679.00 C 526.38 683.52 528.59 688.11 532.68 690.31 C 536.67 692.91 541.55 691.38 545.99 691.63 C 557.02 691.14 568.09 691.66 579.10 690.68 C 574.29 689.64 572.49 684.57 571.40 680.37 C 570.20 675.01 571.33 669.49 572.13 664.16 C 572.64 664.54 573.66 665.29 574.17 665.67 C 573.75 665.24 572.92 664.37 572.50 663.94 M 587.92 674.16 C 593.59 675.11 596.47 666.08 591.64 663.40 C 585.90 661.70 583.07 671.52 587.92 674.16 Z" />
</g>
<g id="Group-000000" fill="#000000">
<path fill="rgba(0,0,0,0)" opacity="1.00" d=" M 294.20 674.04 C 295.56 673.79 296.13 674.37 295.91 675.78 C 294.54 676.01 293.97 675.43 294.20 674.04 Z" />
</g>
<g id="Group-000000" fill="#000000">
<path fill="rgba(0,0,0,0)" opacity="1.00" d=" M 750.04 675.31 C 753.31 675.59 748.49 678.30 750.04 675.31 Z" />
</g>
<g id="Group-000000" fill="#000000">
<path fill="#000000" opacity="1.00" d=" M 296.72 676.70 C 300.58 678.14 301.40 683.60 305.66 684.02 C 306.87 685.54 308.02 687.13 309.06 688.78 C 308.55 689.20 307.54 690.02 307.03 690.44 C 305.06 688.52 303.61 686.19 302.01 683.99 C 300.28 681.53 297.59 679.70 296.72 676.70 Z" />
</g>
<g id="Group-000000" fill="#000000">
<path fill="rgba(0,0,0,0)" opacity="1.00" d=" M 258.26 693.23 C 258.78 693.78 258.78 693.78 258.26 693.23 Z" />
</g>
<g id="Group-000000" fill="#000000">
<path fill="#000000" opacity="1.00" d=" M 279.30 700.32 C 280.74 699.62 281.17 700.00 280.60 701.47 C 279.16 702.15 278.73 701.76 279.30 700.32 Z" />
</g>
<g id="Group-000000" fill="#000000">
<path fill="rgba(0,0,0,0)" opacity="1.00" d=" M 564.03 713.17 C 565.10 711.41 567.23 711.72 568.96 711.92 C 569.57 713.41 570.06 715.32 568.39 716.37 C 566.37 718.30 563.01 715.67 564.03 713.17 Z" />
</g>
<g id="Group-000000" fill="#000000">
<path fill="rgba(0,0,0,0)" opacity="1.00" d=" M 489.26 712.21 C 489.79 712.73 489.79 712.73 489.26 712.21 Z" />
</g>
<g id="Group-000000" fill="#000000">
<path fill="#000000" opacity="1.00" d=" M 439.33 714.17 C 442.27 712.55 439.63 717.46 439.33 714.17 Z" />
</g>
<g id="Group-000000" fill="#000000">
<path fill="rgba(0,0,0,0)" opacity="1.00" d=" M 259.79 721.75 C 258.34 722.24 258.29 718.85 259.74 719.22 C 259.75 719.85 259.78 721.12 259.79 721.75 Z" />
</g>
<g id="Group-000000" fill="#000000">
<path fill="#000000" opacity="1.00" d=" M 526.04 721.17 C 529.34 721.38 524.48 724.15 526.04 721.17 Z" />
</g>
<g id="Group-000000" fill="#000000">
<path fill="#000000" opacity="1.00" d=" M 475.33 722.16 C 478.34 720.57 475.55 725.42 475.33 722.16 Z" />
</g>
<g id="Group-000000" fill="#000000">
<path fill="#000000" opacity="1.00" d=" M 551.33 722.14 C 554.28 720.50 551.61 725.42 551.33 722.14 Z" />
</g>
<g id="Group-000000" fill="#000000">
<path fill="rgba(0,0,0,0)" opacity="1.00" d=" M 459.22 726.14 C 459.68 726.04 460.59 725.85 461.05 725.76 C 462.28 729.09 462.04 733.05 461.39 736.53 C 460.43 738.81 458.84 736.47 458.96 735.04 C 458.64 732.09 458.42 729.02 459.22 726.14 Z" />
</g>
<g id="Group-000000" fill="#000000">
<path fill="rgba(0,0,0,0)" opacity="1.00" d=" M 535.27 727.15 C 536.63 725.83 538.32 727.31 537.92 728.93 C 538.06 731.85 538.58 734.93 537.74 737.78 C 535.90 738.60 535.48 736.50 535.16 735.18 C 534.80 732.51 534.96 729.80 535.27 727.15 Z" />
<path fill="rgba(0,0,0,0)" opacity="1.00" d=" M 546.18 786.21 C 549.59 784.93 548.84 789.86 548.96 791.84 C 548.20 791.88 546.68 791.96 545.92 792.00 C 545.40 790.13 544.68 787.81 546.18 786.21 Z" />
</g>
<g id="Group-000000" fill="#000000">
<path fill="#000000" opacity="1.00" d=" M 485.15 737.26 C 488.45 737.15 483.85 740.37 485.15 737.26 Z" />
</g>
<g id="Group-000000" fill="#000000">
<path fill="#000000" opacity="1.00" d=" M 478.50 741.16 C 479.75 740.24 481.53 742.31 480.39 743.42 C 479.17 744.37 477.65 742.20 478.50 741.16 Z" />
<path fill="#000000" opacity="1.00" d=" M 557.69 865.03 C 558.39 867.98 558.81 871.00 558.87 874.04 C 555.91 873.42 556.82 869.61 556.26 867.36 C 556.62 866.78 557.34 865.61 557.69 865.03 Z" />
</g>
<g id="Group-000000" fill="#000000">
<path fill="#000000" opacity="1.00" d=" M 460.62 776.45 C 460.78 776.41 461.09 776.32 461.24 776.28 C 461.25 778.06 461.69 780.16 460.77 781.82 C 458.94 781.19 459.70 777.79 460.62 776.45 Z" />
</g>
<g id="Group-000000" fill="#000000">
<path fill="rgba(0,0,0,0)" opacity="1.00" d=" M 464.36 776.23 C 464.87 776.77 464.87 776.77 464.36 776.23 Z" />
</g>
<g id="Group-000000" fill="#000000">
<path fill="#000000" opacity="1.00" d=" M 537.29 778.42 C 538.55 778.66 538.76 779.43 537.91 780.72 C 536.63 780.46 536.43 779.69 537.29 778.42 Z" />
</g>
<g id="Group-000000" fill="#000000">
<path fill="rgba(0,0,0,0)" opacity="1.00" d=" M 460.26 784.18 C 460.77 784.70 460.77 784.70 460.26 784.18 Z" />
</g>
<g id="Group-000000" fill="#000000">
<path fill="rgba(0,0,0,0)" opacity="1.00" d=" M 460.38 786.20 C 461.65 785.27 461.38 787.41 461.18 788.03 C 460.79 789.02 461.66 791.33 460.35 791.63 C 459.39 790.06 459.35 787.73 460.38 786.20 Z" />
</g>
<g id="Group-000000" fill="#000000">
<path fill="rgba(0,0,0,0)" opacity="1.00" d=" M 537.60 791.73 C 536.23 791.21 536.25 787.61 537.78 787.24 C 538.43 788.59 538.19 790.37 537.60 791.73 Z" />
</g>
<g id="Group-000000" fill="#000000">
<path fill="#000000" opacity="1.00" d=" M 460.07 793.29 C 463.35 793.32 458.66 796.37 460.07 793.29 Z" />
</g>
<g id="Group-000000" fill="#000000">
<path fill="rgba(0,0,0,0)" opacity="1.00" d=" M 460.25 796.24 C 461.71 796.12 461.65 799.68 460.23 799.62 C 459.53 798.48 459.53 797.35 460.25 796.24 Z" />
</g>
<g id="Group-000000" fill="#000000">
<path fill="rgba(0,0,0,0)" opacity="1.00" d=" M 547.17 800.25 C 548.78 799.68 549.31 800.22 548.76 801.89 C 547.13 802.45 546.60 801.91 547.17 800.25 Z" />
</g>
<g id="Group-000000" fill="#000000">
<path fill="rgba(0,0,0,0)" opacity="1.00" d=" M 539.07 812.42 C 542.36 812.51 537.55 815.45 539.07 812.42 Z" />
</g>
<g id="Group-000000" fill="#000000">
<path fill="#000000" opacity="1.00" d=" M 479.15 861.12 C 480.53 860.63 480.98 861.11 480.51 862.55 C 479.12 863.03 478.67 862.55 479.15 861.12 Z" />
</g>
<g id="Group-000000" fill="#000000">
<path fill="#000000" opacity="1.00" d=" M 478.28 874.08 C 477.72 871.12 475.40 866.79 478.81 864.77 C 478.78 867.68 480.99 871.88 478.28 874.08 Z" />
</g>
<g id="Group-000000" fill="#000000">
<path fill="rgba(0,0,0,0)" opacity="1.00" d=" M 463.16 865.69 C 464.40 865.97 465.02 866.74 465.01 867.99 C 465.20 870.96 465.57 874.07 464.82 876.99 C 463.54 878.74 462.42 876.21 462.43 875.17 C 462.04 872.00 461.89 868.69 463.16 865.69 Z" />
</g>
<g id="Group-000000" fill="#000000">
<path fill="rgba(0,0,0,0)" opacity="1.00" d=" M 542.06 866.98 C 542.42 866.86 543.14 866.64 543.50 866.52 C 545.10 869.40 544.81 872.83 544.73 876.01 C 545.26 877.29 543.30 879.36 542.40 877.67 C 541.42 874.19 541.79 870.52 542.06 866.98 Z" />
</g>
<g id="Group-000000" fill="#000000">
<path fill="#000000" opacity="1.00" d=" M 487.15 883.07 C 487.63 883.29 488.59 883.73 489.06 883.96 C 488.81 908.50 488.81 933.06 488.57 957.61 C 488.06 960.91 487.78 964.25 487.76 967.61 C 487.27 967.49 486.30 967.23 485.82 967.10 C 486.50 940.19 485.75 913.23 486.25 886.31 C 486.53 885.21 486.83 884.13 487.15 883.07 Z" />
</g>
<g id="Group-000000" fill="#000000">
<path fill="#000000" opacity="1.00" d=" M 569.63 889.88 C 569.91 914.80 569.64 939.75 569.61 964.67 C 569.11 965.20 568.09 966.27 567.59 966.80 C 566.35 962.64 567.29 958.25 567.04 954.00 C 566.98 934.47 566.98 914.95 567.01 895.43 C 568.16 893.72 569.11 891.87 569.63 889.88 Z" />
</g>
<g id="Group-000000" fill="#000000">
<path fill="#000000" opacity="1.00" d=" M 0.00 974.27 C 152.00 974.25 303.99 974.22 455.99 974.16 C 470.24 974.47 484.54 973.69 498.76 974.51 L 498.26 973.80 C 506.12 974.78 514.09 973.91 522.00 974.24 C 582.67 974.20 643.35 974.37 704.03 974.46 C 810.69 974.25 917.35 974.21 1024.00 974.42 L 1024.00 976.47 C 913.64 976.95 803.28 976.55 692.92 976.95 C 481.64 976.78 270.33 977.01 59.04 976.81 C 39.36 976.82 19.68 976.76 0.00 976.86 L 0.00 974.27 Z" />
</g>
</g></svg>