<svg xmlns="http://www.w3.org/2000/svg" viewBox="0 0 1024 1024" version="1.1">
<g id="Parent-Group"><g id="Group-rgba(0,0,0,0)" fill="rgba(0,0,0,0)">
<path fill="rgba(0,0,0,0)" opacity="1.00" d=" M 0.00 0.00 L 1024.00 0.00 L 1024.00 684.89 C 975.81 685.17 927.62 685.23 879.43 685.19 C 879.94 666.35 879.30 647.50 879.63 628.66 C 882.13 628.04 885.80 627.98 886.52 624.86 C 887.46 620.50 887.00 613.59 881.61 612.49 C 874.45 611.78 867.23 612.40 860.08 612.89 C 865.41 597.75 871.40 582.85 877.16 567.87 C 881.55 555.83 886.51 544.00 891.26 532.10 C 894.19 525.35 891.36 516.71 885.01 513.00 C 882.45 511.29 879.33 510.98 876.36 510.78 C 876.44 506.60 875.80 502.22 873.26 498.78 C 868.14 491.55 856.66 490.28 849.97 496.00 C 846.83 498.49 845.34 502.34 843.99 505.98 C 830.92 541.32 818.02 576.73 805.20 612.16 C 800.42 611.94 795.44 611.43 790.81 612.88 C 787.35 614.72 787.33 619.49 787.64 622.91 C 787.90 626.20 791.41 627.38 793.91 628.67 C 793.90 637.93 793.93 647.20 794.07 656.46 C 776.72 656.72 759.36 656.75 742.02 656.35 C 728.69 656.52 715.36 656.63 702.03 656.62 C 698.57 656.89 694.95 656.50 691.65 657.72 C 689.43 658.51 688.31 660.81 688.02 663.01 C 686.89 670.38 687.17 677.89 688.09 685.28 C 650.01 685.23 611.94 685.24 573.87 685.41 C 573.20 674.60 573.49 663.76 573.05 652.95 C 573.02 649.57 570.59 646.03 567.00 645.92 C 559.69 645.46 552.35 646.02 545.03 645.82 C 542.14 645.91 538.83 645.46 536.42 647.41 C 534.17 649.18 534.54 652.37 534.50 654.92 C 534.86 665.12 534.79 675.32 534.91 685.53 C 523.18 685.71 511.44 685.51 499.71 685.91 C 502.94 682.51 506.10 678.69 506.97 673.94 C 508.72 666.35 505.12 657.29 497.70 654.20 C 492.82 652.08 487.26 654.15 483.27 657.19 C 475.09 663.94 472.47 676.59 477.68 685.93 C 470.97 685.48 464.24 685.69 457.52 685.77 C 461.37 680.37 463.90 673.66 462.64 666.96 C 460.69 655.24 451.91 646.05 442.42 639.60 C 435.45 634.92 427.79 631.16 419.63 629.06 C 414.70 594.45 409.77 559.83 404.28 525.30 C 412.48 520.64 420.92 516.22 428.27 510.24 C 434.89 504.88 439.60 496.72 439.58 488.07 C 439.44 480.48 434.90 474.13 430.86 468.07 C 423.66 457.17 416.81 446.05 409.85 434.99 C 425.73 424.99 440.85 413.84 456.61 403.65 C 483.78 385.31 511.93 368.45 538.95 349.88 C 541.76 347.93 544.05 345.34 545.70 342.35 C 551.86 343.21 558.06 341.99 564.05 340.58 C 564.90 341.90 565.76 343.22 566.64 344.53 C 567.31 349.37 569.77 353.67 571.96 357.96 C 581.67 376.83 592.50 395.10 603.70 413.11 C 615.29 431.70 626.83 450.35 639.72 468.07 C 643.84 473.30 647.47 479.08 652.76 483.24 C 654.56 484.89 657.18 484.32 659.22 483.50 C 664.11 481.49 668.16 477.95 671.86 474.26 C 678.46 479.97 685.64 484.99 692.50 490.39 C 687.29 497.94 680.20 504.28 676.60 512.84 C 674.75 516.81 675.89 521.47 678.81 524.60 C 675.79 526.39 673.55 529.12 671.51 531.92 C 663.35 531.23 654.63 536.18 652.21 544.23 C 649.94 550.55 651.38 558.91 657.61 562.42 C 664.99 566.59 676.17 565.21 680.62 557.40 C 684.41 551.45 683.80 543.83 680.78 537.70 C 683.37 536.09 685.60 534.00 687.61 531.73 C 696.67 534.26 705.37 529.79 713.18 525.71 C 716.24 529.30 719.17 533.27 723.39 535.57 C 726.53 537.28 729.63 534.81 732.15 533.13 C 736.01 530.30 740.61 528.00 743.21 523.83 C 744.02 518.20 739.95 513.36 737.54 508.61 C 742.36 503.88 746.37 497.88 747.12 491.03 C 747.98 480.50 742.43 470.05 733.73 464.25 C 730.87 462.09 727.33 461.23 723.81 461.01 C 718.68 454.72 713.87 448.17 708.84 441.80 C 714.02 435.45 718.63 427.43 717.05 418.93 C 716.95 416.06 715.36 413.55 713.18 411.79 C 685.14 387.16 657.04 362.58 628.17 338.91 C 619.22 331.58 610.46 323.98 600.93 317.41 C 600.36 317.55 599.23 317.82 598.67 317.96 C 597.46 316.79 596.21 315.68 595.09 314.44 C 600.08 303.51 601.25 290.83 597.80 279.28 C 593.54 263.52 580.96 250.36 565.40 245.42 C 555.23 242.01 544.19 242.38 533.91 245.08 C 528.35 245.96 525.97 239.27 521.09 238.41 C 516.39 239.36 512.00 242.71 509.96 247.06 C 508.41 251.56 512.27 255.31 515.49 257.80 C 506.89 266.94 501.83 279.12 501.21 291.64 C 493.66 293.18 487.58 298.20 481.38 302.44 C 464.74 313.78 448.05 325.03 431.50 336.49 C 406.16 354.27 380.30 371.28 354.55 388.46 C 352.13 390.17 349.13 390.52 346.38 391.41 C 342.56 392.47 339.15 394.52 335.65 396.31 C 325.04 389.64 315.29 381.65 304.29 375.58 C 301.74 374.01 298.58 373.12 295.81 374.70 C 286.45 379.19 279.45 387.49 274.03 396.16 C 270.76 401.11 265.55 404.39 262.38 409.44 C 259.68 413.68 255.99 418.38 257.17 423.72 C 258.52 429.46 261.52 434.60 263.78 440.00 C 254.68 445.04 245.37 449.81 236.88 455.85 C 228.94 461.51 222.39 469.94 221.39 479.89 C 220.51 486.08 222.79 492.13 225.79 497.42 C 220.76 499.81 215.66 503.44 214.34 509.20 C 213.15 513.00 215.21 516.60 217.34 519.58 C 213.34 522.49 208.42 525.22 207.37 530.51 C 199.75 532.60 196.99 540.81 195.87 547.79 C 193.34 563.74 195.18 580.32 200.45 595.55 C 206.68 612.14 217.64 626.49 229.84 639.14 C 233.14 642.62 236.61 645.95 240.37 648.94 C 233.38 654.69 226.71 662.50 226.59 672.03 C 226.32 677.21 228.53 682.09 231.41 686.27 C 187.60 686.34 143.79 686.38 99.99 686.78 C 96.22 686.80 92.30 686.44 88.70 687.76 C 85.74 688.81 84.06 691.92 83.93 694.94 C 83.32 703.29 83.98 711.66 83.83 720.02 C 83.94 726.36 83.46 732.75 84.24 739.06 C 84.61 742.45 87.13 745.99 90.87 745.77 C 102.65 746.03 114.44 745.73 126.22 745.76 C 126.46 814.50 126.25 883.25 126.29 951.99 C 126.40 953.09 126.81 954.82 128.18 954.92 C 130.14 955.81 131.64 953.66 131.56 951.90 C 131.75 943.86 131.58 935.81 131.65 927.77 C 155.53 926.81 179.35 924.62 203.12 922.24 C 203.23 932.52 203.19 942.80 203.14 953.09 C 203.04 954.92 203.51 957.73 205.96 957.44 C 208.77 957.31 208.52 954.04 208.59 952.04 C 208.31 883.22 208.76 814.41 208.61 745.59 C 264.11 745.71 319.61 745.40 375.11 745.30 C 454.61 745.28 534.09 745.08 613.59 744.76 C 613.60 750.11 613.02 755.49 613.60 760.82 C 613.79 763.03 615.92 764.46 617.98 764.76 C 620.46 764.52 622.61 763.08 624.58 761.66 C 632.05 755.93 639.08 749.68 646.27 743.62 C 651.52 746.79 655.80 751.97 662.01 753.26 C 666.95 753.82 668.83 748.31 669.11 744.38 C 685.73 744.86 702.36 744.24 718.99 744.38 C 750.99 744.20 783.00 744.44 815.00 743.92 C 876.95 743.94 938.89 743.56 1000.84 743.38 C 1000.72 794.26 1001.63 845.13 1001.78 896.01 C 1002.04 911.68 1001.79 927.35 1002.09 943.02 C 1002.18 946.14 1001.87 949.33 1002.61 952.41 C 1003.64 953.89 1005.53 953.23 1007.04 953.27 C 1007.64 944.82 1006.95 936.34 1007.13 927.88 C 1012.73 928.96 1018.41 929.68 1024.00 930.87 L 1024.00 1024.00 L 0.00 1024.00 L 0.00 0.00 M 677.22 215.04 C 675.50 216.02 674.26 217.61 672.92 219.02 C 664.74 227.84 656.89 236.96 648.91 245.96 C 646.16 249.61 642.40 252.48 640.23 256.54 C 638.93 259.16 643.18 261.29 644.61 258.79 C 654.77 247.90 664.74 236.82 674.36 225.44 C 676.56 222.65 679.38 220.21 680.68 216.81 C 680.27 215.47 678.57 213.87 677.22 215.04 M 659.28 273.25 C 657.85 274.02 657.50 275.60 657.88 277.09 C 658.82 278.33 660.50 278.44 661.93 278.45 C 675.95 278.27 689.97 278.43 703.99 278.09 C 706.53 277.88 709.81 278.63 711.46 276.11 C 711.61 273.09 708.19 272.76 705.96 272.78 C 692.99 272.56 680.00 272.72 667.03 272.79 C 664.44 272.86 661.80 272.57 659.28 273.25 M 654.29 290.99 C 655.11 293.49 657.10 295.33 658.87 297.19 C 669.54 307.85 680.17 318.55 691.06 328.98 C 692.75 330.14 694.33 332.57 696.66 331.79 C 698.26 331.11 698.28 328.95 697.18 327.82 C 694.60 324.43 691.39 321.59 688.43 318.55 C 680.77 310.89 673.19 303.14 665.44 295.57 C 662.76 292.94 660.23 290.11 657.00 288.13 C 656.03 289.01 654.73 289.68 654.29 290.99 M 365.17 367.19 C 363.30 367.49 363.00 369.63 364.04 371.00 C 366.43 372.34 369.27 371.67 371.84 371.47 C 373.74 371.28 376.97 370.57 375.16 368.06 C 372.01 366.93 368.47 366.56 365.17 367.19 M 312.80 374.10 C 312.02 376.58 315.31 376.63 316.89 376.72 C 324.78 376.72 332.70 376.98 340.58 376.46 C 343.18 376.29 343.43 373.13 341.46 371.84 C 332.95 371.85 324.45 372.13 315.95 372.12 C 314.77 372.17 312.51 372.37 312.80 374.10 M 335.49 385.64 C 333.94 385.82 332.59 386.55 331.83 387.95 C 333.91 391.83 339.55 390.18 342.49 388.14 C 341.88 384.89 337.98 385.09 335.49 385.64 M 728.36 425.91 C 728.88 430.04 731.72 433.50 734.98 435.91 C 736.13 435.08 737.72 434.60 738.23 433.12 C 737.37 429.97 735.57 427.07 733.29 424.76 C 731.83 423.03 729.10 423.96 728.36 425.91 M 719.23 440.28 C 718.13 443.80 721.60 446.81 723.94 449.00 C 724.97 447.96 727.17 446.87 726.09 445.06 C 725.11 442.38 722.55 437.73 719.23 440.28 M 740.20 453.94 C 742.48 458.77 746.04 462.86 748.54 467.58 C 750.81 471.20 752.31 475.59 756.07 478.01 C 757.21 477.07 759.32 476.25 758.60 474.39 C 757.20 470.16 754.37 466.61 752.24 462.74 C 749.54 458.75 747.60 454.18 744.21 450.70 C 742.35 448.24 738.40 451.57 740.20 453.94 M 613.74 533.96 C 614.16 537.41 615.55 540.79 617.61 543.60 C 618.78 545.39 621.66 544.13 621.58 542.11 C 620.80 538.31 619.09 534.78 616.99 531.54 C 615.81 532.07 613.20 531.94 613.74 533.96 M 609.65 564.42 C 609.04 571.67 609.61 578.97 609.43 586.24 C 604.68 585.90 598.88 584.34 594.93 587.86 C 592.14 591.72 593.68 599.05 599.09 599.67 C 605.70 600.43 612.38 600.13 619.02 600.23 C 657.00 600.46 694.96 599.75 732.94 599.72 C 736.97 599.53 742.95 600.30 744.66 595.52 C 745.60 591.85 745.22 586.22 740.93 584.93 C 735.72 584.33 730.45 584.79 725.22 584.75 C 725.19 579.49 725.18 574.22 725.06 568.97 C 724.97 566.48 724.83 563.80 723.27 561.74 C 719.52 556.44 708.88 558.16 708.58 565.27 C 680.88 565.98 653.19 565.37 625.49 565.67 C 625.71 557.09 611.05 556.48 609.65 564.42 M 474.47 564.48 C 470.76 567.39 467.44 570.77 463.71 573.66 C 461.91 575.32 459.50 576.61 458.66 579.05 C 459.21 580.56 460.91 582.12 462.49 580.84 C 468.03 577.03 473.51 572.86 477.93 567.76 C 479.90 565.72 476.39 562.50 474.47 564.48 M 553.84 586.99 C 556.21 590.84 561.16 590.04 564.99 591.00 C 567.13 592.13 570.00 588.97 567.79 587.33 C 564.85 585.57 561.27 585.45 557.98 584.96 C 556.26 584.47 555.15 586.28 553.84 586.99 M 657.45 607.52 C 657.17 607.70 656.60 608.06 656.32 608.25 C 654.83 612.29 655.23 616.82 655.67 621.04 C 655.45 623.42 659.40 624.05 659.91 621.73 C 660.79 617.61 660.92 613.21 660.07 609.08 C 660.00 607.95 658.43 607.04 657.45 607.52 M 752.33 610.37 C 748.36 612.46 747.87 618.74 751.43 621.44 C 754.74 623.86 760.13 622.14 761.15 618.12 C 762.66 613.28 756.81 608.59 752.33 610.37 M 603.04 627.04 C 603.98 628.38 604.90 630.58 606.93 629.47 C 609.86 628.71 612.49 627.11 614.56 624.92 C 613.59 624.08 612.92 622.74 611.63 622.40 C 608.27 622.68 605.36 624.71 603.04 627.04 M 710.16 629.16 C 708.41 629.62 708.21 632.38 709.70 633.21 C 713.00 635.37 716.89 636.39 720.58 637.66 C 722.57 638.66 725.12 636.32 723.90 634.32 C 721.23 631.75 717.43 631.06 714.10 629.72 C 712.83 629.48 711.40 628.38 710.16 629.16 M 591.37 641.29 C 590.10 645.07 589.09 648.98 588.59 652.93 C 588.71 654.85 590.69 655.29 592.06 656.10 C 595.35 652.63 595.89 647.56 596.51 643.04 C 596.80 640.31 592.57 638.68 591.37 641.29 M 652.08 641.98 C 649.89 644.29 649.59 647.94 649.55 651.01 C 649.60 652.95 652.20 654.06 653.50 652.51 C 654.83 649.91 655.43 646.97 655.56 644.08 C 655.76 642.32 653.40 640.75 652.08 641.98 M 696.30 644.42 C 692.22 645.30 690.19 650.82 692.92 654.02 C 696.32 657.96 704.05 655.30 704.09 650.02 C 704.17 646.18 699.92 643.06 696.30 644.42 M 742.12 644.17 C 738.92 645.52 737.64 650.25 740.21 652.80 C 742.71 656.88 750.57 655.02 750.30 649.99 C 750.83 645.70 745.92 642.56 742.12 644.17 M 659.53 665.64 C 657.21 668.80 656.44 672.89 656.83 676.75 C 657.69 677.06 659.43 677.67 660.29 677.98 C 662.28 675.02 663.52 671.52 663.69 667.95 C 664.04 665.77 661.16 664.13 659.53 665.64 M 602.35 667.01 C 600.81 669.05 599.81 671.59 599.88 674.17 C 599.79 676.16 602.19 676.61 603.68 676.02 C 605.39 674.05 606.42 671.52 606.82 668.97 C 607.30 666.67 603.53 664.98 602.35 667.01 M 623.37 667.47 C 620.62 668.70 618.24 671.77 619.24 674.90 C 620.80 680.73 630.20 683.14 633.29 677.31 C 637.26 671.43 629.04 664.35 623.37 667.47 Z" />
<path fill="rgba(0,0,0,0)" opacity="1.00" d=" M 523.76 279.15 C 527.49 271.79 533.91 265.36 542.18 263.56 C 546.21 262.84 550.89 261.97 554.56 264.34 C 556.47 265.73 554.95 268.45 552.83 268.16 C 548.86 268.04 544.75 267.42 540.95 268.95 C 534.46 271.03 530.62 277.02 526.75 282.19 C 525.59 281.33 524.01 280.75 523.76 279.15 Z" />
<path fill="rgba(0,0,0,0)" opacity="1.00" d=" M 498.87 303.93 C 498.79 302.35 500.34 301.42 501.10 300.23 C 503.13 303.73 503.00 307.88 504.27 311.63 C 507.88 322.23 515.84 331.29 525.94 336.15 C 529.38 337.91 533.41 338.70 536.17 341.59 C 534.56 342.42 532.82 343.46 530.97 342.72 C 519.97 339.76 510.16 332.36 504.45 322.48 C 501.16 316.89 498.47 310.54 498.87 303.93 Z" />
<path fill="rgba(0,0,0,0)" opacity="1.00" d=" M 565.61 307.59 C 567.10 305.58 568.95 307.42 569.98 308.85 C 566.49 317.87 555.63 322.87 546.41 320.49 C 542.65 319.17 537.72 318.06 536.11 313.96 C 536.87 313.17 537.65 312.41 538.46 311.67 C 543.22 314.29 548.49 317.17 554.13 315.72 C 559.12 315.14 562.96 311.62 565.61 307.59 Z" />
<path fill="rgba(0,0,0,0)" opacity="1.00" d=" M 591.76 319.46 C 592.73 320.26 593.92 320.92 594.44 322.16 C 589.24 331.09 580.96 337.86 571.78 342.44 C 571.02 341.17 570.28 339.90 569.56 338.63 C 578.40 334.30 587.10 328.42 591.76 319.46 Z" />
<path fill="rgba(0,0,0,0)" opacity="1.00" d=" M 468.39 323.25 C 470.76 321.32 474.56 322.88 474.86 325.93 C 474.45 329.75 468.79 331.43 466.89 327.82 C 465.60 326.19 467.02 324.24 468.39 323.25 Z" />
<path fill="rgba(0,0,0,0)" opacity="1.00" d=" M 600.20 323.63 C 614.34 333.64 627.00 345.57 640.66 356.21 C 636.07 369.47 625.26 379.61 612.96 385.84 C 608.06 388.46 602.94 390.66 597.73 392.59 C 588.57 378.03 580.03 363.01 572.88 347.35 C 584.57 343.17 593.78 334.03 600.20 323.63 Z" />
<path fill="rgba(0,0,0,0)" opacity="1.00" d=" M 455.30 332.32 C 457.63 330.93 460.25 332.69 460.94 335.04 C 461.34 338.86 455.22 341.09 453.34 337.60 C 451.80 335.67 453.42 333.23 455.30 332.32 Z" />
<path fill="rgba(0,0,0,0)" opacity="1.00" d=" M 442.42 341.58 C 445.02 340.27 448.10 343.29 447.24 345.94 C 446.38 349.10 441.47 350.40 439.67 347.33 C 437.85 345.08 440.07 342.19 442.42 341.58 Z" />
<path fill="rgba(0,0,0,0)" opacity="1.00" d=" M 425.81 358.07 C 422.05 354.69 428.18 349.94 431.72 352.00 C 435.67 355.74 429.51 361.72 425.81 358.07 Z" />
<path fill="rgba(0,0,0,0)" opacity="1.00" d=" M 644.90 359.96 C 655.56 368.67 665.87 377.78 676.30 386.76 C 681.16 391.26 686.48 395.25 691.05 400.06 C 687.20 415.09 679.08 429.13 667.12 439.15 C 658.59 446.65 648.41 452.07 637.73 455.80 C 624.32 436.76 612.32 416.77 600.07 396.99 C 618.91 391.19 637.60 379.07 644.90 359.96 Z" />
<path fill="rgba(0,0,0,0)" opacity="1.00" d=" M 275.00 408.77 C 278.00 396.54 287.05 386.68 297.07 379.52 C 298.80 379.97 300.43 380.71 301.93 381.69 C 294.03 391.69 285.11 400.99 275.00 408.77 Z" />
<path fill="rgba(0,0,0,0)" opacity="1.00" d=" M 310.99 386.67 C 312.12 387.11 313.24 387.56 314.37 388.02 C 312.56 395.56 307.08 401.47 301.86 406.91 C 293.18 415.18 282.93 422.48 271.04 425.07 C 268.38 425.59 264.33 426.23 263.09 423.05 C 262.89 418.83 265.11 414.68 268.17 411.87 C 267.78 414.64 266.74 417.32 266.79 420.15 C 268.63 421.58 271.03 420.39 273.07 420.04 C 285.22 416.42 295.38 408.07 303.75 398.79 C 307.04 395.33 309.05 390.97 310.99 386.67 Z" />
<path fill="rgba(0,0,0,0)" opacity="1.00" d=" M 354.49 394.66 C 361.74 393.50 369.58 394.32 376.00 398.06 C 382.69 402.34 386.84 409.36 391.18 415.80 C 404.20 436.17 416.66 456.90 430.08 477.02 C 432.92 481.43 435.06 486.82 433.59 492.12 C 431.83 500.55 424.92 506.46 417.93 510.79 C 399.62 521.78 381.51 533.13 363.29 544.28 C 347.00 554.26 330.81 564.42 314.97 575.12 C 307.36 580.12 298.14 585.19 288.79 582.25 C 282.39 580.68 278.64 574.84 275.51 569.53 C 260.36 544.05 244.91 518.75 230.07 493.08 C 226.66 487.71 225.68 480.83 228.18 474.88 C 232.04 465.10 241.27 459.09 250.05 454.13 C 278.66 438.01 306.54 420.66 334.48 403.43 C 340.69 399.62 347.23 395.97 354.49 394.66 M 324.51 435.57 C 311.08 438.56 299.09 447.57 292.43 459.61 C 287.37 468.94 286.36 480.12 288.38 490.44 C 291.11 503.54 300.46 514.83 312.39 520.68 C 320.94 524.93 330.81 525.67 340.17 524.50 C 362.12 521.09 381.67 500.91 380.37 478.01 C 379.98 461.90 369.69 446.94 355.58 439.56 C 346.09 434.71 334.92 433.21 324.51 435.57 M 266.26 499.28 C 262.02 500.62 259.08 504.62 258.31 508.91 C 256.99 514.79 261.72 521.63 268.00 521.47 C 276.90 522.18 283.97 510.67 279.05 503.15 C 276.50 498.89 270.75 497.32 266.26 499.28 Z" />
<path fill="rgba(0,0,0,0)" opacity="1.00" d=" M 695.52 403.79 C 699.02 406.40 702.37 409.22 705.57 412.19 C 701.74 418.50 693.64 418.31 688.15 422.30 C 691.30 416.43 693.75 410.21 695.52 403.79 Z" />
<path fill="rgba(0,0,0,0)" opacity="1.00" d=" M 640.69 460.01 C 656.11 455.18 670.34 445.87 680.35 433.10 C 677.68 439.16 677.39 445.85 675.48 452.12 C 672.47 463.35 661.45 471.96 649.89 472.33 C 646.34 468.62 643.79 464.08 640.69 460.01 Z" />
<path fill="rgba(0,0,0,0)" opacity="1.00" d=" M 320.13 443.20 C 331.36 438.84 344.52 439.95 354.85 446.15 C 356.25 446.80 357.13 448.04 357.76 449.43 C 352.73 448.31 348.27 445.32 343.06 444.82 C 335.83 443.11 328.38 444.90 321.60 447.50 C 311.53 451.34 303.09 459.64 299.90 470.03 C 295.53 484.36 301.10 502.07 314.71 509.33 C 332.46 518.52 356.82 510.94 366.18 493.24 C 369.78 486.12 371.24 477.68 369.20 469.88 C 368.87 467.61 367.66 465.12 369.10 462.99 C 371.21 464.06 371.88 466.46 372.54 468.55 C 375.09 477.42 374.86 487.38 370.43 495.62 C 365.48 505.92 355.89 513.41 345.25 517.16 C 333.08 521.18 318.95 519.02 308.67 511.31 C 301.78 506.01 296.37 498.51 294.43 489.97 C 292.85 482.59 292.78 474.69 295.57 467.59 C 299.75 456.39 309.24 447.75 320.13 443.20 Z" />
<path fill="rgba(0,0,0,0)" opacity="1.00" d=" M 332.55 450.70 C 341.64 449.16 351.67 452.30 357.71 459.40 C 364.85 467.71 366.35 480.36 361.17 490.05 C 355.33 501.18 342.48 507.87 330.04 507.21 C 322.91 507.29 315.88 504.11 311.12 498.82 C 303.19 489.41 301.82 474.47 309.28 464.38 C 314.79 456.95 323.45 452.08 332.55 450.70 M 336.46 466.57 C 331.08 469.00 326.05 472.70 322.71 477.62 C 319.64 481.83 322.81 488.42 327.90 488.96 C 332.03 489.28 335.80 487.07 339.39 485.32 C 342.86 483.27 347.13 480.57 347.23 476.05 C 347.63 470.63 341.94 464.83 336.46 466.57 Z" />
<path fill="rgba(0,0,0,0)" opacity="1.00" d=" M 720.49 467.60 C 723.95 466.25 728.01 466.75 731.08 468.84 C 737.40 473.08 741.64 480.34 742.11 487.95 C 742.30 495.55 737.40 502.14 731.75 506.72 C 722.01 514.70 711.33 521.77 699.53 526.29 C 692.34 529.63 684.60 524.05 680.81 518.15 C 680.94 513.62 683.82 509.90 686.49 506.48 C 690.06 501.50 694.38 497.11 697.85 492.05 C 701.62 486.51 705.61 481.12 709.88 475.94 C 712.77 472.46 716.19 469.24 720.49 467.60 M 704.39 487.22 C 701.51 490.73 699.56 494.90 697.91 499.10 C 700.12 502.03 703.41 504.05 707.05 504.66 C 711.16 502.90 712.60 498.11 714.68 494.50 C 716.52 491.73 713.52 489.01 711.24 487.77 C 709.18 486.80 706.36 485.24 704.39 487.22 Z" />
<path fill="rgba(0,0,0,0)" opacity="1.00" d=" M 849.47 505.39 C 850.98 501.31 854.44 497.45 859.11 497.49 C 864.46 496.79 869.72 500.69 870.99 505.85 C 871.78 509.42 870.31 512.91 869.03 516.17 C 865.16 525.77 861.50 535.45 858.09 545.21 C 849.23 567.76 841.59 590.76 832.78 613.32 C 829.22 613.28 825.67 613.17 822.12 613.11 C 826.76 599.90 832.13 586.97 836.92 573.82 C 838.73 568.70 841.20 563.81 844.59 559.55 C 849.25 553.60 852.93 546.91 855.74 539.91 C 857.64 534.85 854.90 527.88 849.05 527.29 C 844.40 526.61 841.19 530.78 839.56 534.57 C 835.37 543.40 834.02 553.33 834.02 563.02 C 834.01 567.50 832.24 571.69 830.76 575.84 C 826.04 588.17 821.30 600.48 816.87 612.92 C 814.60 612.79 812.33 612.68 810.07 612.57 C 815.53 598.36 820.43 583.94 825.81 569.70 C 829.63 559.43 833.74 549.25 836.86 538.73 C 841.43 527.76 844.96 516.38 849.47 505.39 Z" />
<path fill="rgba(0,0,0,0)" opacity="1.00" d=" M 268.42 504.37 C 270.37 502.86 273.36 503.92 274.15 506.19 C 275.28 508.16 273.82 510.57 271.88 511.33 C 268.40 511.95 264.53 506.54 268.42 504.37 Z" />
<path fill="rgba(0,0,0,0)" opacity="1.00" d=" M 718.00 523.04 C 723.35 519.59 728.55 515.91 733.46 511.85 C 735.12 515.07 736.58 518.39 737.87 521.78 C 732.33 522.09 726.77 524.06 723.23 528.52 C 721.55 526.63 719.79 524.81 718.00 523.04 Z" />
<path fill="rgba(0,0,0,0)" opacity="1.00" d=" M 874.58 515.84 C 878.46 515.58 882.86 516.42 885.22 519.84 C 888.26 523.58 887.65 528.61 885.79 532.73 C 874.63 559.31 865.03 586.51 854.50 613.33 C 851.65 613.45 848.80 613.42 845.97 613.42 C 848.50 606.43 851.04 599.45 853.58 592.46 C 855.34 587.34 857.16 582.04 860.84 577.92 C 864.92 573.47 868.01 568.24 871.05 563.06 C 872.86 559.92 874.12 555.93 872.37 552.49 C 870.75 548.61 866.12 547.32 862.28 547.93 C 866.30 537.20 870.05 526.37 874.58 515.84 Z" />
<path fill="rgba(0,0,0,0)" opacity="1.00" d=" M 212.69 530.83 C 214.51 527.95 217.34 525.99 220.23 524.30 C 222.84 528.85 225.21 533.54 228.03 537.96 C 225.79 539.55 223.45 541.01 220.99 542.27 C 217.18 539.34 214.54 535.22 212.69 530.83 Z" />
<path fill="rgba(0,0,0,0)" opacity="1.00" d=" M 680.91 528.82 C 681.77 527.53 682.90 528.38 683.94 528.85 C 681.33 531.12 679.10 534.01 675.73 535.19 C 675.27 531.77 678.89 530.75 680.91 528.82 Z" />
<path fill="rgba(0,0,0,0)" opacity="1.00" d=" M 845.65 533.66 C 847.61 532.27 850.82 533.35 851.11 535.89 C 851.93 539.18 847.62 542.70 844.79 540.31 C 842.12 538.78 843.56 535.00 845.65 533.66 Z" />
<path fill="rgba(0,0,0,0)" opacity="1.00" d=" M 200.36 551.87 C 201.39 545.78 203.18 538.97 208.92 535.66 C 210.80 538.72 212.89 541.65 215.25 544.37 C 210.41 547.47 209.92 553.81 209.14 558.98 C 207.88 577.51 214.99 595.69 224.95 611.01 C 232.27 622.28 241.50 632.24 251.54 641.12 C 249.34 642.68 247.29 644.45 245.23 646.19 C 233.14 636.08 222.60 624.16 213.90 611.02 C 202.74 593.64 198.02 572.35 200.36 551.87 Z" />
<path fill="rgba(0,0,0,0)" opacity="1.00" d=" M 665.45 538.52 C 671.71 533.87 680.12 542.18 678.36 548.92 C 677.66 557.09 667.72 563.23 660.45 558.73 C 654.25 555.17 654.70 545.56 660.08 541.46 C 659.27 544.87 657.38 548.52 659.15 551.96 C 661.01 557.07 668.19 558.81 672.25 555.29 C 676.63 552.12 677.58 544.64 673.11 541.15 C 670.99 539.25 668.10 539.00 665.45 538.52 Z" />
<path fill="rgba(0,0,0,0)" opacity="1.00" d=" M 218.16 547.62 C 222.91 547.64 227.12 545.42 230.69 542.45 C 234.41 548.13 237.11 555.19 243.38 558.57 C 249.20 560.65 255.39 557.71 259.90 554.05 C 265.85 563.87 270.95 574.37 278.67 582.98 C 278.59 598.55 277.92 614.11 277.80 629.69 C 270.76 631.49 263.89 634.14 257.69 637.98 C 241.73 624.38 227.19 607.99 219.96 588.00 C 215.16 575.23 212.47 560.56 218.16 547.62 Z" />
<path fill="rgba(0,0,0,0)" opacity="1.00" d=" M 664.18 545.28 C 665.36 543.28 667.85 543.54 669.77 544.03 C 670.74 546.04 672.08 548.53 670.55 550.65 C 669.29 553.02 666.31 552.85 664.13 552.13 C 663.15 550.00 661.99 547.09 664.18 545.28 Z" />
<path fill="rgba(0,0,0,0)" opacity="1.00" d=" M 862.15 554.01 C 864.53 552.72 867.83 554.27 867.99 557.07 C 867.73 559.40 865.61 561.64 863.12 561.10 C 860.02 560.46 859.64 555.62 862.15 554.01 Z" />
<path fill="rgba(0,0,0,0)" opacity="1.00" d=" M 393.08 565.81 C 397.37 565.25 401.44 563.55 405.76 563.32 C 405.87 564.25 406.07 566.13 406.18 567.06 C 398.97 570.39 390.95 571.23 383.15 572.03 C 364.45 573.29 345.70 574.23 326.96 573.94 C 330.04 571.97 333.08 569.03 337.00 569.26 C 340.34 569.33 343.67 569.28 347.01 569.07 C 362.37 568.18 377.84 568.16 393.08 565.81 Z" />
<path fill="rgba(0,0,0,0)" opacity="1.00" d=" M 614.32 570.14 C 614.66 568.03 615.25 565.95 616.58 564.23 C 617.39 564.56 619.01 565.23 619.83 565.56 C 619.95 567.33 620.04 569.08 620.13 570.87 C 618.17 570.74 616.24 570.45 614.32 570.14 Z" />
<path fill="rgba(0,0,0,0)" opacity="1.00" d=" M 714.98 565.25 C 716.72 564.63 718.18 564.99 719.35 566.34 C 719.72 569.73 720.13 573.11 720.13 576.54 C 718.09 576.38 716.07 576.19 714.05 575.99 C 714.02 573.70 713.97 571.42 713.92 569.15 C 714.87 569.16 716.78 569.17 717.73 569.18 C 716.78 567.89 715.85 566.56 714.98 565.25 Z" />
<path fill="rgba(0,0,0,0)" opacity="1.00" d=" M 624.66 571.20 C 653.21 571.23 681.77 570.97 710.33 571.03 C 710.30 572.69 710.27 574.37 710.24 576.05 C 681.73 576.43 653.22 576.44 624.72 575.89 C 624.68 574.32 624.65 572.76 624.66 571.20 Z" />
<path fill="rgba(0,0,0,0)" opacity="1.00" d=" M 614.87 572.36 C 616.57 572.21 618.28 572.07 620.01 572.06 C 620.08 573.85 620.14 575.64 620.21 577.44 C 618.49 577.19 616.78 576.95 615.07 576.70 C 614.99 575.24 614.92 573.80 614.87 572.36 Z" />
<path fill="rgba(0,0,0,0)" opacity="1.00" d=" M 847.52 587.48 C 848.88 583.98 850.05 580.36 852.07 577.17 C 852.14 580.87 851.15 584.48 849.97 587.97 C 846.85 596.40 843.65 604.82 840.67 613.30 C 839.97 613.34 838.57 613.41 837.87 613.45 C 841.33 604.89 844.35 596.15 847.52 587.48 Z" />
<path fill="rgba(0,0,0,0)" opacity="1.00" d=" M 618.46 581.63 C 618.90 581.27 619.77 580.55 620.21 580.18 C 620.30 582.07 620.37 583.97 620.47 585.87 C 618.67 585.75 616.88 585.64 615.10 585.55 C 615.02 584.13 614.95 582.72 614.89 581.32 C 615.78 581.40 617.57 581.56 618.46 581.63 Z" />
<path fill="rgba(0,0,0,0)" opacity="1.00" d=" M 715.10 579.96 C 715.57 580.21 716.49 580.69 716.95 580.93 C 716.89 581.53 716.77 582.73 716.71 583.33 C 717.49 581.99 718.18 580.59 719.07 579.33 C 719.38 581.00 719.71 582.68 720.06 584.36 C 718.15 584.53 716.24 584.68 714.34 584.87 C 714.60 583.23 714.86 581.60 715.10 579.96 Z" />
<path fill="rgba(0,0,0,0)" opacity="1.00" d=" M 625.43 581.48 C 653.62 581.03 681.81 581.82 710.00 581.24 C 709.97 582.43 709.95 583.62 709.93 584.82 C 681.55 584.80 653.17 584.82 624.79 585.32 C 624.94 584.02 625.15 582.74 625.43 581.48 Z" />
<path fill="rgba(0,0,0,0)" opacity="1.00" d=" M 613.03 590.81 C 632.68 590.86 652.32 590.10 671.97 590.20 C 683.33 590.39 694.69 590.04 706.05 590.16 C 717.14 590.27 728.24 589.46 739.32 590.15 C 739.30 591.55 739.28 592.96 739.25 594.38 C 728.85 594.84 718.43 594.48 708.02 594.56 C 676.00 594.62 643.99 595.27 611.97 595.02 C 607.56 594.69 602.98 595.56 598.74 594.01 C 598.78 593.25 598.86 591.72 598.90 590.95 C 603.60 590.50 608.32 590.84 613.03 590.81 Z" />
<path fill="rgba(0,0,0,0)" opacity="1.00" d=" M 755.31 615.28 C 756.60 615.39 756.74 617.81 755.38 617.93 C 754.06 617.78 753.93 615.41 755.31 615.28 Z" />
<path fill="rgba(0,0,0,0)" opacity="1.00" d=" M 793.27 617.38 C 795.79 616.62 798.48 616.90 801.09 616.95 C 818.70 618.02 836.33 618.47 853.97 618.18 C 862.99 617.85 872.01 616.94 881.04 617.44 C 881.30 619.45 881.47 621.49 881.60 623.53 C 860.41 624.36 839.20 624.44 818.00 623.94 C 809.50 623.73 800.95 623.81 792.50 622.66 C 792.65 620.88 792.72 619.08 793.27 617.38 Z" />
<path fill="rgba(0,0,0,0)" opacity="1.00" d=" M 798.91 628.12 C 820.54 629.15 842.21 629.26 863.86 629.09 C 864.21 647.79 864.28 666.50 863.90 685.20 C 843.14 685.35 822.39 685.30 801.64 685.26 C 803.30 677.64 802.62 669.74 801.41 662.11 C 801.11 659.88 800.12 657.86 798.85 656.04 C 799.00 646.73 798.94 637.42 798.91 628.12 Z" />
<path fill="rgba(0,0,0,0)" opacity="1.00" d=" M 868.87 628.68 C 870.69 628.64 872.54 628.62 874.39 628.60 C 874.86 647.47 874.47 666.37 874.61 685.25 C 872.71 685.26 870.82 685.25 868.94 685.23 C 868.93 666.38 868.99 647.53 868.87 628.68 Z" />
<path fill="rgba(0,0,0,0)" opacity="1.00" d=" M 387.94 636.01 C 396.93 634.78 406.40 634.76 414.67 630.57 C 415.66 631.89 416.17 633.44 416.49 635.06 C 409.75 639.10 401.72 639.63 394.13 640.75 C 367.57 643.72 340.79 645.04 314.07 644.18 C 303.00 643.57 291.85 643.20 280.95 641.07 C 278.60 640.90 276.96 637.50 279.73 636.45 C 288.67 638.32 297.84 638.52 306.92 639.15 C 333.96 639.92 361.06 639.03 387.94 636.01 Z" />
<path fill="rgba(0,0,0,0)" opacity="1.00" d=" M 540.03 651.46 C 548.71 651.36 557.40 651.38 566.08 651.29 C 567.97 650.89 568.78 652.72 569.33 654.17 C 559.57 654.27 549.76 654.97 540.05 653.74 C 540.05 653.17 540.04 652.03 540.03 651.46 Z" />
<path fill="rgba(0,0,0,0)" opacity="1.00" d=" M 539.82 657.18 C 549.44 656.54 559.13 656.86 568.69 655.45 C 568.25 657.42 567.61 659.88 565.15 660.01 C 556.82 660.74 548.38 660.55 540.07 659.69 L 539.55 658.95 C 539.61 658.51 539.75 657.62 539.82 657.18 Z" />
<path fill="rgba(0,0,0,0)" opacity="1.00" d=" M 488.08 661.15 C 489.78 658.88 492.91 657.21 495.72 658.46 C 501.69 660.66 504.35 668.27 502.07 674.01 C 500.08 680.24 494.24 686.64 487.10 685.32 C 481.98 685.34 480.65 679.33 480.81 675.28 C 482.88 678.32 484.74 682.57 489.01 682.75 C 496.03 682.61 501.55 674.34 499.13 667.76 C 498.50 665.37 497.07 663.18 494.98 661.85 C 492.96 660.43 490.34 661.44 488.08 661.15 Z" />
<path fill="rgba(0,0,0,0)" opacity="1.00" d=" M 791.46 661.96 C 792.37 661.21 793.57 661.66 794.63 661.61 C 796.64 668.47 797.81 675.93 795.86 682.94 C 795.70 684.34 794.19 684.77 793.23 685.47 C 792.88 680.99 793.89 676.50 793.23 672.04 C 792.93 668.63 791.99 665.33 791.46 661.96 Z" />
<path fill="rgba(0,0,0,0)" opacity="1.00" d=" M 538.85 665.89 C 548.91 665.80 559.18 665.79 568.85 662.60 C 568.81 664.22 568.85 665.87 568.56 667.50 C 561.83 669.14 554.84 669.45 547.94 669.66 C 544.61 669.51 539.87 669.96 538.85 665.89 Z" />
<path fill="rgba(0,0,0,0)" opacity="1.00" d=" M 739.81 661.61 C 741.54 661.65 744.05 661.60 744.08 663.99 C 745.42 670.80 745.61 678.30 742.86 684.81 C 742.23 686.92 737.98 686.54 739.36 684.00 C 741.40 676.69 741.29 669.00 739.81 661.61 Z" />
<path fill="rgba(0,0,0,0)" opacity="1.00" d=" M 489.38 666.41 C 490.41 665.86 491.52 665.72 492.70 666.00 C 497.21 669.36 494.58 677.98 488.92 678.16 C 483.93 676.21 485.08 668.57 489.38 666.41 Z" />
<path fill="rgba(0,0,0,0)" opacity="1.00" d=" M 331.39 670.46 C 334.76 667.50 341.24 670.98 339.65 675.46 C 338.68 679.54 332.90 680.62 330.18 677.69 C 328.43 675.44 329.27 672.14 331.39 670.46 Z" />
<path fill="rgba(0,0,0,0)" opacity="1.00" d=" M 352.64 675.06 C 351.91 671.71 355.29 669.57 358.24 669.57 C 359.48 671.30 361.13 673.57 359.67 675.70 C 358.22 678.57 353.31 678.41 352.64 675.06 Z" />
<path fill="rgba(0,0,0,0)" opacity="1.00" d=" M 753.71 671.14 C 759.42 671.14 765.52 670.08 771.00 671.95 C 771.12 672.77 771.35 674.41 771.46 675.23 C 765.54 675.92 759.54 675.37 753.63 674.84 C 753.65 673.60 753.68 672.37 753.71 671.14 Z" />
<path fill="rgba(0,0,0,0)" opacity="1.00" d=" M 538.83 674.84 C 548.97 673.94 559.26 674.28 569.16 671.50 C 569.09 672.87 569.02 674.24 568.95 675.62 C 559.55 678.42 549.60 678.46 539.89 677.93 C 539.52 676.89 539.17 675.86 538.83 674.84 Z" />
<path fill="rgba(0,0,0,0)" opacity="1.00" d=" M 625.53 671.76 C 626.81 672.04 629.45 672.03 629.12 674.01 C 629.66 675.81 627.08 675.58 626.14 676.33 C 625.38 675.57 624.63 674.82 623.89 674.07 C 624.30 673.49 625.12 672.34 625.53 671.76 Z" />
<path fill="rgba(0,0,0,0)" opacity="1.00" d=" M 548.90 683.11 C 556.13 682.87 563.22 681.50 570.33 680.27 C 570.43 684.62 565.43 685.52 562.04 685.53 C 554.25 685.09 546.41 685.74 538.65 684.79 C 541.70 682.85 545.48 683.57 548.90 683.11 Z" />
<path fill="rgba(0,0,0,0)" opacity="1.00" d=" M 675.98 690.76 C 791.98 690.61 907.99 690.24 1024.00 690.22 L 1024.00 737.51 C 907.34 738.04 790.67 738.10 674.01 738.55 C 669.90 738.91 669.17 733.98 668.43 730.95 C 667.97 719.96 668.14 708.95 667.84 697.95 C 667.21 693.53 671.90 690.24 675.98 690.76 Z" />
<path fill="rgba(0,0,0,0)" opacity="1.00" d=" M 217.34 691.43 C 348.22 690.68 479.10 690.98 609.99 690.75 C 612.52 691.58 614.08 694.33 613.89 696.94 C 613.91 708.30 613.85 719.66 613.83 731.02 C 613.72 733.45 613.90 736.10 612.57 738.27 C 607.55 739.94 602.24 738.51 597.10 738.74 C 579.08 739.32 561.04 739.00 543.01 739.15 C 491.01 739.26 439.01 739.28 387.01 739.35 C 291.66 739.76 196.32 739.86 100.97 740.26 C 97.43 740.14 93.80 740.72 90.33 739.87 C 88.83 737.54 89.14 734.65 88.98 732.02 C 88.89 720.68 88.82 709.35 88.86 698.01 C 88.65 695.13 90.56 691.61 93.85 691.94 C 135.01 691.83 176.17 691.64 217.34 691.43 M 106.36 699.45 C 103.82 700.83 102.56 704.87 105.22 706.78 C 107.31 709.27 111.43 707.99 112.32 705.04 C 113.71 701.68 109.71 697.38 106.36 699.45 Z" />
<path fill="rgba(0,0,0,0)" opacity="1.00" d=" M 617.43 690.68 C 633.36 690.74 649.34 690.96 665.24 690.28 C 663.21 691.95 662.36 694.43 662.41 697.00 C 662.26 714.03 663.47 731.07 662.87 748.09 C 658.43 745.26 654.09 742.31 649.94 739.08 C 648.49 738.00 646.65 736.47 644.84 737.77 C 639.74 740.87 635.78 745.44 631.11 749.10 C 627.00 752.19 623.27 755.74 619.07 758.72 C 618.67 738.15 619.54 717.58 619.12 697.01 C 619.19 694.76 618.33 692.67 617.43 690.68 Z" />
<path fill="rgba(0,0,0,0)" opacity="1.00" d=" M 1005.99 743.35 C 1011.99 743.32 1017.99 743.19 1024.00 743.18 L 1024.00 831.46 C 1018.30 830.28 1012.52 829.66 1006.77 828.87 C 1006.06 800.37 1006.26 771.86 1005.99 743.35 Z" />
<path fill="rgba(0,0,0,0)" opacity="1.00" d=" M 131.64 745.74 C 155.52 745.83 179.40 745.72 203.27 745.67 C 203.34 773.02 203.45 800.37 203.30 827.71 C 198.54 827.29 193.79 825.84 188.99 826.41 C 186.20 826.55 186.18 830.67 188.84 831.05 C 193.58 832.21 198.53 831.96 203.35 832.69 C 203.27 837.15 203.24 841.61 203.20 846.07 C 198.09 845.85 193.00 844.73 187.88 845.06 C 185.93 845.06 186.14 847.45 185.71 848.76 C 191.25 851.05 197.40 850.44 203.23 851.23 C 203.19 860.68 203.15 870.12 203.16 879.57 C 179.32 881.53 155.44 882.87 131.62 884.93 C 131.74 871.62 131.66 858.30 131.78 844.99 C 140.77 846.26 149.84 846.85 158.89 847.58 C 161.82 847.73 164.79 848.08 167.71 847.63 C 168.87 846.75 168.82 845.10 169.37 843.89 C 167.65 843.25 165.90 842.62 164.05 842.53 C 153.31 841.79 142.55 841.14 131.84 839.94 C 131.83 835.30 131.87 830.67 131.97 826.04 C 142.27 827.32 152.65 827.77 162.95 829.07 C 165.17 829.27 168.37 829.87 169.03 826.97 C 168.51 825.17 166.85 824.15 165.06 824.03 C 154.06 822.41 142.93 821.88 131.85 821.14 C 131.60 796.01 131.97 770.87 131.64 745.74 Z" />
<path fill="rgba(0,0,0,0)" opacity="1.00" d=" M 1006.58 833.60 C 1012.39 834.42 1018.17 835.52 1024.00 836.25 L 1024.00 883.82 C 1018.41 882.33 1012.67 881.55 1007.06 880.19 C 1006.83 864.66 1006.84 849.13 1006.58 833.60 Z" />
<path fill="rgba(0,0,0,0)" opacity="1.00" d=" M 131.71 889.56 C 155.56 888.27 179.36 886.27 203.17 884.50 C 203.29 895.37 203.20 906.25 203.31 917.12 C 179.46 919.47 155.60 921.76 131.67 922.98 C 131.73 911.84 131.74 900.70 131.71 889.56 Z" />
<path fill="rgba(0,0,0,0)" opacity="1.00" d=" M 1006.95 885.29 C 1012.62 886.47 1018.33 887.53 1024.00 888.75 L 1024.00 925.93 C 1018.43 924.62 1012.73 923.99 1007.12 922.91 C 1007.11 910.37 1006.98 897.83 1006.95 885.29 Z" />
</g>
<g id="Group-000000" fill="#000000">
<path fill="#000000" opacity="1.00" d=" M 677.22 215.04 C 678.57 213.87 680.27 215.47 680.68 216.81 C 679.38 220.21 676.56 222.65 674.36 225.44 C 664.74 236.82 654.77 247.90 644.61 258.79 C 643.18 261.29 638.93 259.16 640.23 256.54 C 642.40 252.48 646.16 249.61 648.91 245.96 C 656.89 236.96 664.74 227.84 672.92 219.02 C 674.26 217.61 675.50 216.02 677.22 215.04 Z" />
<path fill="#000000" opacity="1.00" d=" M 509.96 247.06 C 512.00 242.71 516.39 239.36 521.09 238.41 C 525.97 239.27 528.35 245.96 533.91 245.08 C 544.19 242.38 555.23 242.01 565.40 245.42 C 580.96 250.36 593.54 263.52 597.80 279.28 C 601.25 290.83 600.08 303.51 595.09 314.44 C 596.21 315.68 597.46 316.79 598.67 317.96 C 599.23 317.82 600.36 317.55 600.93 317.41 C 610.46 323.98 619.22 331.58 628.17 338.91 C 657.04 362.58 685.14 387.16 713.18 411.79 C 715.36 413.55 716.95 416.06 717.05 418.93 C 718.63 427.43 714.02 435.45 708.84 441.80 C 713.87 448.17 718.68 454.72 723.81 461.01 C 727.33 461.23 730.87 462.09 733.73 464.25 C 742.43 470.05 747.98 480.50 747.12 491.03 C 746.37 497.88 742.36 503.88 737.54 508.61 C 739.95 513.36 744.02 518.20 743.21 523.83 C 740.61 528.00 736.01 530.30 732.15 533.13 C 729.63 534.81 726.53 537.28 723.39 535.57 C 719.17 533.27 716.24 529.30 713.18 525.71 C 705.37 529.79 696.67 534.26 687.61 531.73 C 685.60 534.00 683.37 536.09 680.78 537.70 C 683.80 543.83 684.41 551.45 680.62 557.40 C 676.17 565.21 664.99 566.59 657.61 562.42 C 651.38 558.91 649.94 550.55 652.21 544.23 C 654.63 536.18 663.35 531.23 671.51 531.92 C 673.55 529.12 675.79 526.39 678.81 524.60 C 675.89 521.47 674.75 516.81 676.60 512.84 C 680.20 504.28 687.29 497.94 692.50 490.39 C 685.64 484.99 678.46 479.97 671.86 474.26 C 668.16 477.95 664.11 481.49 659.22 483.50 C 657.18 484.32 654.56 484.89 652.76 483.24 C 647.47 479.08 643.84 473.30 639.72 468.07 C 626.83 450.35 615.29 431.70 603.70 413.11 C 592.50 395.10 581.67 376.83 571.96 357.96 C 569.77 353.67 567.31 349.37 566.64 344.53 C 565.76 343.22 564.90 341.90 564.05 340.58 C 558.06 341.99 551.86 343.21 545.70 342.35 C 544.05 345.34 541.76 347.93 538.95 349.88 C 511.93 368.45 483.78 385.31 456.61 403.65 C 440.85 413.84 425.73 424.99 409.85 434.99 C 416.81 446.05 423.66 457.17 430.86 468.07 C 434.90 474.13 439.44 480.48 439.58 488.07 C 439.60 496.72 434.89 504.88 428.27 510.24 C 420.92 516.22 412.48 520.64 404.28 525.30 C 409.77 559.83 414.70 594.45 419.63 629.06 C 427.79 631.16 435.45 634.92 442.42 639.60 C 451.91 646.05 460.69 655.24 462.64 666.96 C 463.90 673.66 461.37 680.37 457.52 685.77 C 464.24 685.69 470.97 685.48 477.68 685.93 C 472.47 676.59 475.09 663.94 483.27 657.19 C 487.26 654.15 492.82 652.08 497.70 654.20 C 505.12 657.29 508.72 666.35 506.97 673.94 C 506.10 678.69 502.94 682.51 499.71 685.91 C 511.44 685.51 523.18 685.71 534.91 685.53 C 534.79 675.32 534.86 665.12 534.50 654.92 C 534.54 652.37 534.17 649.18 536.42 647.41 C 538.83 645.46 542.14 645.91 545.03 645.82 C 552.35 646.02 559.69 645.46 567.00 645.92 C 570.59 646.03 573.02 649.57 573.05 652.95 C 573.49 663.76 573.20 674.60 573.87 685.41 C 611.94 685.24 650.01 685.23 688.09 685.28 C 687.17 677.89 686.89 670.38 688.02 663.01 C 688.31 660.81 689.43 658.51 691.65 657.72 C 694.95 656.50 698.57 656.89 702.03 656.62 C 715.36 656.63 728.69 656.52 742.02 656.35 C 759.36 656.75 776.72 656.72 794.07 656.46 C 793.93 647.20 793.90 637.93 793.91 628.67 C 791.41 627.38 787.90 626.20 787.64 622.91 C 787.33 619.49 787.35 614.72 790.81 612.88 C 795.44 611.43 800.42 611.94 805.20 612.16 C 818.02 576.73 830.92 541.32 843.99 505.98 C 845.34 502.34 846.83 498.49 849.97 496.00 C 856.66 490.28 868.14 491.55 873.26 498.78 C 875.80 502.22 876.44 506.60 876.36 510.78 C 879.33 510.98 882.45 511.29 885.01 513.00 C 891.36 516.71 894.19 525.35 891.26 532.10 C 886.51 544.00 881.55 555.83 877.16 567.87 C 871.40 582.85 865.41 597.75 860.08 612.89 C 867.23 612.40 874.45 611.78 881.61 612.49 C 887.00 613.59 887.46 620.50 886.52 624.86 C 885.80 627.98 882.13 628.04 879.63 628.66 C 879.30 647.50 879.94 666.35 879.43 685.19 C 927.62 685.23 975.81 685.17 1024.00 684.89 L 1024.00 690.22 C 907.99 690.24 791.98 690.61 675.98 690.76 C 671.90 690.24 667.21 693.53 667.84 697.95 C 668.14 708.95 667.97 719.96 668.43 730.95 C 669.17 733.98 669.90 738.91 674.01 738.55 C 790.67 738.10 907.34 738.04 1024.00 737.51 L 1024.00 743.18 C 1017.99 743.19 1011.99 743.32 1005.99 743.35 C 1006.26 771.86 1006.06 800.37 1006.77 828.87 C 1012.52 829.66 1018.30 830.28 1024.00 831.46 L 1024.00 836.25 C 1018.17 835.52 1012.39 834.42 1006.58 833.60 C 1006.84 849.13 1006.83 864.66 1007.06 880.19 C 1012.67 881.55 1018.41 882.33 1024.00 883.82 L 1024.00 888.75 C 1018.33 887.53 1012.62 886.47 1006.95 885.29 C 1006.98 897.83 1007.11 910.37 1007.12 922.91 C 1012.73 923.99 1018.43 924.62 1024.00 925.93 L 1024.00 930.87 C 1018.41 929.68 1012.73 928.96 1007.13 927.88 C 1006.95 936.34 1007.64 944.82 1007.04 953.27 C 1005.53 953.23 1003.64 953.89 1002.61 952.41 C 1001.87 949.33 1002.18 946.14 1002.09 943.02 C 1001.79 927.35 1002.04 911.68 1001.78 896.01 C 1001.63 845.13 1000.72 794.26 1000.84 743.38 C 938.89 743.56 876.95 743.94 815.00 743.92 C 783.00 744.44 750.99 744.20 718.99 744.38 C 702.36 744.24 685.73 744.86 669.11 744.38 C 668.83 748.31 666.95 753.82 662.01 753.26 C 655.80 751.97 651.52 746.79 646.27 743.62 C 639.08 749.68 632.05 755.93 624.58 761.66 C 622.61 763.08 620.46 764.52 617.98 764.76 C 615.92 764.46 613.79 763.03 613.60 760.82 C 613.02 755.49 613.60 750.11 613.59 744.76 C 534.09 745.08 454.61 745.28 375.11 745.30 C 319.61 745.40 264.11 745.71 208.61 745.59 C 208.76 814.41 208.31 883.22 208.59 952.04 C 208.52 954.04 208.77 957.31 205.96 957.44 C 203.51 957.73 203.04 954.92 203.14 953.09 C 203.19 942.80 203.23 932.52 203.12 922.24 C 179.35 924.62 155.53 926.81 131.65 927.77 C 131.58 935.81 131.75 943.86 131.56 951.90 C 131.64 953.66 130.14 955.81 128.18 954.92 C 126.81 954.82 126.40 953.09 126.29 951.99 C 126.25 883.25 126.46 814.50 126.22 745.76 C 114.44 745.73 102.65 746.03 90.87 745.77 C 87.13 745.99 84.61 742.45 84.24 739.06 C 83.46 732.75 83.94 726.36 83.83 720.02 C 83.98 711.66 83.32 703.29 83.93 694.94 C 84.06 691.92 85.74 688.81 88.70 687.76 C 92.30 686.44 96.22 686.80 99.99 686.78 C 143.79 686.38 187.60 686.34 231.41 686.27 C 228.53 682.09 226.32 677.21 226.59 672.03 C 226.71 662.50 233.38 654.69 240.37 648.94 C 236.61 645.95 233.14 642.62 229.84 639.14 C 217.64 626.49 206.68 612.14 200.45 595.55 C 195.18 580.32 193.34 563.74 195.87 547.79 C 196.99 540.81 199.75 532.60 207.37 530.51 C 208.42 525.22 213.34 522.49 217.34 519.58 C 215.21 516.60 213.15 513.00 214.34 509.20 C 215.66 503.44 220.76 499.81 225.79 497.42 C 222.79 492.13 220.51 486.08 221.39 479.89 C 222.39 469.94 228.94 461.51 236.88 455.85 C 245.37 449.81 254.68 445.04 263.78 440.00 C 261.52 434.60 258.52 429.46 257.17 423.72 C 255.99 418.38 259.68 413.68 262.38 409.44 C 265.55 404.39 270.76 401.11 274.03 396.16 C 279.45 387.49 286.45 379.19 295.81 374.70 C 298.58 373.12 301.74 374.01 304.29 375.58 C 315.29 381.65 325.04 389.64 335.65 396.31 C 339.15 394.52 342.56 392.47 346.38 391.41 C 349.13 390.52 352.13 390.17 354.55 388.46 C 380.30 371.28 406.16 354.27 431.50 336.49 C 448.05 325.03 464.74 313.78 481.38 302.44 C 487.58 298.20 493.66 293.18 501.21 291.64 C 501.83 279.12 506.89 266.94 515.49 257.80 C 512.27 255.31 508.41 251.56 509.96 247.06 M 523.76 279.15 C 524.01 280.75 525.59 281.33 526.75 282.19 C 530.62 277.02 534.46 271.03 540.95 268.95 C 544.75 267.42 548.86 268.04 552.83 268.16 C 554.95 268.45 556.47 265.73 554.56 264.34 C 550.89 261.97 546.21 262.84 542.18 263.56 C 533.91 265.36 527.49 271.79 523.76 279.15 M 498.87 303.93 C 498.47 310.54 501.16 316.89 504.45 322.48 C 510.16 332.36 519.97 339.76 530.97 342.72 C 532.82 343.46 534.56 342.42 536.17 341.59 C 533.41 338.70 529.38 337.91 525.94 336.15 C 515.84 331.29 507.88 322.23 504.27 311.63 C 503.00 307.88 503.13 303.73 501.10 300.23 C 500.34 301.42 498.79 302.35 498.87 303.93 M 565.61 307.59 C 562.96 311.62 559.12 315.14 554.13 315.72 C 548.49 317.17 543.22 314.29 538.46 311.67 C 537.65 312.41 536.87 313.17 536.11 313.96 C 537.72 318.06 542.65 319.17 546.41 320.49 C 555.63 322.87 566.49 317.87 569.98 308.85 C 568.95 307.42 567.10 305.58 565.61 307.59 M 591.76 319.46 C 587.10 328.42 578.40 334.30 569.56 338.63 C 570.28 339.90 571.02 341.17 571.78 342.44 C 580.96 337.86 589.24 331.09 594.44 322.16 C 593.92 320.92 592.73 320.26 591.76 319.46 M 468.39 323.25 C 467.02 324.24 465.60 326.19 466.89 327.82 C 468.79 331.43 474.45 329.75 474.86 325.93 C 474.56 322.88 470.76 321.32 468.39 323.25 M 600.20 323.63 C 593.78 334.03 584.57 343.17 572.88 347.35 C 580.03 363.01 588.57 378.03 597.73 392.59 C 602.94 390.66 608.06 388.46 612.96 385.84 C 625.26 379.61 636.07 369.47 640.66 356.21 C 627.00 345.57 614.34 333.64 600.20 323.63 M 455.30 332.32 C 453.42 333.23 451.80 335.67 453.34 337.60 C 455.22 341.09 461.34 338.86 460.94 335.04 C 460.25 332.69 457.63 330.93 455.30 332.32 M 442.42 341.58 C 440.07 342.19 437.85 345.08 439.67 347.33 C 441.47 350.40 446.38 349.10 447.24 345.94 C 448.10 343.29 445.02 340.27 442.42 341.58 M 425.81 358.07 C 429.51 361.72 435.67 355.74 431.72 352.00 C 428.18 349.94 422.05 354.69 425.81 358.07 M 644.90 359.96 C 637.60 379.07 618.91 391.19 600.07 396.99 C 612.32 416.77 624.32 436.76 637.73 455.80 C 648.41 452.07 658.59 446.65 667.12 439.15 C 679.08 429.13 687.20 415.09 691.05 400.06 C 686.48 395.25 681.16 391.26 676.30 386.76 C 665.87 377.78 655.56 368.67 644.90 359.96 M 275.00 408.77 C 285.11 400.99 294.03 391.69 301.93 381.69 C 300.43 380.71 298.80 379.97 297.07 379.52 C 287.05 386.68 278.00 396.54 275.00 408.77 M 310.99 386.67 C 309.05 390.97 307.04 395.33 303.75 398.79 C 295.38 408.07 285.22 416.42 273.07 420.04 C 271.03 420.39 268.63 421.58 266.79 420.15 C 266.74 417.32 267.78 414.64 268.17 411.87 C 265.11 414.68 262.89 418.83 263.09 423.05 C 264.33 426.23 268.38 425.59 271.04 425.07 C 282.93 422.48 293.18 415.18 301.86 406.91 C 307.08 401.47 312.56 395.56 314.37 388.02 C 313.24 387.56 312.12 387.11 310.99 386.67 M 354.49 394.66 C 347.23 395.97 340.69 399.62 334.48 403.43 C 306.54 420.66 278.66 438.01 250.05 454.13 C 241.27 459.09 232.04 465.10 228.18 474.88 C 225.68 480.83 226.66 487.71 230.07 493.08 C 244.91 518.75 260.36 544.05 275.51 569.53 C 278.64 574.84 282.39 580.68 288.79 582.25 C 298.14 585.19 307.36 580.12 314.97 575.12 C 330.81 564.42 347.00 554.26 363.29 544.28 C 381.51 533.13 399.62 521.78 417.93 510.79 C 424.92 506.46 431.83 500.55 433.59 492.12 C 435.06 486.82 432.92 481.43 430.08 477.02 C 416.66 456.90 404.20 436.17 391.18 415.80 C 386.84 409.36 382.69 402.34 376.00 398.06 C 369.58 394.32 361.74 393.50 354.49 394.66 M 695.52 403.79 C 693.75 410.21 691.30 416.43 688.15 422.30 C 693.64 418.31 701.74 418.50 705.57 412.19 C 702.37 409.22 699.02 406.40 695.52 403.79 M 640.69 460.01 C 643.79 464.08 646.34 468.62 649.89 472.33 C 661.45 471.96 672.47 463.35 675.48 452.12 C 677.39 445.85 677.68 439.16 680.35 433.10 C 670.34 445.87 656.11 455.18 640.69 460.01 M 720.49 467.60 C 716.19 469.24 712.77 472.46 709.88 475.94 C 705.61 481.12 701.62 486.51 697.85 492.05 C 694.38 497.11 690.06 501.50 686.49 506.48 C 683.82 509.90 680.94 513.62 680.81 518.15 C 684.60 524.05 692.34 529.63 699.53 526.29 C 711.33 521.77 722.01 514.70 731.75 506.72 C 737.40 502.14 742.30 495.55 742.11 487.95 C 741.64 480.34 737.40 473.08 731.08 468.84 C 728.01 466.75 723.95 466.25 720.49 467.60 M 849.47 505.39 C 844.96 516.38 841.43 527.76 836.86 538.73 C 833.74 549.25 829.63 559.43 825.81 569.70 C 820.43 583.94 815.53 598.36 810.07 612.57 C 812.33 612.68 814.60 612.79 816.87 612.92 C 821.30 600.48 826.04 588.17 830.76 575.84 C 832.24 571.69 834.01 567.50 834.02 563.02 C 834.02 553.33 835.37 543.40 839.56 534.57 C 841.19 530.78 844.40 526.61 849.05 527.29 C 854.90 527.88 857.64 534.85 855.74 539.91 C 852.93 546.91 849.25 553.60 844.59 559.55 C 841.20 563.81 838.73 568.70 836.92 573.82 C 832.13 586.97 826.76 599.90 822.12 613.11 C 825.67 613.17 829.22 613.28 832.78 613.32 C 841.59 590.76 849.23 567.76 858.09 545.21 C 861.50 535.45 865.16 525.77 869.03 516.17 C 870.31 512.91 871.78 509.42 870.99 505.85 C 869.72 500.69 864.46 496.79 859.11 497.49 C 854.44 497.45 850.98 501.31 849.47 505.39 M 718.00 523.04 C 719.79 524.81 721.55 526.63 723.23 528.52 C 726.77 524.06 732.33 522.09 737.87 521.78 C 736.58 518.39 735.12 515.07 733.46 511.85 C 728.55 515.91 723.35 519.59 718.00 523.04 M 874.58 515.84 C 870.05 526.37 866.30 537.20 862.28 547.93 C 866.12 547.32 870.75 548.61 872.37 552.49 C 874.12 555.93 872.86 559.92 871.05 563.06 C 868.01 568.24 864.92 573.47 860.84 577.92 C 857.16 582.04 855.34 587.34 853.58 592.46 C 851.04 599.45 848.50 606.43 845.97 613.42 C 848.80 613.42 851.65 613.45 854.50 613.33 C 865.03 586.51 874.63 559.31 885.79 532.73 C 887.65 528.61 888.26 523.58 885.22 519.84 C 882.86 516.42 878.46 515.58 874.58 515.84 M 212.69 530.83 C 214.54 535.22 217.18 539.34 220.99 542.27 C 223.45 541.01 225.79 539.55 228.03 537.96 C 225.21 533.54 222.84 528.85 220.23 524.30 C 217.34 525.99 214.51 527.95 212.69 530.83 M 680.91 528.82 C 678.89 530.75 675.27 531.77 675.73 535.19 C 679.10 534.01 681.33 531.12 683.94 528.85 C 682.90 528.38 681.77 527.53 680.91 528.82 M 845.65 533.66 C 843.56 535.00 842.12 538.78 844.79 540.31 C 847.62 542.70 851.93 539.18 851.11 535.89 C 850.82 533.35 847.61 532.27 845.65 533.66 M 200.36 551.87 C 198.02 572.35 202.74 593.64 213.90 611.02 C 222.60 624.16 233.14 636.08 245.23 646.19 C 247.29 644.45 249.34 642.68 251.54 641.12 C 241.50 632.24 232.27 622.28 224.95 611.01 C 214.99 595.69 207.88 577.51 209.14 558.98 C 209.92 553.81 210.41 547.47 215.25 544.37 C 212.89 541.65 210.80 538.72 208.92 535.66 C 203.18 538.97 201.39 545.78 200.36 551.87 M 665.45 538.52 C 668.10 539.00 670.99 539.25 673.11 541.15 C 677.58 544.64 676.63 552.12 672.25 555.29 C 668.19 558.81 661.01 557.07 659.15 551.96 C 657.38 548.52 659.27 544.87 660.08 541.46 C 654.70 545.56 654.25 555.17 660.45 558.73 C 667.72 563.23 677.66 557.09 678.36 548.92 C 680.12 542.18 671.71 533.87 665.45 538.52 M 218.16 547.62 C 212.47 560.56 215.16 575.23 219.96 588.00 C 227.19 607.99 241.73 624.38 257.69 637.98 C 263.89 634.14 270.76 631.49 277.80 629.69 C 277.92 614.11 278.59 598.55 278.67 582.98 C 270.95 574.37 265.85 563.87 259.90 554.05 C 255.39 557.71 249.20 560.65 243.38 558.57 C 237.11 555.19 234.41 548.13 230.69 542.45 C 227.12 545.42 222.91 547.64 218.16 547.62 M 664.18 545.28 C 661.99 547.09 663.15 550.00 664.13 552.13 C 666.31 552.85 669.29 553.02 670.55 550.65 C 672.08 548.53 670.74 546.04 669.77 544.03 C 667.85 543.54 665.36 543.28 664.18 545.28 M 862.15 554.01 C 859.64 555.62 860.02 560.46 863.12 561.10 C 865.61 561.64 867.73 559.40 867.99 557.07 C 867.83 554.27 864.53 552.72 862.15 554.01 M 393.08 565.81 C 377.84 568.16 362.37 568.18 347.01 569.07 C 343.67 569.28 340.34 569.33 337.00 569.26 C 333.08 569.03 330.04 571.97 326.96 573.94 C 345.70 574.23 364.45 573.29 383.15 572.03 C 390.95 571.23 398.97 570.39 406.18 567.06 C 406.07 566.13 405.87 564.25 405.76 563.32 C 401.44 563.55 397.37 565.25 393.08 565.81 M 847.52 587.48 C 844.35 596.15 841.33 604.89 837.87 613.45 C 838.57 613.41 839.97 613.34 840.67 613.30 C 843.65 604.82 846.85 596.40 849.97 587.97 C 851.15 584.48 852.14 580.87 852.07 577.17 C 850.05 580.36 848.88 583.98 847.52 587.48 M 793.27 617.38 C 792.72 619.08 792.65 620.88 792.50 622.66 C 800.95 623.81 809.50 623.73 818.00 623.94 C 839.20 624.44 860.41 624.36 881.60 623.53 C 881.47 621.49 881.30 619.45 881.04 617.44 C 872.01 616.94 862.99 617.85 853.97 618.18 C 836.33 618.47 818.70 618.02 801.09 616.95 C 798.48 616.90 795.79 616.62 793.27 617.38 M 798.91 628.12 C 798.94 637.42 799.00 646.73 798.85 656.04 C 800.12 657.86 801.11 659.88 801.41 662.11 C 802.62 669.74 803.30 677.64 801.64 685.26 C 822.39 685.30 843.14 685.35 863.90 685.20 C 864.28 666.50 864.21 647.79 863.86 629.09 C 842.21 629.26 820.54 629.15 798.91 628.12 M 868.87 628.68 C 868.99 647.53 868.93 666.38 868.94 685.23 C 870.82 685.25 872.71 685.26 874.61 685.25 C 874.47 666.37 874.86 647.47 874.39 628.60 C 872.54 628.62 870.69 628.64 868.87 628.68 M 387.94 636.01 C 361.06 639.03 333.96 639.92 306.92 639.15 C 297.84 638.52 288.67 638.32 279.73 636.45 C 276.96 637.50 278.60 640.90 280.95 641.07 C 291.85 643.20 303.00 643.57 314.07 644.18 C 340.79 645.04 367.57 643.72 394.13 640.75 C 401.72 639.63 409.75 639.10 416.49 635.06 C 416.17 633.44 415.66 631.89 414.67 630.57 C 406.40 634.76 396.93 634.78 387.94 636.01 M 540.03 651.46 C 540.04 652.03 540.05 653.17 540.05 653.74 C 549.76 654.97 559.57 654.27 569.33 654.17 C 568.78 652.72 567.97 650.89 566.08 651.29 C 557.40 651.38 548.71 651.36 540.03 651.46 M 539.82 657.18 C 539.75 657.62 539.61 658.51 539.55 658.95 L 540.07 659.69 C 548.38 660.55 556.82 660.74 565.15 660.01 C 567.61 659.88 568.25 657.42 568.69 655.45 C 559.13 656.86 549.44 656.54 539.82 657.18 M 488.08 661.15 C 490.34 661.44 492.96 660.43 494.98 661.85 C 497.07 663.18 498.50 665.37 499.13 667.76 C 501.55 674.34 496.03 682.61 489.01 682.75 C 484.74 682.57 482.88 678.32 480.81 675.28 C 480.65 679.33 481.98 685.34 487.10 685.32 C 494.24 686.64 500.08 680.24 502.07 674.01 C 504.35 668.27 501.69 660.66 495.72 658.46 C 492.91 657.21 489.78 658.88 488.08 661.15 M 791.46 661.96 C 791.99 665.33 792.93 668.63 793.23 672.04 C 793.89 676.50 792.88 680.99 793.23 685.47 C 794.19 684.77 795.70 684.34 795.86 682.94 C 797.81 675.93 796.64 668.47 794.63 661.61 C 793.57 661.66 792.37 661.21 791.46 661.96 M 538.85 665.89 C 539.87 669.96 544.61 669.51 547.94 669.66 C 554.84 669.45 561.83 669.14 568.56 667.50 C 568.85 665.87 568.81 664.22 568.85 662.60 C 559.18 665.79 548.91 665.80 538.85 665.89 M 739.81 661.61 C 741.29 669.00 741.40 676.69 739.36 684.00 C 737.98 686.54 742.23 686.92 742.86 684.81 C 745.61 678.30 745.42 670.80 744.08 663.99 C 744.05 661.60 741.54 661.65 739.81 661.61 M 489.38 666.41 C 485.08 668.57 483.93 676.21 488.92 678.16 C 494.58 677.98 497.21 669.36 492.70 666.00 C 491.52 665.72 490.41 665.86 489.38 666.41 M 331.39 670.46 C 329.27 672.14 328.43 675.44 330.18 677.69 C 332.90 680.62 338.68 679.54 339.65 675.46 C 341.24 670.98 334.76 667.50 331.39 670.46 M 352.64 675.06 C 353.31 678.41 358.22 678.57 359.67 675.70 C 361.13 673.57 359.48 671.30 358.24 669.57 C 355.29 669.57 351.91 671.71 352.64 675.06 M 753.71 671.14 C 753.68 672.37 753.65 673.60 753.63 674.84 C 759.54 675.37 765.54 675.92 771.46 675.23 C 771.35 674.41 771.12 672.77 771.00 671.95 C 765.52 670.08 759.42 671.14 753.71 671.14 M 538.83 674.84 C 539.17 675.86 539.52 676.89 539.89 677.93 C 549.60 678.46 559.55 678.42 568.95 675.62 C 569.02 674.24 569.09 672.87 569.16 671.50 C 559.26 674.28 548.97 673.94 538.83 674.84 M 548.90 683.11 C 545.48 683.57 541.70 682.85 538.65 684.79 C 546.41 685.74 554.25 685.09 562.04 685.53 C 565.43 685.52 570.43 684.62 570.33 680.27 C 563.22 681.50 556.13 682.87 548.90 683.11 M 217.34 691.43 C 176.17 691.64 135.01 691.83 93.85 691.94 C 90.56 691.61 88.65 695.13 88.86 698.01 C 88.82 709.35 88.89 720.68 88.98 732.02 C 89.14 734.65 88.83 737.54 90.33 739.87 C 93.80 740.72 97.43 740.14 100.97 740.26 C 196.32 739.86 291.66 739.76 387.01 739.35 C 439.01 739.28 491.01 739.26 543.01 739.15 C 561.04 739.00 579.08 739.32 597.10 738.74 C 602.24 738.51 607.55 739.94 612.57 738.27 C 613.90 736.10 613.72 733.45 613.83 731.02 C 613.85 719.66 613.91 708.30 613.89 696.94 C 614.08 694.33 612.52 691.58 609.99 690.75 C 479.10 690.98 348.22 690.68 217.34 691.43 M 617.43 690.68 C 618.33 692.67 619.19 694.76 619.12 697.01 C 619.54 717.58 618.67 738.15 619.07 758.72 C 623.27 755.74 627.00 752.19 631.11 749.10 C 635.78 745.44 639.74 740.87 644.84 737.77 C 646.65 736.47 648.49 738.00 649.94 739.08 C 654.09 742.31 658.43 745.26 662.87 748.09 C 663.47 731.07 662.26 714.03 662.41 697.00 C 662.36 694.43 663.21 691.95 665.24 690.28 C 649.34 690.96 633.36 690.74 617.43 690.68 M 131.64 745.74 C 131.97 770.87 131.60 796.01 131.85 821.14 C 142.93 821.88 154.06 822.41 165.06 824.03 C 166.85 824.15 168.51 825.17 169.03 826.97 C 168.37 829.87 165.17 829.27 162.95 829.07 C 152.65 827.77 142.27 827.32 131.97 826.04 C 131.87 830.67 131.83 835.30 131.84 839.94 C 142.55 841.14 153.31 841.79 164.05 842.53 C 165.90 842.62 167.65 843.25 169.37 843.89 C 168.82 845.10 168.87 846.75 167.71 847.63 C 164.79 848.08 161.82 847.73 158.89 847.58 C 149.84 846.85 140.77 846.26 131.78 844.99 C 131.66 858.30 131.74 871.62 131.62 884.93 C 155.44 882.87 179.32 881.53 203.16 879.57 C 203.15 870.12 203.19 860.68 203.23 851.23 C 197.40 850.44 191.25 851.05 185.71 848.76 C 186.14 847.45 185.93 845.06 187.88 845.06 C 193.00 844.73 198.09 845.85 203.20 846.07 C 203.24 841.61 203.27 837.15 203.35 832.69 C 198.53 831.96 193.58 832.21 188.84 831.05 C 186.18 830.67 186.20 826.55 188.99 826.41 C 193.79 825.84 198.54 827.29 203.30 827.71 C 203.45 800.37 203.34 773.02 203.27 745.67 C 179.40 745.72 155.52 745.83 131.64 745.74 M 131.71 889.56 C 131.74 900.70 131.73 911.84 131.67 922.98 C 155.60 921.76 179.46 919.47 203.31 917.12 C 203.20 906.25 203.29 895.37 203.17 884.50 C 179.36 886.27 155.56 888.27 131.71 889.56 Z" />
<path fill="#000000" opacity="1.00" d=" M 659.28 273.25 C 661.80 272.57 664.44 272.86 667.03 272.79 C 680.00 272.72 692.99 272.56 705.96 272.78 C 708.19 272.76 711.61 273.09 711.46 276.11 C 709.81 278.63 706.53 277.88 703.99 278.09 C 689.97 278.43 675.95 278.27 661.93 278.45 C 660.50 278.44 658.82 278.33 657.88 277.09 C 657.50 275.60 657.85 274.02 659.28 273.25 Z" />
<path fill="#000000" opacity="1.00" d=" M 654.29 290.99 C 654.73 289.68 656.03 289.01 657.00 288.13 C 660.23 290.11 662.76 292.94 665.44 295.57 C 673.19 303.14 680.77 310.89 688.43 318.55 C 691.39 321.59 694.60 324.43 697.18 327.82 C 698.28 328.95 698.26 331.11 696.66 331.79 C 694.33 332.57 692.75 330.14 691.06 328.98 C 680.17 318.55 669.54 307.85 658.87 297.19 C 657.10 295.33 655.11 293.49 654.29 290.99 Z" />
<path fill="#000000" opacity="1.00" d=" M 365.17 367.19 C 368.47 366.56 372.01 366.93 375.16 368.06 C 376.97 370.57 373.74 371.28 371.84 371.47 C 369.27 371.67 366.43 372.34 364.04 371.00 C 363.00 369.63 363.30 367.49 365.17 367.19 Z" />
<path fill="#000000" opacity="1.00" d=" M 312.80 374.10 C 312.51 372.37 314.77 372.17 315.95 372.12 C 324.45 372.13 332.95 371.85 341.46 371.84 C 343.43 373.13 343.18 376.29 340.58 376.46 C 332.70 376.98 324.78 376.72 316.89 376.72 C 315.31 376.63 312.02 376.58 312.80 374.10 Z" />
<path fill="#000000" opacity="1.00" d=" M 335.49 385.64 C 337.98 385.09 341.88 384.89 342.49 388.14 C 339.55 390.18 333.91 391.83 331.83 387.95 C 332.59 386.55 333.94 385.82 335.49 385.64 Z" />
<path fill="#000000" opacity="1.00" d=" M 728.36 425.91 C 729.10 423.96 731.83 423.03 733.29 424.76 C 735.57 427.07 737.37 429.97 738.23 433.12 C 737.72 434.60 736.13 435.08 734.98 435.91 C 731.72 433.50 728.88 430.04 728.36 425.91 Z" />
<path fill="#000000" opacity="1.00" d=" M 324.51 435.57 C 334.92 433.21 346.09 434.71 355.58 439.56 C 369.69 446.94 379.98 461.90 380.37 478.01 C 381.67 500.91 362.12 521.09 340.17 524.50 C 330.81 525.67 320.94 524.93 312.39 520.68 C 300.46 514.83 291.11 503.54 288.38 490.44 C 286.36 480.12 287.37 468.94 292.43 459.61 C 299.09 447.57 311.08 438.56 324.51 435.57 M 320.13 443.20 C 309.24 447.75 299.75 456.39 295.57 467.59 C 292.78 474.69 292.85 482.59 294.43 489.97 C 296.37 498.51 301.78 506.01 308.67 511.31 C 318.95 519.02 333.08 521.18 345.25 517.16 C 355.89 513.41 365.48 505.92 370.43 495.62 C 374.86 487.38 375.09 477.42 372.54 468.55 C 371.88 466.46 371.21 464.06 369.10 462.99 C 367.66 465.12 368.87 467.61 369.20 469.88 C 371.24 477.68 369.78 486.12 366.18 493.24 C 356.82 510.94 332.46 518.52 314.71 509.33 C 301.10 502.07 295.53 484.36 299.90 470.03 C 303.09 459.64 311.53 451.34 321.60 447.50 C 328.38 444.90 335.83 443.11 343.06 444.82 C 348.27 445.32 352.73 448.31 357.76 449.43 C 357.13 448.04 356.25 446.80 354.85 446.15 C 344.52 439.95 331.36 438.84 320.13 443.20 M 332.55 450.70 C 323.45 452.08 314.79 456.95 309.28 464.38 C 301.82 474.47 303.19 489.41 311.12 498.82 C 315.88 504.11 322.91 507.29 330.04 507.21 C 342.48 507.87 355.33 501.18 361.17 490.05 C 366.35 480.36 364.85 467.71 357.71 459.40 C 351.67 452.30 341.64 449.16 332.55 450.70 Z" />
<path fill="#000000" opacity="1.00" d=" M 719.23 440.28 C 722.55 437.73 725.11 442.38 726.09 445.06 C 727.17 446.87 724.97 447.96 723.94 449.00 C 721.60 446.81 718.13 443.80 719.23 440.28 Z" />
<path fill="#000000" opacity="1.00" d=" M 740.20 453.94 C 738.40 451.57 742.35 448.24 744.21 450.70 C 747.60 454.18 749.54 458.75 752.24 462.74 C 754.37 466.61 757.20 470.16 758.60 474.39 C 759.32 476.25 757.21 477.07 756.07 478.01 C 752.31 475.59 750.81 471.20 748.54 467.58 C 746.04 462.86 742.48 458.77 740.20 453.94 Z" />
<path fill="#000000" opacity="1.00" d=" M 336.46 466.57 C 341.94 464.83 347.63 470.63 347.23 476.05 C 347.13 480.57 342.86 483.27 339.39 485.32 C 335.80 487.07 332.03 489.28 327.90 488.96 C 322.81 488.42 319.64 481.83 322.71 477.62 C 326.05 472.70 331.08 469.00 336.46 466.57 Z" />
<path fill="#000000" opacity="1.00" d=" M 704.39 487.22 C 706.36 485.24 709.18 486.80 711.24 487.77 C 713.52 489.01 716.52 491.73 714.68 494.50 C 712.60 498.11 711.16 502.90 707.05 504.66 C 703.41 504.05 700.12 502.03 697.91 499.10 C 699.56 494.90 701.51 490.73 704.39 487.22 Z" />
<path fill="#000000" opacity="1.00" d=" M 266.26 499.28 C 270.75 497.32 276.50 498.89 279.05 503.15 C 283.97 510.67 276.90 522.18 268.00 521.47 C 261.72 521.63 256.99 514.79 258.31 508.91 C 259.08 504.62 262.02 500.62 266.26 499.28 M 268.42 504.37 C 264.53 506.54 268.40 511.95 271.88 511.33 C 273.82 510.57 275.28 508.16 274.15 506.19 C 273.36 503.92 270.37 502.86 268.42 504.37 Z" />
<path fill="#000000" opacity="1.00" d=" M 613.74 533.96 C 613.20 531.94 615.81 532.07 616.99 531.54 C 619.09 534.78 620.80 538.31 621.58 542.11 C 621.66 544.13 618.78 545.39 617.61 543.60 C 615.55 540.79 614.16 537.41 613.74 533.96 Z" />
<path fill="#000000" opacity="1.00" d=" M 609.65 564.42 C 611.05 556.48 625.71 557.09 625.49 565.67 C 653.19 565.37 680.88 565.98 708.58 565.27 C 708.88 558.16 719.52 556.44 723.27 561.74 C 724.83 563.80 724.97 566.48 725.06 568.97 C 725.18 574.22 725.19 579.49 725.22 584.75 C 730.45 584.79 735.72 584.33 740.93 584.93 C 745.22 586.22 745.60 591.85 744.66 595.52 C 742.95 600.30 736.97 599.53 732.94 599.72 C 694.96 599.75 657.00 600.46 619.02 600.23 C 612.38 600.13 605.70 600.43 599.09 599.67 C 593.68 599.05 592.14 591.72 594.93 587.86 C 598.88 584.34 604.68 585.90 609.43 586.24 C 609.61 578.97 609.04 571.67 609.65 564.42 M 614.32 570.14 C 616.24 570.45 618.17 570.74 620.13 570.87 C 620.04 569.08 619.95 567.33 619.83 565.56 C 619.01 565.23 617.39 564.56 616.58 564.23 C 615.25 565.95 614.66 568.03 614.32 570.14 M 714.98 565.25 C 715.85 566.56 716.78 567.89 717.73 569.18 C 716.78 569.17 714.87 569.16 713.92 569.15 C 713.97 571.42 714.02 573.70 714.05 575.99 C 716.07 576.19 718.09 576.38 720.13 576.54 C 720.13 573.11 719.72 569.73 719.35 566.34 C 718.18 564.99 716.72 564.63 714.98 565.25 M 624.66 571.20 C 624.65 572.76 624.68 574.32 624.72 575.89 C 653.22 576.44 681.73 576.43 710.24 576.05 C 710.27 574.37 710.30 572.69 710.33 571.03 C 681.77 570.97 653.21 571.23 624.66 571.20 M 614.87 572.36 C 614.92 573.80 614.99 575.24 615.07 576.70 C 616.78 576.95 618.49 577.19 620.21 577.44 C 620.14 575.64 620.08 573.85 620.01 572.06 C 618.28 572.07 616.57 572.21 614.87 572.36 M 618.46 581.63 C 617.57 581.56 615.78 581.40 614.89 581.32 C 614.95 582.72 615.02 584.13 615.10 585.55 C 616.88 585.64 618.67 585.75 620.47 585.87 C 620.37 583.97 620.30 582.07 620.21 580.18 C 619.77 580.55 618.90 581.27 618.46 581.63 M 715.10 579.96 C 714.86 581.60 714.60 583.23 714.34 584.87 C 716.24 584.68 718.15 584.53 720.06 584.36 C 719.71 582.68 719.38 581.00 719.07 579.33 C 718.18 580.59 717.49 581.99 716.71 583.33 C 716.77 582.73 716.89 581.53 716.95 580.93 C 716.49 580.69 715.57 580.21 715.10 579.96 M 625.43 581.48 C 625.15 582.74 624.94 584.02 624.79 585.32 C 653.17 584.82 681.55 584.80 709.93 584.82 C 709.95 583.62 709.97 582.43 710.00 581.24 C 681.81 581.82 653.62 581.03 625.43 581.48 M 613.03 590.81 C 608.32 590.84 603.60 590.50 598.90 590.95 C 598.86 591.72 598.78 593.25 598.74 594.01 C 602.98 595.56 607.56 594.69 611.97 595.02 C 643.99 595.27 676.00 594.62 708.02 594.56 C 718.43 594.48 728.85 594.84 739.25 594.38 C 739.28 592.96 739.30 591.55 739.32 590.15 C 728.24 589.46 717.14 590.27 706.05 590.16 C 694.69 590.04 683.33 590.39 671.97 590.20 C 652.32 590.10 632.68 590.86 613.03 590.81 Z" />
<path fill="#000000" opacity="1.00" d=" M 474.47 564.48 C 476.39 562.50 479.90 565.72 477.93 567.76 C 473.51 572.86 468.03 577.03 462.49 580.84 C 460.91 582.12 459.21 580.56 458.66 579.05 C 459.50 576.61 461.91 575.32 463.71 573.66 C 467.44 570.77 470.76 567.39 474.47 564.48 Z" />
<path fill="#000000" opacity="1.00" d=" M 553.84 586.99 C 555.15 586.28 556.26 584.47 557.98 584.96 C 561.27 585.45 564.85 585.57 567.79 587.33 C 570.00 588.97 567.13 592.13 564.99 591.00 C 561.16 590.04 556.21 590.84 553.84 586.99 Z" />
<path fill="#000000" opacity="1.00" d=" M 657.45 607.52 C 658.43 607.04 660.00 607.95 660.07 609.08 C 660.92 613.21 660.79 617.61 659.91 621.73 C 659.40 624.05 655.45 623.42 655.67 621.04 C 655.23 616.82 654.83 612.29 656.32 608.25 C 656.60 608.06 657.17 607.70 657.45 607.52 Z" />
<path fill="#000000" opacity="1.00" d=" M 752.33 610.37 C 756.81 608.59 762.66 613.28 761.15 618.12 C 760.13 622.14 754.74 623.86 751.43 621.44 C 747.87 618.74 748.36 612.46 752.33 610.37 M 755.31 615.28 C 753.93 615.41 754.06 617.78 755.38 617.93 C 756.74 617.81 756.60 615.39 755.31 615.28 Z" />
<path fill="#000000" opacity="1.00" d=" M 603.04 627.04 C 605.36 624.71 608.27 622.68 611.63 622.40 C 612.92 622.74 613.59 624.08 614.56 624.92 C 612.49 627.11 609.86 628.71 606.93 629.47 C 604.90 630.58 603.98 628.38 603.04 627.04 Z" />
<path fill="#000000" opacity="1.00" d=" M 710.16 629.16 C 711.40 628.38 712.83 629.48 714.10 629.72 C 717.43 631.06 721.23 631.75 723.90 634.32 C 725.12 636.32 722.57 638.66 720.58 637.66 C 716.89 636.39 713.00 635.37 709.70 633.21 C 708.21 632.38 708.41 629.62 710.16 629.16 Z" />
<path fill="#000000" opacity="1.00" d=" M 591.37 641.29 C 592.57 638.68 596.80 640.31 596.51 643.04 C 595.89 647.56 595.35 652.63 592.06 656.10 C 590.69 655.29 588.71 654.85 588.59 652.93 C 589.09 648.98 590.10 645.07 591.37 641.29 Z" />
<path fill="#000000" opacity="1.00" d=" M 652.08 641.98 C 653.40 640.75 655.76 642.32 655.56 644.08 C 655.43 646.97 654.83 649.91 653.50 652.51 C 652.20 654.06 649.60 652.95 649.55 651.01 C 649.59 647.94 649.89 644.29 652.08 641.98 Z" />
<path fill="#000000" opacity="1.00" d=" M 696.30 644.42 C 699.92 643.06 704.17 646.18 704.09 650.02 C 704.05 655.30 696.32 657.96 692.92 654.02 C 690.19 650.82 692.22 645.30 696.30 644.42 Z" />
<path fill="#000000" opacity="1.00" d=" M 742.12 644.17 C 745.92 642.56 750.83 645.70 750.30 649.99 C 750.57 655.02 742.71 656.88 740.21 652.80 C 737.64 650.25 738.92 645.52 742.12 644.17 Z" />
<path fill="#000000" opacity="1.00" d=" M 659.53 665.64 C 661.16 664.13 664.04 665.77 663.69 667.95 C 663.52 671.52 662.28 675.02 660.29 677.98 C 659.43 677.67 657.69 677.06 656.83 676.75 C 656.44 672.89 657.21 668.80 659.53 665.64 Z" />
<path fill="#000000" opacity="1.00" d=" M 602.35 667.01 C 603.53 664.98 607.30 666.67 606.82 668.97 C 606.42 671.52 605.39 674.05 603.68 676.02 C 602.19 676.61 599.79 676.16 599.88 674.17 C 599.81 671.59 600.81 669.05 602.35 667.01 Z" />
<path fill="#000000" opacity="1.00" d=" M 623.37 667.47 C 629.04 664.35 637.26 671.43 633.29 677.31 C 630.20 683.14 620.80 680.73 619.24 674.90 C 618.24 671.77 620.62 668.70 623.37 667.47 M 625.53 671.76 C 625.12 672.34 624.30 673.49 623.89 674.07 C 624.63 674.82 625.38 675.57 626.14 676.33 C 627.08 675.58 629.66 675.81 629.12 674.01 C 629.45 672.03 626.81 672.04 625.53 671.76 Z" />
<path fill="#000000" opacity="1.00" d=" M 106.36 699.45 C 109.71 697.38 113.71 701.68 112.32 705.04 C 111.43 707.99 107.31 709.27 105.22 706.78 C 102.56 704.87 103.82 700.83 106.36 699.45 Z" />
</g>
</g></svg>