<svg xmlns="http://www.w3.org/2000/svg" viewBox="0 0 1024 1024" version="1.1">
<g id="Parent-Group"><g id="Group-rgba(0,0,0,0)" fill="rgba(0,0,0,0)">
<path fill="rgba(0,0,0,0)" opacity="1.00" d=" M 0.00 0.00 L 1024.00 0.00 L 1024.00 804.66 C 982.21 805.22 940.41 805.60 898.63 806.34 C 901.79 801.86 906.07 797.68 906.92 792.03 C 907.19 790.24 907.35 787.48 904.99 787.15 C 899.29 786.84 893.59 787.37 887.89 787.34 C 887.95 756.94 887.57 726.52 888.28 696.12 C 892.25 691.04 896.51 685.57 897.20 678.93 C 897.73 674.43 894.67 669.56 890.04 668.87 C 884.00 667.17 878.15 670.26 872.98 673.03 C 867.28 676.58 861.85 680.61 857.00 685.28 C 854.72 680.45 851.47 676.15 847.55 672.53 C 856.13 664.35 862.27 654.00 867.41 643.40 C 873.21 631.45 877.04 618.43 878.07 605.17 C 879.74 605.06 881.41 604.96 883.11 604.87 C 883.29 624.80 883.25 644.74 883.48 664.68 C 884.96 664.53 886.44 664.39 887.94 664.26 C 887.85 646.83 887.85 629.41 887.91 611.99 C 887.83 608.42 888.46 604.80 887.71 601.29 C 885.46 598.84 881.71 600.24 878.82 600.05 C 878.40 598.87 877.98 597.71 877.58 596.55 C 875.25 597.39 873.40 599.02 871.68 600.74 C 862.92 600.62 854.15 600.97 845.39 600.75 C 843.47 591.26 840.82 581.88 837.11 572.93 C 835.28 569.10 833.16 564.64 828.81 563.22 C 824.58 561.67 820.33 564.90 818.58 568.60 C 813.45 578.53 811.57 589.87 811.31 600.95 C 774.68 600.70 738.05 601.64 701.42 601.52 C 697.98 591.53 694.05 581.71 690.04 571.94 C 688.36 568.11 686.66 564.24 684.28 560.79 C 681.78 557.03 677.18 555.72 673.09 554.54 C 663.90 552.24 654.47 551.10 645.05 550.32 C 598.81 546.74 552.32 548.03 506.07 550.82 C 506.16 539.27 506.29 527.73 506.05 516.19 C 519.05 516.57 532.04 517.21 545.04 517.34 C 556.33 518.07 567.79 518.51 578.94 516.21 C 596.45 512.63 613.79 504.34 624.78 489.81 C 635.89 475.77 640.05 457.82 642.82 440.50 C 646.47 415.87 647.58 390.91 647.23 366.02 C 646.68 343.32 643.34 320.23 633.41 299.59 C 631.90 296.25 629.20 293.58 625.87 292.07 C 612.23 285.41 597.84 280.21 582.99 277.03 C 576.78 275.53 570.35 276.04 564.06 275.22 C 543.78 273.22 523.41 272.22 503.03 272.49 C 484.88 272.41 466.72 272.35 448.57 272.40 C 449.53 273.94 450.42 275.53 451.30 277.13 C 481.21 277.68 511.16 276.64 541.05 278.12 C 553.42 278.85 565.72 280.52 578.11 280.84 C 593.03 283.46 607.34 288.72 621.13 294.89 C 623.48 296.07 625.98 297.22 627.78 299.20 C 629.74 301.83 630.77 305.00 631.98 308.03 C 622.04 309.27 612.02 309.73 602.05 310.62 C 597.41 311.13 592.62 311.47 588.23 313.15 C 585.70 313.83 586.56 317.88 589.05 317.70 C 600.04 316.73 611.08 316.47 622.10 315.76 C 626.23 315.54 630.37 314.69 634.53 315.02 C 636.42 319.57 637.51 324.40 638.69 329.17 C 624.81 330.11 610.89 330.44 597.05 331.84 C 595.11 332.12 592.78 332.10 591.59 333.93 C 591.39 337.03 594.67 337.35 596.99 337.24 C 611.32 337.09 625.64 336.46 639.96 335.88 C 643.57 359.08 643.04 382.72 641.65 406.08 C 641.35 412.09 640.11 418.14 641.14 424.13 C 640.68 425.41 639.62 426.48 639.81 427.98 C 637.32 447.82 634.63 468.91 622.33 485.42 C 607.74 505.29 581.97 513.93 558.05 513.39 C 548.75 512.20 539.37 513.07 530.05 512.29 C 509.02 511.87 488.02 510.66 467.00 509.89 C 447.63 508.80 428.23 508.22 408.94 506.07 C 386.61 503.45 362.84 502.02 343.44 489.39 C 335.23 483.83 326.00 479.12 319.87 471.09 C 315.50 465.34 313.93 458.18 311.42 451.56 C 309.88 447.93 310.47 443.89 310.33 440.07 C 310.59 407.01 309.46 373.86 312.60 340.90 C 313.52 331.98 313.66 322.91 315.43 314.11 C 321.35 300.24 335.07 291.64 348.76 286.73 C 372.44 278.59 397.78 277.72 422.58 277.50 C 423.28 275.86 423.98 274.22 424.69 272.60 C 403.75 272.97 382.61 273.51 362.08 278.08 C 347.29 281.19 332.55 286.97 321.43 297.50 C 316.32 302.65 311.78 308.84 310.02 315.97 C 308.27 333.27 306.87 350.63 306.04 368.00 C 305.02 392.98 305.76 417.98 305.61 442.97 C 305.67 446.30 305.47 449.81 306.92 452.91 C 309.63 459.02 310.76 465.83 314.58 471.43 C 318.80 478.15 325.32 482.88 331.80 487.24 C 339.17 492.14 346.58 497.18 354.88 500.41 C 373.57 507.68 393.77 508.94 413.49 511.23 C 430.47 512.67 447.50 513.61 464.53 514.16 C 464.79 527.68 464.70 541.21 464.60 554.74 C 460.04 554.53 455.50 554.90 450.97 555.26 C 428.87 557.25 406.70 559.26 384.90 563.48 C 376.61 565.39 367.93 566.99 360.68 571.70 C 357.77 573.47 356.53 576.83 355.52 579.90 C 352.19 590.25 349.09 600.67 345.69 611.00 C 333.46 609.49 321.21 607.88 309.26 604.81 C 299.54 602.28 290.34 598.19 280.90 594.85 C 256.86 586.28 234.00 574.63 212.48 560.96 C 212.73 547.42 205.86 533.79 194.40 526.42 C 178.18 515.65 154.20 519.88 142.63 535.55 C 130.70 550.60 132.11 574.57 146.36 587.65 C 161.59 602.43 188.56 601.77 203.08 586.29 C 212.15 593.92 222.74 599.46 233.22 604.86 C 248.64 612.32 264.52 618.73 280.63 624.55 C 298.56 632.49 318.13 635.71 337.51 637.76 C 328.41 666.14 319.56 694.61 310.90 723.14 C 300.80 716.63 287.92 716.57 276.66 719.67 C 261.72 724.44 250.35 736.57 242.83 749.94 C 233.33 766.47 231.77 786.16 233.38 804.82 C 178.60 804.71 123.82 805.41 69.04 804.95 C 46.03 804.99 23.02 804.92 0.00 805.07 L 0.00 0.00 M 404.27 208.65 C 406.88 213.63 412.54 215.61 417.81 216.24 C 423.27 235.15 427.63 254.38 433.83 273.06 C 431.45 273.67 428.53 273.87 427.13 276.21 C 425.64 277.91 425.32 281.50 428.11 282.04 C 434.22 283.19 440.77 283.46 446.78 281.63 C 448.57 280.39 447.17 277.94 446.51 276.44 C 444.85 273.40 441.24 272.89 438.20 272.19 C 432.52 253.28 427.47 234.18 422.54 215.06 C 433.20 212.97 438.52 199.17 433.19 190.01 C 429.89 183.92 422.71 180.68 415.95 181.11 C 404.26 183.23 397.62 198.75 404.27 208.65 M 356.46 322.65 C 347.56 323.87 339.44 329.08 334.32 336.43 C 328.39 344.28 326.48 354.27 325.61 363.87 C 324.59 379.95 325.03 396.16 327.51 412.10 C 328.82 421.79 330.22 432.34 337.22 439.78 C 344.74 448.25 356.48 450.36 367.13 452.05 C 411.91 457.71 457.13 456.73 502.11 459.28 C 510.93 460.33 520.31 460.35 528.55 456.62 C 534.12 454.14 538.40 449.35 540.81 443.80 C 544.38 435.58 546.06 426.70 547.52 417.91 C 550.52 397.45 551.69 376.40 547.98 355.96 C 545.45 345.13 541.33 332.74 530.63 327.46 C 519.34 323.03 506.95 323.20 495.01 323.19 C 482.37 322.24 469.69 322.91 457.03 322.62 C 445.36 322.63 433.69 322.47 422.01 322.50 C 400.17 322.49 378.28 321.59 356.46 322.65 Z" />
<path fill="rgba(0,0,0,0)" opacity="1.00" d=" M 415.31 187.22 C 416.74 186.30 420.97 185.81 419.92 188.64 C 417.65 190.49 414.85 191.81 413.23 194.35 C 411.52 196.59 412.05 199.58 411.13 202.12 C 408.59 202.64 408.45 199.87 408.62 198.04 C 409.09 193.75 411.12 189.04 415.31 187.22 Z" />
<path fill="rgba(0,0,0,0)" opacity="1.00" d=" M 385.41 330.51 C 386.85 329.19 390.29 331.14 388.74 333.01 C 388.04 335.07 385.87 335.11 384.04 334.95 C 383.94 333.33 383.57 331.29 385.41 330.51 Z" />
<path fill="rgba(0,0,0,0)" opacity="1.00" d=" M 397.21 331.11 C 397.65 330.94 398.55 330.60 399.00 330.43 C 399.53 330.64 400.60 331.07 401.13 331.28 C 400.95 332.72 401.05 334.53 399.51 335.26 C 397.90 336.40 396.57 334.36 395.75 333.26 C 396.11 332.72 396.84 331.65 397.21 331.11 Z" />
<path fill="rgba(0,0,0,0)" opacity="1.00" d=" M 409.62 330.77 C 412.94 330.02 412.39 334.41 409.94 335.27 C 407.15 335.82 407.17 331.03 409.62 330.77 Z" />
<path fill="rgba(0,0,0,0)" opacity="1.00" d=" M 335.45 355.07 C 337.92 343.59 347.25 333.48 358.95 331.27 C 365.42 330.73 371.94 330.57 378.43 330.83 C 377.92 332.51 377.13 334.77 375.04 334.89 C 370.30 334.75 365.54 334.98 360.85 335.73 C 352.07 337.34 344.70 343.96 341.20 352.04 C 337.57 361.01 339.70 370.86 338.16 380.16 C 338.11 381.97 336.15 382.18 334.81 382.56 C 334.08 373.40 333.92 364.15 335.45 355.07 Z" />
<path fill="rgba(0,0,0,0)" opacity="1.00" d=" M 369.40 356.52 C 375.31 355.30 383.01 356.79 385.52 362.99 C 387.27 369.20 389.58 375.41 389.41 381.96 C 389.73 391.08 389.41 401.59 382.52 408.44 C 374.37 414.39 361.86 410.33 357.24 401.76 C 352.74 395.05 353.45 386.67 353.77 379.01 C 354.02 369.54 359.31 358.49 369.40 356.52 M 369.42 361.77 C 363.34 364.17 359.61 370.64 359.12 376.98 C 358.54 383.48 357.59 390.23 359.52 396.60 C 360.80 401.14 364.99 403.92 369.02 405.83 C 373.08 407.75 378.50 406.92 381.19 403.12 C 385.26 398.02 384.55 391.07 384.77 384.95 C 384.32 379.14 385.15 373.09 383.37 367.47 C 381.45 361.96 374.58 359.89 369.42 361.77 Z" />
<path fill="rgba(0,0,0,0)" opacity="1.00" d=" M 482.51 362.65 C 487.60 361.09 493.88 361.38 498.04 365.00 C 501.51 368.01 501.66 372.84 502.98 376.92 C 504.79 382.10 504.39 387.66 504.54 393.05 C 504.69 399.58 503.54 406.40 499.81 411.89 C 496.36 416.80 489.51 418.35 483.98 416.49 C 478.46 415.06 473.86 411.07 471.41 405.96 C 467.71 399.28 468.63 391.41 468.77 384.09 C 469.38 375.39 473.50 365.45 482.51 362.65 M 483.42 367.57 C 479.92 369.26 477.15 372.33 475.69 375.92 C 473.09 382.90 473.24 390.60 473.57 397.94 C 473.85 405.96 481.25 412.68 489.12 412.82 C 494.67 412.89 498.36 407.38 499.29 402.45 C 500.28 393.33 499.83 384.09 499.07 374.97 C 498.29 367.91 489.31 364.66 483.42 367.57 Z" />
<path fill="rgba(0,0,0,0)" opacity="1.00" d=" M 401.79 387.97 C 402.01 383.96 400.86 378.51 405.16 376.24 C 406.08 378.97 406.01 381.86 406.39 384.69 C 407.30 386.33 409.50 386.11 411.10 386.59 C 420.02 387.57 429.02 387.61 437.99 387.38 C 441.04 387.25 444.16 387.07 447.08 386.11 C 448.11 382.90 447.53 378.71 451.09 376.95 C 452.80 380.66 452.16 384.98 450.63 388.63 C 449.66 390.76 447.14 391.08 445.10 391.35 C 431.81 392.66 418.33 392.45 405.14 390.24 C 403.91 389.95 401.58 389.78 401.79 387.97 Z" />
<path fill="rgba(0,0,0,0)" opacity="1.00" d=" M 336.14 389.15 C 336.55 389.18 337.37 389.23 337.78 389.26 C 338.78 392.69 338.27 396.38 337.80 399.87 L 336.86 400.39 C 336.48 400.26 335.72 400.01 335.33 399.88 C 334.79 396.48 332.61 391.53 336.14 389.15 Z" />
<path fill="rgba(0,0,0,0)" opacity="1.00" d=" M 336.15 413.03 C 336.23 411.31 335.12 407.77 337.89 407.92 C 340.11 407.96 340.94 411.76 338.97 412.84 C 338.27 412.89 336.86 412.98 336.15 413.03 Z" />
<path fill="rgba(0,0,0,0)" opacity="1.00" d=" M 497.43 515.83 C 498.61 515.76 499.79 515.70 500.99 515.67 C 501.27 523.15 500.22 530.58 500.08 538.05 C 500.15 539.93 499.42 541.68 498.12 543.04 C 495.47 540.94 496.06 537.44 497.10 534.67 C 495.91 528.43 497.92 522.13 497.43 515.83 Z" />
<path fill="rgba(0,0,0,0)" opacity="1.00" d=" M 147.38 543.51 C 150.57 537.98 155.40 533.04 161.63 531.16 C 163.77 535.03 158.41 537.42 155.38 538.45 C 154.19 540.60 154.39 544.20 151.64 544.98 C 149.81 546.81 147.62 548.71 147.69 551.55 C 148.80 552.12 149.60 552.94 150.11 554.03 C 148.76 554.44 147.38 554.76 146.00 555.08 C 144.80 558.00 146.46 560.45 148.31 562.56 C 147.66 562.87 146.35 563.50 145.70 563.81 C 145.75 564.66 145.85 566.35 145.90 567.19 C 146.49 567.31 147.68 567.56 148.28 567.68 C 148.04 569.15 147.85 570.63 147.71 572.12 C 149.25 572.31 150.79 572.46 152.32 572.70 C 153.74 574.31 151.22 575.45 151.00 576.97 C 153.23 579.66 157.28 580.49 158.75 583.74 C 159.64 583.78 160.55 583.79 161.43 583.98 C 161.48 584.69 161.57 586.10 161.61 586.81 C 164.56 584.48 168.37 587.44 170.95 589.24 C 169.78 589.91 168.50 591.26 166.99 590.68 C 155.63 588.30 146.85 578.73 143.34 567.96 C 141.85 559.74 142.30 550.48 147.38 543.51 M 150.66 541.35 C 149.00 543.81 153.90 544.21 152.79 541.50 C 152.26 541.46 151.19 541.39 150.66 541.35 Z" />
<path fill="rgba(0,0,0,0)" opacity="1.00" d=" M 497.65 562.85 C 498.87 560.20 502.20 562.03 503.09 564.02 C 501.10 564.49 499.11 564.44 497.65 562.85 Z" />
<path fill="rgba(0,0,0,0)" opacity="1.00" d=" M 466.95 564.97 C 465.26 564.34 466.39 562.25 466.91 561.22 C 469.61 563.63 472.78 565.35 476.28 566.26 C 475.94 566.78 475.24 567.80 474.89 568.31 C 472.08 567.98 469.50 566.21 466.95 564.97 Z" />
<path fill="rgba(0,0,0,0)" opacity="1.00" d=" M 491.92 565.00 C 493.65 564.39 495.35 563.71 497.13 563.20 C 498.62 564.34 499.86 565.57 498.20 567.34 C 497.22 566.55 496.31 565.82 495.36 565.04 C 495.69 565.59 496.36 566.70 496.69 567.25 C 495.55 567.00 494.43 566.74 493.31 566.48 C 493.45 567.03 493.74 568.14 493.88 568.69 C 492.27 568.14 490.78 567.39 489.22 566.76 C 489.57 567.50 490.27 568.96 490.62 569.69 C 489.31 569.15 488.03 568.54 486.79 567.88 C 486.73 568.36 486.60 569.32 486.54 569.80 C 484.16 569.16 482.16 567.79 480.67 565.85 C 482.36 565.27 483.88 565.77 485.11 567.02 C 486.82 565.13 489.61 565.44 491.92 565.00 Z" />
<path fill="rgba(0,0,0,0)" opacity="1.00" d=" M 672.99 567.99 C 675.81 567.28 678.25 565.29 681.11 564.88 C 685.20 571.66 687.57 579.29 690.64 586.56 C 697.22 603.76 703.41 621.15 707.98 639.01 C 711.97 653.77 714.52 668.86 717.32 683.88 C 709.33 681.22 701.04 679.64 692.96 677.33 C 679.72 673.25 666.58 668.71 654.05 662.76 C 640.55 655.50 627.46 647.13 616.47 636.36 C 613.44 633.44 609.39 630.89 604.99 631.85 C 597.19 632.73 592.90 641.76 594.75 648.84 C 597.02 657.77 603.77 664.76 610.87 670.22 C 621.58 676.98 632.04 684.26 643.75 689.23 C 661.58 696.89 680.06 703.04 698.88 707.78 C 706.39 709.10 713.50 712.03 721.07 713.10 C 722.51 730.46 722.33 747.89 722.15 765.30 C 706.38 771.30 690.26 776.36 674.03 780.95 C 668.43 782.28 663.01 784.74 657.16 784.64 C 650.80 786.37 644.41 788.09 637.94 789.31 C 633.09 788.05 631.73 782.24 630.66 777.99 C 628.21 761.11 627.95 744.02 626.92 727.02 C 625.99 712.08 626.36 697.07 625.04 682.16 C 623.69 681.25 622.33 680.38 620.94 679.57 C 620.99 702.74 622.04 725.90 623.35 749.04 C 624.18 758.41 624.22 767.84 625.57 777.17 C 626.42 782.38 628.08 787.69 631.83 791.58 C 615.40 794.61 599.03 798.10 582.46 800.31 C 544.35 805.71 505.83 808.07 467.36 807.71 C 466.25 789.93 460.96 772.09 450.41 757.57 C 443.22 747.14 432.12 739.08 419.63 736.52 C 408.65 735.02 396.98 736.32 387.45 742.33 C 368.90 753.78 357.46 774.33 353.24 795.31 C 337.42 792.62 321.71 788.55 307.10 781.81 C 308.29 756.39 313.32 731.22 320.95 706.98 C 333.66 666.27 346.20 625.50 359.22 584.88 C 360.52 581.17 361.17 576.58 364.95 574.50 C 369.86 576.65 374.83 578.75 380.14 579.74 C 401.51 584.15 423.14 587.60 444.96 588.75 C 465.62 590.00 486.34 589.54 507.03 589.50 C 530.06 588.93 553.07 587.22 575.94 584.36 C 592.51 582.04 609.06 579.55 625.60 576.99 C 619.75 586.92 621.50 599.00 621.84 609.99 C 622.50 613.88 621.53 619.47 626.19 621.15 C 625.88 609.61 624.36 597.89 626.65 586.48 C 627.95 582.19 629.60 576.18 634.96 575.75 C 647.66 573.31 660.58 571.74 672.99 567.99 M 434.41 607.08 C 433.77 612.73 436.81 618.54 441.82 621.24 C 449.50 625.54 460.18 621.85 463.93 613.98 C 465.04 611.34 464.57 608.09 462.19 606.34 C 458.95 607.38 458.14 610.78 456.43 613.29 C 454.24 614.98 451.71 616.57 448.92 616.96 C 446.24 616.52 443.81 614.92 442.18 612.78 C 440.05 610.24 442.61 606.17 439.77 604.00 C 437.54 601.75 434.57 604.66 434.41 607.08 M 582.22 612.18 C 570.73 617.70 563.14 630.27 563.35 642.99 C 563.51 647.19 564.04 651.44 565.49 655.41 C 569.84 666.38 580.22 675.09 592.13 676.25 C 598.24 676.62 604.81 676.28 610.07 672.78 C 604.85 669.56 600.97 664.73 597.11 660.06 C 592.17 653.66 589.87 644.32 593.76 636.86 C 597.25 629.97 606.70 626.39 613.54 630.52 C 619.56 634.34 624.01 640.08 629.64 644.42 C 629.18 640.22 629.18 635.92 627.82 631.88 C 624.93 622.70 618.02 614.69 608.96 611.21 C 600.48 607.63 590.40 607.94 582.22 612.18 Z" />
<path fill="rgba(0,0,0,0)" opacity="1.00" d=" M 824.09 569.00 C 825.21 567.46 827.85 567.44 829.07 568.89 C 832.00 572.16 833.13 576.54 834.68 580.55 C 840.57 596.68 842.89 613.85 843.84 630.92 C 843.91 634.32 844.62 637.91 843.16 641.14 C 841.06 646.09 838.92 651.04 837.29 656.17 C 836.27 643.37 834.73 630.62 833.71 617.82 C 833.84 615.95 832.39 613.20 830.34 615.07 C 829.34 619.66 830.33 624.37 830.44 629.01 C 831.07 641.19 833.63 653.23 833.80 665.42 C 831.13 663.88 830.07 660.84 828.66 658.29 C 822.41 646.39 818.17 633.46 816.06 620.19 C 814.73 606.44 815.21 592.30 819.24 579.00 C 820.49 575.52 821.73 571.90 824.09 569.00 Z" />
<path fill="rgba(0,0,0,0)" opacity="1.00" d=" M 213.51 586.06 C 214.68 580.61 218.50 576.21 221.90 571.96 C 230.13 577.53 239.18 581.67 247.99 586.21 C 260.65 592.34 273.80 597.39 287.08 602.01 C 292.80 603.85 297.86 607.67 304.03 608.05 C 317.28 611.45 330.77 613.88 344.39 615.23 C 342.53 621.23 340.50 627.18 338.70 633.21 C 319.91 631.07 300.80 628.34 283.43 620.46 C 260.71 612.27 238.05 603.34 217.41 590.65 C 215.74 589.54 212.64 588.68 213.51 586.06 Z" />
<path fill="rgba(0,0,0,0)" opacity="1.00" d=" M 702.83 605.29 C 732.55 605.66 762.29 605.48 792.02 605.29 C 798.39 605.28 804.77 605.23 811.14 605.58 C 811.51 614.15 811.67 622.84 813.85 631.19 C 816.53 642.64 821.09 653.56 826.40 664.02 C 817.07 662.80 807.42 666.14 800.44 672.36 C 794.57 677.47 790.45 684.37 788.21 691.80 C 781.87 690.51 775.40 691.08 769.01 690.53 C 753.39 689.46 737.77 687.67 722.41 684.75 C 719.73 670.47 717.39 656.10 713.78 642.02 C 710.63 629.63 707.01 617.37 702.83 605.29 Z" />
<path fill="rgba(0,0,0,0)" opacity="1.00" d=" M 846.32 605.28 C 853.09 605.35 859.88 605.40 866.66 605.22 C 859.61 612.09 853.37 619.95 848.99 628.81 C 848.36 620.94 847.51 613.09 846.32 605.28 Z" />
<path fill="rgba(0,0,0,0)" opacity="1.00" d=" M 870.30 607.31 C 871.29 606.30 872.54 605.61 873.82 605.01 C 871.22 629.03 860.59 652.17 844.09 669.82 C 842.20 668.72 840.35 667.59 838.59 666.32 C 842.31 655.15 845.46 643.66 851.22 633.29 C 855.96 623.59 862.39 614.69 870.30 607.31 Z" />
<path fill="rgba(0,0,0,0)" opacity="1.00" d=" M 604.41 637.42 C 608.39 635.11 611.75 639.05 614.62 641.30 C 625.67 650.93 637.80 659.32 650.57 666.47 C 668.50 674.04 686.76 681.26 705.88 685.25 C 710.67 686.45 715.20 688.63 720.11 689.39 C 727.51 689.81 734.70 691.91 742.12 692.30 C 750.69 693.88 759.42 694.11 768.04 695.26 C 770.69 695.60 773.52 694.80 776.08 695.73 C 779.13 699.41 778.73 704.75 777.81 709.15 C 777.13 710.99 776.40 713.86 774.05 713.94 C 761.67 713.26 749.35 711.83 737.03 710.54 C 726.63 708.92 716.02 707.98 706.02 704.50 C 696.53 702.41 687.07 700.05 677.89 696.84 C 664.23 692.53 650.72 687.61 637.89 681.22 C 627.15 673.62 614.37 668.54 605.69 658.31 C 602.66 654.15 599.54 649.44 599.78 644.07 C 599.65 641.13 601.79 638.51 604.41 637.42 Z" />
<path fill="rgba(0,0,0,0)" opacity="1.00" d=" M 814.04 672.81 C 822.06 669.81 831.27 671.03 838.43 675.66 C 852.96 684.28 857.84 705.51 848.73 719.70 C 844.55 726.29 837.72 731.38 830.06 733.09 C 827.65 731.81 829.51 729.52 831.62 729.57 C 832.30 727.99 832.43 725.93 833.96 724.89 C 835.72 723.30 838.25 724.03 840.40 723.75 C 840.44 721.16 839.36 718.31 841.00 716.03 C 842.46 712.56 848.79 714.24 848.34 709.42 C 846.81 708.93 845.32 708.40 843.85 707.84 C 844.22 706.21 844.75 704.61 844.99 702.96 C 844.28 700.58 843.44 698.25 842.82 695.85 C 843.94 694.53 846.47 693.58 845.65 691.47 C 845.29 691.00 844.56 690.06 844.19 689.59 C 842.61 689.97 840.73 691.21 839.47 689.54 C 838.24 688.32 837.64 686.67 836.85 685.20 C 838.59 683.46 838.22 680.07 835.18 680.47 C 834.84 680.94 834.16 681.87 833.82 682.34 C 830.97 681.16 827.94 680.32 825.29 678.76 C 824.84 677.25 826.08 674.66 823.93 674.28 C 821.54 673.46 820.71 676.71 819.71 678.21 C 817.44 677.92 815.21 677.25 812.93 677.22 C 810.87 678.16 809.28 679.85 807.33 680.98 C 806.73 680.64 805.52 679.96 804.92 679.61 C 805.07 675.22 810.61 674.06 814.04 672.81 Z" />
<path fill="rgba(0,0,0,0)" opacity="1.00" d=" M 880.39 674.35 C 882.71 673.11 885.39 672.57 888.02 672.83 C 890.43 673.18 892.54 675.52 892.28 678.02 C 892.04 682.00 889.93 685.54 887.75 688.77 C 880.19 699.71 870.51 709.28 858.93 715.93 C 859.97 712.19 860.26 708.25 861.56 704.60 C 864.65 699.73 868.70 695.52 871.82 690.67 C 872.58 689.58 871.96 687.72 870.57 687.56 C 866.59 690.63 863.71 694.86 860.83 698.91 C 860.17 695.58 859.37 692.29 858.64 688.99 C 865.03 682.95 872.64 678.41 880.39 674.35 Z" />
<path fill="rgba(0,0,0,0)" opacity="1.00" d=" M 860.62 719.55 C 869.47 715.45 877.37 709.21 883.17 701.35 C 883.92 730.00 883.60 758.66 883.89 787.31 C 878.56 787.49 873.21 787.65 867.88 787.40 C 865.24 781.00 866.18 773.70 866.32 766.89 C 860.75 766.07 855.10 766.74 849.52 766.93 C 852.28 754.18 852.81 740.99 851.95 728.02 C 854.53 724.93 856.77 721.19 860.62 719.55 Z" />
<path fill="rgba(0,0,0,0)" opacity="1.00" d=" M 725.99 713.82 C 738.63 715.46 751.29 716.96 763.99 717.88 C 770.98 718.66 778.01 719.58 785.05 718.96 C 786.73 719.13 788.10 718.28 789.24 717.13 C 793.28 726.32 800.44 734.47 810.06 737.90 C 818.43 741.40 827.91 740.92 836.47 738.36 C 837.26 747.90 836.68 757.47 835.50 766.96 C 825.80 767.62 815.97 766.48 806.36 768.01 C 806.41 774.70 807.37 781.52 805.70 788.09 C 804.51 788.37 803.30 788.67 802.09 788.78 C 787.41 788.92 772.74 789.40 758.06 789.45 C 755.67 789.19 754.72 792.04 755.52 793.92 C 757.42 799.45 761.49 803.96 765.87 807.71 C 749.64 808.54 733.37 807.58 717.16 808.61 C 724.99 797.37 725.45 783.20 726.61 770.04 C 727.27 751.31 727.53 732.51 725.99 713.82 Z" />
<path fill="rgba(0,0,0,0)" opacity="1.00" d=" M 840.29 736.90 C 842.73 735.17 845.37 733.75 847.97 732.26 C 847.60 743.82 847.81 755.74 843.90 766.80 C 842.50 766.85 841.12 766.90 839.75 766.96 C 840.93 757.01 842.08 746.84 840.29 736.90 Z" />
<path fill="rgba(0,0,0,0)" opacity="1.00" d=" M 389.29 793.19 C 392.92 782.59 400.40 772.57 411.16 768.53 C 415.44 768.17 419.89 768.01 423.98 769.60 C 425.02 769.87 425.45 770.96 426.11 771.71 C 421.82 771.18 417.27 769.98 413.14 771.88 C 403.02 775.53 396.71 785.25 393.11 794.92 C 389.36 806.87 388.36 820.00 392.10 832.10 C 395.21 841.17 400.83 850.55 410.61 853.43 C 409.74 855.20 407.39 854.31 406.04 853.78 C 399.04 850.62 393.52 844.62 390.44 837.64 C 383.91 823.79 384.65 807.50 389.29 793.19 Z" />
<path fill="rgba(0,0,0,0)" opacity="1.00" d=" M 627.06 796.93 C 659.10 790.36 690.77 781.87 721.55 770.78 C 721.44 772.02 721.33 773.26 721.24 774.52 C 708.09 778.67 695.03 783.09 681.75 786.83 C 634.79 799.96 586.62 808.81 538.01 812.82 C 515.51 814.79 492.92 815.13 470.37 815.94 C 470.50 823.06 469.78 830.18 468.12 837.10 C 464.03 851.86 458.93 867.14 447.69 878.11 C 484.41 879.94 521.05 875.17 557.14 868.75 C 591.15 862.68 625.06 855.75 658.34 846.42 C 663.54 844.68 669.11 843.79 673.89 840.97 C 677.82 839.06 682.08 837.95 685.99 835.98 C 696.97 830.61 706.96 822.91 714.33 813.10 C 735.53 812.66 756.74 812.83 777.95 812.40 C 806.88 812.24 835.81 811.62 864.75 811.66 C 889.82 811.07 914.91 810.75 940.00 810.52 C 968.00 810.49 995.99 809.65 1024.00 809.78 L 1024.00 1024.00 L 0.00 1024.00 L 0.00 809.24 C 29.68 809.11 59.36 809.15 89.04 809.17 C 137.37 808.99 185.70 808.78 234.03 808.90 C 236.64 821.88 241.37 834.69 249.76 845.09 C 252.98 849.86 257.54 853.43 261.81 857.21 C 269.14 863.25 278.47 866.55 287.92 866.99 C 291.31 866.58 294.71 866.36 298.09 865.87 C 303.67 865.18 308.20 861.57 313.13 859.20 C 318.40 856.70 321.41 851.42 325.95 847.98 C 322.72 843.56 318.95 839.54 316.23 834.77 C 307.77 820.41 307.61 803.22 306.99 787.07 C 321.68 792.67 336.79 797.26 352.32 799.83 C 350.94 820.06 352.43 841.45 362.35 859.57 C 363.91 862.49 364.43 865.91 366.56 868.54 C 373.50 877.46 382.15 885.41 392.80 889.60 C 403.81 894.04 416.33 893.10 427.39 889.31 C 433.97 886.81 439.40 882.20 445.17 878.30 C 445.58 877.04 445.84 875.70 446.63 874.61 C 460.38 857.05 467.48 834.54 467.10 812.30 C 520.75 812.48 574.51 807.95 627.06 796.93 M 312.00 811.03 C 313.53 824.41 319.89 837.01 329.34 846.56 C 332.25 850.50 336.54 852.96 340.81 855.17 C 342.16 855.81 343.50 856.48 344.85 857.15 C 348.80 858.91 352.80 860.55 356.86 862.04 C 358.21 862.42 359.56 862.78 360.91 863.21 C 358.23 859.87 356.60 855.89 354.98 851.97 C 348.63 836.32 348.04 819.13 348.70 802.48 C 335.69 800.00 323.06 795.92 310.53 791.70 C 310.12 798.17 311.34 804.61 312.00 811.03 Z" />
<path fill="rgba(0,0,0,0)" opacity="1.00" d=" M 811.17 772.12 C 827.81 771.55 844.48 771.77 861.14 771.24 C 860.82 776.79 860.74 782.39 862.32 787.79 C 845.12 788.20 827.93 788.26 810.73 788.55 C 811.83 783.13 811.62 777.59 811.17 772.12 Z" />
<path fill="rgba(0,0,0,0)" opacity="1.00" d=" M 816.64 793.27 C 845.00 792.64 873.36 792.50 901.72 792.12 C 899.78 797.57 895.70 801.78 892.09 806.16 C 878.38 806.42 864.66 806.38 850.95 806.84 C 841.99 806.59 832.98 807.70 824.06 806.78 C 820.69 802.88 818.85 797.87 816.64 793.27 Z" />
<path fill="rgba(0,0,0,0)" opacity="1.00" d=" M 760.41 793.83 C 777.80 794.07 795.20 793.31 812.60 793.68 C 814.38 798.33 816.37 802.93 819.01 807.17 C 804.01 807.27 789.01 807.52 774.02 807.75 C 772.80 807.52 771.22 808.08 770.33 807.01 C 766.51 803.05 762.93 798.75 760.41 793.83 Z" />
</g>
<g id="Group-000000" fill="#000000">
<path fill="#000000" opacity="1.00" d=" M 404.27 208.65 C 397.62 198.75 404.26 183.23 415.95 181.11 C 422.71 180.68 429.89 183.92 433.19 190.01 C 438.52 199.17 433.20 212.97 422.54 215.06 C 427.47 234.18 432.52 253.28 438.20 272.19 C 441.24 272.89 444.85 273.40 446.51 276.44 C 447.17 277.94 448.57 280.39 446.78 281.63 C 440.77 283.46 434.22 283.19 428.11 282.04 C 425.32 281.50 425.64 277.91 427.13 276.21 C 428.53 273.87 431.45 273.67 433.83 273.06 C 427.63 254.38 423.27 235.15 417.81 216.24 C 412.54 215.61 406.88 213.63 404.27 208.65 M 415.31 187.22 C 411.12 189.04 409.09 193.75 408.62 198.04 C 408.45 199.87 408.59 202.64 411.13 202.12 C 412.05 199.58 411.52 196.59 413.23 194.35 C 414.85 191.81 417.65 190.49 419.92 188.64 C 420.97 185.81 416.74 186.30 415.31 187.22 Z" />
<path fill="#000000" opacity="1.00" d=" M 448.57 272.40 C 466.72 272.35 484.88 272.41 503.03 272.49 C 523.41 272.22 543.78 273.22 564.06 275.22 C 570.35 276.04 576.78 275.53 582.99 277.03 C 597.84 280.21 612.23 285.41 625.87 292.07 C 629.20 293.58 631.90 296.25 633.41 299.59 C 643.34 320.23 646.68 343.32 647.23 366.02 C 647.58 390.91 646.47 415.87 642.82 440.50 C 640.05 457.82 635.89 475.77 624.78 489.81 C 613.79 504.34 596.45 512.63 578.94 516.21 C 567.79 518.51 556.33 518.07 545.04 517.34 C 532.04 517.21 519.05 516.57 506.05 516.19 C 506.29 527.73 506.16 539.27 506.07 550.82 C 552.32 548.03 598.81 546.74 645.05 550.32 C 654.47 551.10 663.90 552.24 673.09 554.54 C 677.18 555.72 681.78 557.03 684.28 560.79 C 686.66 564.24 688.36 568.11 690.04 571.94 C 694.05 581.71 697.98 591.53 701.42 601.52 C 738.05 601.64 774.68 600.70 811.31 600.95 C 811.57 589.87 813.45 578.53 818.58 568.60 C 820.33 564.90 824.58 561.67 828.81 563.22 C 833.16 564.64 835.28 569.10 837.11 572.93 C 840.82 581.88 843.47 591.26 845.39 600.75 C 854.15 600.97 862.92 600.62 871.68 600.74 C 873.40 599.02 875.25 597.39 877.58 596.55 C 877.98 597.71 878.40 598.87 878.82 600.05 C 881.71 600.24 885.46 598.84 887.71 601.29 C 888.46 604.80 887.83 608.42 887.91 611.99 C 887.85 629.41 887.85 646.83 887.94 664.26 C 886.44 664.39 884.96 664.53 883.48 664.68 C 883.25 644.74 883.29 624.80 883.11 604.87 C 881.41 604.96 879.74 605.06 878.07 605.17 C 877.04 618.43 873.21 631.45 867.41 643.40 C 862.27 654.00 856.13 664.35 847.55 672.53 C 851.47 676.15 854.72 680.45 857.00 685.28 C 861.85 680.61 867.28 676.58 872.98 673.03 C 878.15 670.26 884.00 667.17 890.04 668.87 C 894.67 669.56 897.73 674.43 897.20 678.93 C 896.51 685.57 892.25 691.04 888.28 696.12 C 887.57 726.52 887.95 756.94 887.89 787.34 C 893.59 787.37 899.29 786.84 904.99 787.15 C 907.35 787.48 907.19 790.24 906.92 792.03 C 906.07 797.68 901.79 801.86 898.63 806.34 C 940.41 805.60 982.21 805.22 1024.00 804.66 L 1024.00 809.78 C 995.99 809.65 968.00 810.49 940.00 810.52 C 914.91 810.75 889.82 811.07 864.75 811.66 C 835.81 811.62 806.88 812.24 777.95 812.40 C 756.74 812.83 735.53 812.66 714.33 813.10 C 706.96 822.91 696.97 830.61 685.99 835.98 C 682.08 837.95 677.82 839.06 673.89 840.97 C 669.11 843.79 663.54 844.68 658.34 846.42 C 625.06 855.75 591.15 862.68 557.14 868.75 C 521.05 875.17 484.41 879.94 447.69 878.11 C 458.93 867.14 464.03 851.86 468.12 837.10 C 469.78 830.18 470.50 823.06 470.37 815.94 C 492.92 815.13 515.51 814.79 538.01 812.82 C 586.62 808.81 634.79 799.96 681.75 786.83 C 695.03 783.09 708.09 778.67 721.24 774.52 C 721.33 773.26 721.44 772.02 721.55 770.78 C 690.77 781.87 659.10 790.36 627.06 796.93 C 574.51 807.95 520.75 812.48 467.10 812.30 C 467.48 834.54 460.38 857.05 446.63 874.61 C 445.84 875.70 445.58 877.04 445.17 878.30 C 439.40 882.20 433.97 886.81 427.39 889.31 C 416.33 893.10 403.81 894.04 392.80 889.60 C 382.15 885.41 373.50 877.46 366.56 868.54 C 364.43 865.91 363.91 862.49 362.35 859.57 C 352.43 841.45 350.94 820.06 352.32 799.83 C 336.79 797.26 321.68 792.67 306.99 787.07 C 307.61 803.22 307.77 820.41 316.23 834.77 C 318.95 839.54 322.72 843.56 325.95 847.98 C 321.41 851.42 318.40 856.70 313.13 859.20 C 308.20 861.57 303.67 865.18 298.09 865.87 C 294.71 866.36 291.31 866.58 287.92 866.99 C 278.47 866.55 269.14 863.25 261.81 857.21 C 257.54 853.43 252.98 849.86 249.76 845.09 C 241.37 834.69 236.64 821.88 234.03 808.90 C 185.70 808.78 137.37 808.99 89.04 809.17 C 59.36 809.15 29.68 809.11 0.00 809.24 L 0.00 805.07 C 23.02 804.92 46.03 804.99 69.04 804.95 C 123.82 805.41 178.60 804.71 233.38 804.82 C 231.77 786.16 233.33 766.47 242.83 749.94 C 250.35 736.57 261.72 724.44 276.66 719.67 C 287.92 716.57 300.80 716.63 310.90 723.14 C 319.56 694.61 328.41 666.14 337.51 637.76 C 318.13 635.71 298.56 632.49 280.63 624.55 C 264.52 618.73 248.64 612.32 233.22 604.86 C 222.74 599.46 212.15 593.92 203.08 586.29 C 188.56 601.77 161.59 602.43 146.36 587.65 C 132.11 574.57 130.70 550.60 142.63 535.55 C 154.20 519.88 178.18 515.65 194.40 526.42 C 205.86 533.79 212.73 547.42 212.48 560.96 C 234.00 574.63 256.86 586.28 280.90 594.85 C 290.34 598.19 299.54 602.28 309.26 604.81 C 321.21 607.88 333.46 609.49 345.69 611.00 C 349.09 600.67 352.19 590.25 355.52 579.90 C 356.53 576.83 357.77 573.47 360.68 571.70 C 367.93 566.99 376.61 565.39 384.90 563.48 C 406.70 559.26 428.87 557.25 450.97 555.26 C 455.50 554.90 460.04 554.53 464.60 554.74 C 464.70 541.21 464.79 527.68 464.53 514.16 C 447.50 513.61 430.47 512.67 413.49 511.23 C 393.77 508.94 373.57 507.68 354.88 500.41 C 346.58 497.18 339.17 492.14 331.80 487.24 C 325.32 482.88 318.80 478.15 314.58 471.43 C 310.76 465.83 309.63 459.02 306.92 452.91 C 305.47 449.81 305.67 446.30 305.61 442.97 C 305.76 417.98 305.02 392.98 306.04 368.00 C 306.87 350.63 308.27 333.27 310.02 315.97 C 311.78 308.84 316.32 302.65 321.43 297.50 C 332.55 286.97 347.29 281.19 362.08 278.08 C 382.61 273.51 403.75 272.97 424.69 272.60 C 423.98 274.22 423.28 275.86 422.58 277.50 C 397.78 277.72 372.44 278.59 348.76 286.73 C 335.07 291.64 321.35 300.24 315.43 314.11 C 313.66 322.91 313.52 331.98 312.60 340.90 C 309.46 373.86 310.59 407.01 310.33 440.07 C 310.47 443.89 309.88 447.93 311.42 451.56 C 313.93 458.18 315.50 465.34 319.87 471.09 C 326.00 479.12 335.23 483.83 343.44 489.39 C 362.84 502.02 386.61 503.45 408.94 506.07 C 428.23 508.22 447.63 508.80 467.00 509.89 C 488.02 510.66 509.02 511.87 530.05 512.29 C 539.37 513.07 548.75 512.20 558.05 513.39 C 581.97 513.93 607.74 505.29 622.33 485.42 C 634.63 468.91 637.32 447.82 639.81 427.98 C 639.62 426.48 640.68 425.41 641.14 424.13 C 640.11 418.14 641.35 412.09 641.65 406.08 C 643.04 382.72 643.57 359.08 639.96 335.88 C 625.64 336.46 611.32 337.09 596.99 337.24 C 594.67 337.35 591.39 337.03 591.59 333.93 C 592.78 332.10 595.11 332.12 597.05 331.84 C 610.89 330.44 624.81 330.11 638.69 329.17 C 637.51 324.40 636.42 319.57 634.53 315.02 C 630.37 314.69 626.23 315.54 622.10 315.76 C 611.08 316.47 600.04 316.73 589.05 317.70 C 586.56 317.88 585.70 313.83 588.23 313.15 C 592.62 311.47 597.41 311.13 602.05 310.62 C 612.02 309.73 622.04 309.27 631.98 308.03 C 630.77 305.00 629.74 301.83 627.78 299.20 C 625.98 297.22 623.48 296.07 621.13 294.89 C 607.34 288.72 593.03 283.46 578.11 280.84 C 565.72 280.52 553.42 278.85 541.05 278.12 C 511.16 276.64 481.21 277.68 451.30 277.13 C 450.42 275.53 449.53 273.94 448.57 272.40 M 497.43 515.83 C 497.92 522.13 495.91 528.43 497.10 534.67 C 496.06 537.44 495.47 540.94 498.12 543.04 C 499.42 541.68 500.15 539.93 500.08 538.05 C 500.22 530.58 501.27 523.15 500.99 515.67 C 499.79 515.70 498.61 515.76 497.43 515.83 M 147.38 543.51 C 142.30 550.48 141.85 559.74 143.34 567.96 C 146.85 578.73 155.63 588.30 166.99 590.68 C 168.50 591.26 169.78 589.91 170.95 589.24 C 168.37 587.44 164.56 584.48 161.61 586.81 C 161.57 586.10 161.48 584.69 161.43 583.98 C 160.55 583.79 159.64 583.78 158.75 583.74 C 157.28 580.49 153.23 579.66 151.00 576.97 C 151.22 575.45 153.74 574.31 152.32 572.70 C 150.79 572.46 149.25 572.31 147.71 572.12 C 147.85 570.63 148.04 569.15 148.28 567.68 C 147.68 567.56 146.49 567.31 145.90 567.19 C 145.85 566.35 145.75 564.66 145.70 563.81 C 146.35 563.50 147.66 562.87 148.31 562.56 C 146.46 560.45 144.80 558.00 146.00 555.08 C 147.38 554.76 148.76 554.44 150.11 554.03 C 149.60 552.94 148.80 552.12 147.69 551.55 C 147.62 548.71 149.81 546.81 151.64 544.98 C 154.39 544.20 154.19 540.60 155.38 538.45 C 158.41 537.42 163.77 535.03 161.63 531.16 C 155.40 533.04 150.57 537.98 147.38 543.51 M 497.65 562.85 C 499.11 564.44 501.10 564.49 503.09 564.02 C 502.20 562.03 498.87 560.20 497.65 562.85 M 466.95 564.97 C 469.50 566.21 472.08 567.98 474.89 568.31 C 475.24 567.80 475.94 566.78 476.28 566.26 C 472.78 565.35 469.61 563.63 466.91 561.22 C 466.39 562.25 465.26 564.34 466.95 564.97 M 491.92 565.00 C 489.61 565.44 486.82 565.13 485.11 567.02 C 483.88 565.77 482.36 565.27 480.67 565.85 C 482.16 567.79 484.16 569.16 486.54 569.80 C 486.60 569.32 486.73 568.36 486.79 567.88 C 488.03 568.54 489.31 569.15 490.62 569.69 C 490.27 568.96 489.57 567.50 489.22 566.76 C 490.78 567.39 492.27 568.14 493.88 568.69 C 493.74 568.14 493.45 567.03 493.31 566.48 C 494.43 566.74 495.55 567.00 496.69 567.25 C 496.36 566.70 495.69 565.59 495.36 565.04 C 496.31 565.82 497.22 566.55 498.20 567.34 C 499.86 565.57 498.62 564.34 497.13 563.20 C 495.35 563.71 493.65 564.39 491.92 565.00 M 672.99 567.99 C 660.58 571.74 647.66 573.31 634.96 575.75 C 629.60 576.18 627.95 582.19 626.65 586.48 C 624.36 597.89 625.88 609.61 626.19 621.15 C 621.53 619.47 622.50 613.88 621.84 609.99 C 621.50 599.00 619.75 586.92 625.60 576.99 C 609.06 579.55 592.51 582.04 575.94 584.36 C 553.07 587.22 530.06 588.93 507.03 589.50 C 486.34 589.54 465.62 590.00 444.96 588.75 C 423.14 587.60 401.51 584.15 380.14 579.74 C 374.83 578.75 369.86 576.65 364.95 574.50 C 361.17 576.58 360.52 581.17 359.22 584.88 C 346.20 625.50 333.66 666.27 320.95 706.98 C 313.32 731.22 308.29 756.39 307.10 781.81 C 321.71 788.55 337.42 792.62 353.24 795.31 C 357.46 774.33 368.90 753.78 387.45 742.33 C 396.98 736.32 408.65 735.02 419.63 736.52 C 432.12 739.08 443.22 747.14 450.41 757.57 C 460.96 772.09 466.25 789.93 467.36 807.71 C 505.83 808.07 544.35 805.71 582.46 800.31 C 599.03 798.10 615.40 794.61 631.83 791.58 C 628.08 787.69 626.42 782.38 625.57 777.17 C 624.22 767.84 624.18 758.41 623.35 749.04 C 622.04 725.90 620.99 702.74 620.94 679.57 C 622.33 680.38 623.69 681.25 625.04 682.16 C 626.36 697.07 625.99 712.08 626.92 727.02 C 627.95 744.02 628.21 761.11 630.66 777.99 C 631.73 782.24 633.09 788.05 637.94 789.31 C 644.41 788.09 650.80 786.37 657.16 784.64 C 663.01 784.74 668.43 782.28 674.03 780.95 C 690.26 776.36 706.38 771.30 722.15 765.30 C 722.33 747.89 722.51 730.46 721.07 713.10 C 713.50 712.03 706.39 709.10 698.88 707.78 C 680.06 703.04 661.58 696.89 643.75 689.23 C 632.04 684.26 621.58 676.98 610.87 670.22 C 603.77 664.76 597.02 657.77 594.75 648.84 C 592.90 641.76 597.19 632.73 604.99 631.85 C 609.39 630.89 613.44 633.44 616.47 636.36 C 627.46 647.13 640.55 655.50 654.05 662.76 C 666.58 668.71 679.72 673.25 692.96 677.33 C 701.04 679.64 709.33 681.22 717.32 683.88 C 714.52 668.86 711.97 653.77 707.98 639.01 C 703.41 621.15 697.22 603.76 690.64 586.56 C 687.57 579.29 685.20 571.66 681.11 564.88 C 678.25 565.29 675.81 567.28 672.99 567.99 M 824.09 569.00 C 821.73 571.90 820.49 575.52 819.24 579.00 C 815.21 592.30 814.73 606.44 816.06 620.19 C 818.17 633.46 822.41 646.39 828.66 658.29 C 830.07 660.84 831.13 663.88 833.80 665.42 C 833.63 653.23 831.07 641.19 830.44 629.01 C 830.33 624.37 829.34 619.66 830.34 615.07 C 832.39 613.20 833.84 615.95 833.71 617.82 C 834.73 630.62 836.27 643.37 837.29 656.17 C 838.92 651.04 841.06 646.09 843.16 641.14 C 844.62 637.91 843.91 634.32 843.84 630.92 C 842.89 613.85 840.57 596.68 834.68 580.55 C 833.13 576.54 832.00 572.16 829.07 568.89 C 827.85 567.44 825.21 567.46 824.09 569.00 M 213.51 586.06 C 212.64 588.68 215.74 589.54 217.41 590.65 C 238.05 603.34 260.71 612.27 283.43 620.46 C 300.80 628.34 319.91 631.07 338.70 633.21 C 340.50 627.18 342.53 621.23 344.39 615.23 C 330.77 613.88 317.28 611.45 304.03 608.05 C 297.86 607.67 292.80 603.85 287.08 602.01 C 273.80 597.39 260.65 592.34 247.99 586.21 C 239.18 581.67 230.13 577.53 221.90 571.96 C 218.50 576.21 214.68 580.61 213.51 586.06 M 702.83 605.29 C 707.01 617.37 710.63 629.63 713.78 642.02 C 717.39 656.10 719.73 670.47 722.41 684.75 C 737.77 687.67 753.39 689.46 769.01 690.53 C 775.40 691.08 781.87 690.51 788.21 691.80 C 790.45 684.37 794.57 677.47 800.44 672.36 C 807.42 666.14 817.07 662.80 826.40 664.02 C 821.09 653.56 816.53 642.64 813.85 631.19 C 811.67 622.84 811.51 614.15 811.14 605.58 C 804.77 605.23 798.39 605.28 792.02 605.29 C 762.29 605.48 732.55 605.66 702.83 605.29 M 846.32 605.28 C 847.51 613.09 848.36 620.94 848.99 628.81 C 853.37 619.95 859.61 612.09 866.66 605.22 C 859.88 605.40 853.09 605.35 846.32 605.28 M 870.30 607.31 C 862.39 614.69 855.96 623.59 851.22 633.29 C 845.46 643.66 842.31 655.15 838.59 666.32 C 840.35 667.59 842.20 668.72 844.09 669.82 C 860.59 652.17 871.22 629.03 873.82 605.01 C 872.54 605.61 871.29 606.30 870.30 607.31 M 604.41 637.42 C 601.79 638.51 599.65 641.13 599.78 644.07 C 599.54 649.44 602.66 654.15 605.69 658.31 C 614.37 668.54 627.15 673.62 637.89 681.22 C 650.72 687.61 664.23 692.53 677.89 696.84 C 687.07 700.05 696.53 702.41 706.02 704.50 C 716.02 707.98 726.63 708.92 737.03 710.54 C 749.35 711.83 761.67 713.26 774.05 713.94 C 776.40 713.86 777.13 710.99 777.81 709.15 C 778.73 704.75 779.13 699.41 776.08 695.73 C 773.52 694.80 770.69 695.60 768.04 695.26 C 759.42 694.11 750.69 693.88 742.12 692.30 C 734.70 691.91 727.51 689.81 720.11 689.39 C 715.20 688.63 710.67 686.45 705.88 685.25 C 686.76 681.26 668.50 674.04 650.57 666.47 C 637.80 659.32 625.67 650.93 614.62 641.30 C 611.75 639.05 608.39 635.11 604.41 637.42 M 814.04 672.81 C 810.61 674.06 805.07 675.22 804.92 679.61 C 805.52 679.96 806.73 680.64 807.33 680.98 C 809.28 679.85 810.87 678.16 812.93 677.22 C 815.21 677.25 817.44 677.92 819.71 678.21 C 820.71 676.71 821.54 673.46 823.93 674.28 C 826.08 674.66 824.84 677.25 825.29 678.76 C 827.94 680.32 830.97 681.16 833.82 682.34 C 834.16 681.87 834.84 680.94 835.18 680.47 C 838.22 680.07 838.59 683.46 836.85 685.20 C 837.64 686.67 838.24 688.32 839.47 689.54 C 840.73 691.21 842.61 689.97 844.19 689.59 C 844.56 690.06 845.29 691.00 845.65 691.47 C 846.47 693.58 843.94 694.53 842.82 695.85 C 843.44 698.25 844.28 700.58 844.99 702.96 C 844.75 704.61 844.22 706.21 843.85 707.84 C 845.32 708.40 846.81 708.93 848.34 709.42 C 848.79 714.24 842.46 712.56 841.00 716.03 C 839.36 718.31 840.44 721.16 840.40 723.75 C 838.25 724.03 835.72 723.30 833.96 724.89 C 832.43 725.93 832.30 727.99 831.62 729.57 C 829.51 729.52 827.65 731.81 830.06 733.09 C 837.72 731.38 844.55 726.29 848.73 719.70 C 857.84 705.51 852.96 684.28 838.43 675.66 C 831.27 671.03 822.06 669.81 814.04 672.81 M 880.39 674.35 C 872.64 678.41 865.03 682.95 858.64 688.99 C 859.37 692.29 860.17 695.58 860.83 698.91 C 863.71 694.86 866.59 690.63 870.57 687.56 C 871.96 687.72 872.58 689.58 871.82 690.67 C 868.70 695.52 864.65 699.73 861.56 704.60 C 860.26 708.25 859.97 712.19 858.93 715.93 C 870.51 709.28 880.19 699.71 887.75 688.77 C 889.93 685.54 892.04 682.00 892.28 678.02 C 892.54 675.52 890.43 673.18 888.02 672.83 C 885.39 672.57 882.71 673.11 880.39 674.35 M 860.62 719.55 C 856.77 721.19 854.53 724.93 851.95 728.02 C 852.81 740.99 852.28 754.18 849.52 766.93 C 855.10 766.74 860.75 766.07 866.32 766.89 C 866.18 773.70 865.24 781.00 867.88 787.40 C 873.21 787.65 878.56 787.49 883.89 787.31 C 883.60 758.66 883.92 730.00 883.17 701.35 C 877.37 709.21 869.47 715.45 860.62 719.55 M 725.99 713.82 C 727.53 732.51 727.27 751.31 726.61 770.04 C 725.45 783.20 724.99 797.37 717.16 808.61 C 733.37 807.58 749.64 808.54 765.87 807.71 C 761.49 803.96 757.42 799.45 755.52 793.92 C 754.72 792.04 755.67 789.19 758.06 789.45 C 772.74 789.40 787.41 788.92 802.09 788.78 C 803.30 788.67 804.51 788.37 805.70 788.09 C 807.37 781.52 806.41 774.70 806.36 768.01 C 815.97 766.48 825.80 767.62 835.50 766.96 C 836.68 757.47 837.26 747.90 836.47 738.36 C 827.91 740.92 818.43 741.40 810.06 737.90 C 800.44 734.47 793.28 726.32 789.24 717.13 C 788.10 718.28 786.73 719.13 785.05 718.96 C 778.01 719.58 770.98 718.66 763.99 717.88 C 751.29 716.96 738.63 715.46 725.99 713.82 M 840.29 736.90 C 842.08 746.84 840.93 757.01 839.75 766.96 C 841.12 766.90 842.50 766.85 843.90 766.80 C 847.81 755.74 847.60 743.82 847.97 732.26 C 845.37 733.75 842.73 735.17 840.29 736.90 M 389.29 793.19 C 384.65 807.50 383.91 823.79 390.44 837.64 C 393.52 844.62 399.04 850.62 406.04 853.78 C 407.39 854.31 409.74 855.20 410.61 853.43 C 400.83 850.55 395.21 841.17 392.10 832.10 C 388.36 820.00 389.36 806.87 393.11 794.92 C 396.71 785.25 403.02 775.53 413.14 771.88 C 417.27 769.98 421.82 771.18 426.11 771.71 C 425.45 770.96 425.02 769.87 423.98 769.60 C 419.89 768.01 415.44 768.17 411.16 768.53 C 400.40 772.57 392.92 782.59 389.29 793.19 M 811.17 772.12 C 811.62 777.59 811.83 783.13 810.73 788.55 C 827.93 788.26 845.12 788.20 862.32 787.79 C 860.74 782.39 860.82 776.79 861.14 771.24 C 844.48 771.77 827.81 771.55 811.17 772.12 M 816.64 793.27 C 818.85 797.87 820.69 802.88 824.06 806.78 C 832.98 807.70 841.99 806.59 850.95 806.84 C 864.66 806.38 878.38 806.42 892.09 806.16 C 895.70 801.78 899.78 797.57 901.72 792.12 C 873.36 792.50 845.00 792.64 816.64 793.27 M 760.41 793.83 C 762.93 798.75 766.51 803.05 770.33 807.01 C 771.22 808.08 772.80 807.52 774.02 807.75 C 789.01 807.52 804.01 807.27 819.01 807.17 C 816.37 802.93 814.38 798.33 812.60 793.68 C 795.20 793.31 777.80 794.07 760.41 793.83 Z" />
<path fill="#000000" opacity="1.00" d=" M 356.46 322.65 C 378.28 321.59 400.17 322.49 422.01 322.50 C 433.69 322.47 445.36 322.63 457.03 322.62 C 469.69 322.91 482.37 322.24 495.01 323.19 C 506.95 323.20 519.34 323.03 530.63 327.46 C 541.33 332.74 545.45 345.13 547.98 355.96 C 551.69 376.40 550.52 397.45 547.52 417.91 C 546.06 426.70 544.38 435.58 540.81 443.80 C 538.40 449.35 534.12 454.14 528.55 456.62 C 520.31 460.35 510.93 460.33 502.11 459.28 C 457.13 456.73 411.91 457.71 367.13 452.05 C 356.48 450.36 344.74 448.25 337.22 439.78 C 330.22 432.34 328.82 421.79 327.51 412.10 C 325.03 396.16 324.59 379.95 325.61 363.87 C 326.48 354.27 328.39 344.28 334.32 336.43 C 339.44 329.08 347.56 323.87 356.46 322.65 M 385.41 330.51 C 383.57 331.29 383.94 333.33 384.04 334.95 C 385.87 335.11 388.04 335.07 388.74 333.01 C 390.29 331.14 386.85 329.19 385.41 330.51 M 397.21 331.11 C 396.84 331.65 396.11 332.72 395.75 333.26 C 396.57 334.36 397.90 336.40 399.51 335.26 C 401.05 334.53 400.95 332.72 401.13 331.28 C 400.60 331.07 399.53 330.64 399.00 330.43 C 398.55 330.60 397.65 330.94 397.21 331.11 M 409.62 330.77 C 407.17 331.03 407.15 335.82 409.94 335.27 C 412.39 334.41 412.94 330.02 409.62 330.77 M 335.45 355.07 C 333.92 364.15 334.08 373.40 334.81 382.56 C 336.15 382.18 338.11 381.97 338.16 380.16 C 339.70 370.86 337.57 361.01 341.20 352.04 C 344.70 343.96 352.07 337.34 360.85 335.73 C 365.54 334.98 370.30 334.75 375.04 334.89 C 377.13 334.77 377.92 332.51 378.43 330.83 C 371.94 330.57 365.42 330.73 358.95 331.27 C 347.25 333.48 337.92 343.59 335.45 355.07 M 369.40 356.52 C 359.31 358.49 354.02 369.54 353.77 379.01 C 353.45 386.67 352.74 395.05 357.24 401.76 C 361.86 410.33 374.37 414.39 382.52 408.44 C 389.41 401.59 389.73 391.08 389.41 381.96 C 389.58 375.41 387.27 369.20 385.52 362.99 C 383.01 356.79 375.31 355.30 369.40 356.52 M 482.51 362.65 C 473.50 365.45 469.38 375.39 468.77 384.09 C 468.63 391.41 467.71 399.28 471.41 405.96 C 473.86 411.07 478.46 415.06 483.98 416.49 C 489.51 418.35 496.36 416.80 499.81 411.89 C 503.54 406.40 504.69 399.58 504.54 393.05 C 504.39 387.66 504.79 382.10 502.98 376.92 C 501.66 372.84 501.51 368.01 498.04 365.00 C 493.88 361.38 487.60 361.09 482.51 362.65 M 401.79 387.97 C 401.58 389.78 403.91 389.95 405.14 390.24 C 418.33 392.45 431.81 392.66 445.10 391.35 C 447.14 391.08 449.66 390.76 450.63 388.63 C 452.16 384.98 452.80 380.66 451.09 376.95 C 447.53 378.71 448.11 382.90 447.08 386.11 C 444.16 387.07 441.04 387.25 437.99 387.38 C 429.02 387.61 420.02 387.57 411.10 386.59 C 409.50 386.11 407.30 386.33 406.39 384.69 C 406.01 381.86 406.08 378.97 405.16 376.24 C 400.86 378.51 402.01 383.96 401.79 387.97 M 336.14 389.15 C 332.61 391.53 334.79 396.48 335.33 399.88 C 335.72 400.01 336.48 400.26 336.86 400.39 L 337.80 399.87 C 338.27 396.38 338.78 392.69 337.78 389.26 C 337.37 389.23 336.55 389.18 336.14 389.15 M 336.15 413.03 C 336.86 412.98 338.27 412.89 338.97 412.84 C 340.94 411.76 340.11 407.96 337.89 407.92 C 335.12 407.77 336.23 411.31 336.15 413.03 Z" />
<path fill="#000000" opacity="1.00" d=" M 369.42 361.77 C 374.58 359.89 381.45 361.96 383.37 367.47 C 385.15 373.09 384.32 379.14 384.77 384.95 C 384.55 391.07 385.26 398.02 381.19 403.12 C 378.50 406.92 373.08 407.75 369.02 405.83 C 364.99 403.92 360.80 401.14 359.52 396.60 C 357.59 390.23 358.54 383.48 359.12 376.98 C 359.61 370.64 363.34 364.17 369.42 361.77 Z" />
<path fill="#000000" opacity="1.00" d=" M 483.42 367.57 C 489.31 364.66 498.29 367.91 499.07 374.97 C 499.83 384.09 500.28 393.33 499.29 402.45 C 498.36 407.38 494.67 412.89 489.12 412.82 C 481.25 412.68 473.85 405.96 473.57 397.94 C 473.24 390.60 473.09 382.90 475.69 375.92 C 477.15 372.33 479.92 369.26 483.42 367.57 Z" />
<path fill="#000000" opacity="1.00" d=" M 150.66 541.35 C 151.19 541.39 152.26 541.46 152.79 541.50 C 153.90 544.21 149.00 543.81 150.66 541.35 Z" />
<path fill="#000000" opacity="1.00" d=" M 434.41 607.08 C 434.57 604.66 437.54 601.75 439.77 604.00 C 442.61 606.17 440.05 610.24 442.18 612.78 C 443.81 614.92 446.24 616.52 448.92 616.96 C 451.71 616.57 454.24 614.98 456.43 613.29 C 458.14 610.78 458.95 607.38 462.19 606.34 C 464.57 608.09 465.04 611.34 463.93 613.98 C 460.18 621.85 449.50 625.54 441.82 621.24 C 436.81 618.54 433.77 612.73 434.41 607.08 Z" />
<path fill="#000000" opacity="1.00" d=" M 582.22 612.18 C 590.40 607.94 600.48 607.63 608.96 611.21 C 618.02 614.69 624.93 622.70 627.82 631.88 C 629.18 635.92 629.18 640.22 629.64 644.42 C 624.01 640.08 619.56 634.34 613.54 630.52 C 606.70 626.39 597.25 629.97 593.76 636.86 C 589.87 644.32 592.17 653.66 597.11 660.06 C 600.97 664.73 604.85 669.56 610.07 672.78 C 604.81 676.28 598.24 676.62 592.13 676.25 C 580.22 675.09 569.84 666.38 565.49 655.41 C 564.04 651.44 563.51 647.19 563.35 642.99 C 563.14 630.27 570.73 617.70 582.22 612.18 Z" />
<path fill="#000000" opacity="1.00" d=" M 312.00 811.03 C 311.34 804.61 310.12 798.17 310.53 791.70 C 323.06 795.92 335.69 800.00 348.70 802.48 C 348.04 819.13 348.63 836.32 354.98 851.97 C 356.60 855.89 358.23 859.87 360.91 863.21 C 359.56 862.78 358.21 862.42 356.86 862.04 C 352.80 860.55 348.80 858.91 344.85 857.15 C 343.50 856.48 342.16 855.81 340.81 855.17 C 336.54 852.96 332.25 850.50 329.34 846.56 C 319.89 837.01 313.53 824.41 312.00 811.03 Z" />
</g>
</g></svg>